<svg width="24" height="24" viewBox="0 0 24 24" fill="none" xmlns="http://www.w3.org/2000/svg">
<path d="M16.125 1H7.875C4.07863 1 1 4.07863 1 7.875V16.125C1 19.9214 4.07863 23 7.875 23H16.125C19.9214 23 23 19.9214 23 16.125V7.875C23 4.07863 19.9214 1 16.125 1ZM20.9375 16.125C20.9375 18.7787 18.7787 20.9375 16.125 20.9375H7.875C5.22125 20.9375 3.0625 18.7787 3.0625 16.125V7.875C3.0625 5.22125 5.22125 3.0625 7.875 3.0625H16.125C18.7787 3.0625 20.9375 5.22125 20.9375 7.875V16.125Z" fill="#D91538"/>
<path d="M12 6.5C8.96262 6.5 6.5 8.96262 6.5 12C6.5 15.0374 8.96262 17.5 12 17.5C15.0374 17.5 17.5 15.0374 17.5 12C17.5 8.96262 15.0374 6.5 12 6.5ZM12 15.4375C10.1052 15.4375 8.5625 13.8948 8.5625 12C8.5625 10.1039 10.1052 8.5625 12 8.5625C13.8948 8.5625 15.4375 10.1039 15.4375 12C15.4375 13.8948 13.8948 15.4375 12 15.4375Z" fill="#D91538"/>
<path d="M17.9125 6.82024C18.3173 6.82024 18.6454 6.49212 18.6454 6.08736C18.6454 5.68261 18.3173 5.35449 17.9125 5.35449C17.5077 5.35449 17.1796 5.68261 17.1796 6.08736C17.1796 6.49212 17.5077 6.82024 17.9125 6.82024Z" fill="#D91538"/>
</svg>
