<svg width="226" height="198" viewBox="0 0 226 198" fill="none" xmlns="http://www.w3.org/2000/svg">
<path d="M113 85L169 57M113 85L169 113M113 85V141M169 57L225 85M169 57V113M225 85L169 113M225 85V141M169 113L225 141M169 113L113 141M169 113V169M225 141L169 169M169 169L113 141" stroke="#223D5D"/>
<path d="M1 85L57 57M1 85L57 113M1 85V141M57 57L113 85M57 57V113M113 85L57 113M113 85V141M57 113L113 141M57 113L1 141M57 113V169M113 141L57 169M57 169L1 141" stroke="#223D5D"/>
<path d="M57 113L113 85M57 113L113 141M57 113V169M113 85L169 113M113 85V141M169 113L113 141M169 113V169M113 141L169 169M113 141L57 169M113 141V197M169 169L113 197M113 197L57 169" stroke="#223D5D"/>
<path d="M113 29L169 1M113 29L169 57M113 29V85M169 1L225 29M169 1V57M225 29L169 57M225 29V85M169 57L225 85M169 57L113 85M169 57V113M225 85L169 113M169 113L113 85" stroke="#FF6560"/>
</svg>
