<svg width="226" height="198" viewBox="0 0 226 198" fill="none" xmlns="http://www.w3.org/2000/svg">
<path d="M113 113L169 85M113 113L169 141M113 113V169M169 85L225 113M169 85V141M225 113L169 141M225 113V169M169 141L225 169M169 141L113 169M169 141V197M225 169L169 197M169 197L113 169" stroke="#223D5D"/>
<path d="M1 113L57 85M1 113L57 141M1 113V169M57 85L113 113M57 85V141M113 113L57 141M113 113V169M57 141L113 169M57 141L1 169M57 141V197M113 169L57 197M57 197L1 169" stroke="#223D5D"/>
<path d="M57 29L113 1M57 29L113 57M57 29V85M113 1L169 29M113 1V57M169 29L113 57M169 29V85M113 57L169 85M113 57L57 85M113 57V113M169 85L113 113M113 113L57 85" stroke="#A88ABC"/>
</svg>
