<svg width="114" height="226" viewBox="0 0 114 226" fill="none" xmlns="http://www.w3.org/2000/svg">
<path d="M1 141L57 113M1 141L57 169M1 141V197M57 113L113 141M57 113V169M113 141L57 169M113 141V197M57 169L113 197M57 169L1 197M57 169V225M113 197L57 225M57 225L1 197" stroke="#223D5D"/>
<path d="M1 85L57 57M1 85L57 113M1 85V141M57 57L113 85M57 57V113M113 85L57 113M113 85V141M57 113L113 141M57 113L1 141M57 113V169M113 141L57 169M57 169L1 141" stroke="#223D5D"/>
<path d="M1 29L57 1M1 29L57 57M1 29V85M57 1L113 29M57 1V57M113 29L57 57M113 29V85M57 57L113 85M57 57L1 85M57 57V113M113 85L57 113M57 113L1 85" stroke="#E5BF92"/>
</svg>
