<svg width="1400" height="282" viewBox="0 0 1400 282" fill="none" xmlns="http://www.w3.org/2000/svg">
<rect x="1400" y="265" width="16" height="1400" transform="rotate(90 1400 265)" fill="#15365D"/>
<path d="M0 265H1400" stroke="#B9C2D7"/>
<path d="M0 281H1400" stroke="#B9C2D7"/>
<rect x="160" y="195" width="53" height="70" fill="#15365D" stroke="#B9C2D7"/>
<path d="M168 217.5V265" stroke="#B9C2D7"/>
<path d="M194.5 217.5V265" stroke="#B9C2D7"/>
<path d="M203 205L203 265" stroke="#B9C2D7"/>
<path d="M178 244L178 258" stroke="#B9C2D7"/>
<path d="M178 220L178 234" stroke="#B9C2D7"/>
<path d="M185 220L185 234" stroke="#B9C2D7"/>
<path d="M185 244L185 258" stroke="#B9C2D7"/>
<path d="M124 145V265H160V176H140V145H124Z" fill="#15365D" stroke="#B9C2D7"/>
<line x1="139.5" y1="187" x2="139.5" y2="194" stroke="#B9C2D7"/>
<line x1="139.5" y1="198" x2="139.5" y2="205" stroke="#B9C2D7"/>
<line x1="139.5" y1="220" x2="139.5" y2="227" stroke="#B9C2D7"/>
<line x1="139.5" y1="231" x2="139.5" y2="238" stroke="#B9C2D7"/>
<line x1="139.5" y1="253" x2="139.5" y2="260" stroke="#B9C2D7"/>
<path d="M103.5 146H88.5V265H133V135.5H103.5V146Z" fill="#15365D" stroke="#B9C2D7"/>
<line x1="108.5" y1="154" x2="108.5" y2="161" stroke="#B9C2D7"/>
<line x1="115.5" y1="154" x2="115.5" y2="161" stroke="#B9C2D7"/>
<line x1="108.5" y1="165" x2="108.5" y2="172" stroke="#B9C2D7"/>
<line x1="115.5" y1="165" x2="115.5" y2="172" stroke="#B9C2D7"/>
<line x1="108.5" y1="176" x2="108.5" y2="183" stroke="#B9C2D7"/>
<line x1="101.5" y1="176" x2="101.5" y2="183" stroke="#B9C2D7"/>
<line x1="101.5" y1="165" x2="101.5" y2="172" stroke="#B9C2D7"/>
<line x1="115.5" y1="176" x2="115.5" y2="183" stroke="#B9C2D7"/>
<path d="M0.5 169V265H32.9842V217H84.9948V265H110.5V188.5H84.9948V199H33.4843V169H0.5Z" fill="#15365D" stroke="#B9C2D7"/>
<line x1="92.6376" y1="210" x2="92.6376" y2="217" stroke="#B9C2D7"/>
<line x1="92.6376" y1="221" x2="92.6376" y2="228" stroke="#B9C2D7"/>
<line x1="92.6376" y1="232" x2="92.6376" y2="239" stroke="#B9C2D7"/>
<line x1="92.6376" y1="243" x2="92.6376" y2="250" stroke="#B9C2D7"/>
<line x1="92.6376" y1="254" x2="92.6376" y2="261" stroke="#B9C2D7"/>
<line x1="23.8941" y1="210" x2="23.8941" y2="217" stroke="#B9C2D7"/>
<line x1="23.8941" y1="199" x2="23.8941" y2="206" stroke="#B9C2D7"/>
<line x1="16.9201" y1="199" x2="16.9201" y2="206" stroke="#B9C2D7"/>
<line x1="23.8941" y1="188" x2="23.8941" y2="195" stroke="#B9C2D7"/>
<line x1="23.8941" y1="221" x2="23.8941" y2="228" stroke="#B9C2D7"/>
<line x1="16.9201" y1="221" x2="16.9201" y2="228" stroke="#B9C2D7"/>
<line x1="16.9201" y1="243" x2="16.9201" y2="250" stroke="#B9C2D7"/>
<line x1="23.8941" y1="232" x2="23.8941" y2="239" stroke="#B9C2D7"/>
<line x1="23.8941" y1="243" x2="23.8941" y2="250" stroke="#B9C2D7"/>
<line x1="8.94983" y1="177" x2="8.94983" y2="184" stroke="#B9C2D7"/>
<line x1="15.9238" y1="177" x2="15.9238" y2="184" stroke="#B9C2D7"/>
<line x1="23.8941" y1="254" x2="23.8941" y2="261" stroke="#B9C2D7"/>
<line x1="46.8086" y1="208" x2="46.8086" y2="212" stroke="#B9C2D7"/>
<line x1="54.7789" y1="208" x2="54.7789" y2="212" stroke="#B9C2D7"/>
<line x1="61.7528" y1="208" x2="61.7528" y2="212" stroke="#B9C2D7"/>
<line x1="69.7231" y1="208" x2="69.7231" y2="212" stroke="#B9C2D7"/>
<rect x="371.5" y="104.5" width="27" height="53" fill="#15365D" stroke="#B9C2D7"/>
<line x1="377" y1="118.5" x2="381" y2="118.5" stroke="#B9C2D7"/>
<line x1="377" y1="124.5" x2="381" y2="124.5" stroke="#B9C2D7"/>
<line x1="377" y1="130.5" x2="381" y2="130.5" stroke="#B9C2D7"/>
<line x1="377" y1="136.5" x2="381" y2="136.5" stroke="#B9C2D7"/>
<line x1="377" y1="142.5" x2="381" y2="142.5" stroke="#B9C2D7"/>
<line x1="377" y1="148.5" x2="381" y2="148.5" stroke="#B9C2D7"/>
<line x1="389" y1="118.5" x2="393" y2="118.5" stroke="#B9C2D7"/>
<line x1="389" y1="124.5" x2="393" y2="124.5" stroke="#B9C2D7"/>
<line x1="389" y1="130.5" x2="393" y2="130.5" stroke="#B9C2D7"/>
<line x1="389" y1="136.5" x2="393" y2="136.5" stroke="#B9C2D7"/>
<line x1="389" y1="142.5" x2="393" y2="142.5" stroke="#B9C2D7"/>
<line x1="389" y1="148.5" x2="393" y2="148.5" stroke="#B9C2D7"/>
<rect x="387" y="110" width="23" height="48" fill="#15365D" stroke="#B9C2D7"/>
<line x1="395" y1="122.5" x2="399" y2="122.5" stroke="#B9C2D7"/>
<line x1="395" y1="128.5" x2="399" y2="128.5" stroke="#B9C2D7"/>
<line x1="395" y1="134.5" x2="399" y2="134.5" stroke="#B9C2D7"/>
<line x1="395" y1="140.5" x2="399" y2="140.5" stroke="#B9C2D7"/>
<line x1="395" y1="146.5" x2="399" y2="146.5" stroke="#B9C2D7"/>
<line x1="395" y1="152.5" x2="399" y2="152.5" stroke="#B9C2D7"/>
<rect x="360" y="157" width="23" height="108" fill="#15365D" stroke="#B9C2D7"/>
<rect x="383" y="157" width="33" height="108" fill="#15365D" stroke="#B9C2D7"/>
<line x1="392.5" y1="172" x2="392.5" y2="179" stroke="#B9C2D7"/>
<line x1="392.5" y1="187" x2="392.5" y2="194" stroke="#B9C2D7"/>
<line x1="392.5" y1="202" x2="392.5" y2="209" stroke="#B9C2D7"/>
<line x1="392.5" y1="217" x2="392.5" y2="224" stroke="#B9C2D7"/>
<line x1="392.5" y1="238" x2="392.5" y2="245" stroke="#B9C2D7"/>
<line x1="392.5" y1="253" x2="392.5" y2="260" stroke="#B9C2D7"/>
<line x1="399.5" y1="172" x2="399.5" y2="179" stroke="#B9C2D7"/>
<line x1="399.5" y1="187" x2="399.5" y2="194" stroke="#B9C2D7"/>
<line x1="399.5" y1="202" x2="399.5" y2="209" stroke="#B9C2D7"/>
<line x1="399.5" y1="217" x2="399.5" y2="224" stroke="#B9C2D7"/>
<line x1="399.5" y1="238" x2="399.5" y2="245" stroke="#B9C2D7"/>
<line x1="399.5" y1="253" x2="399.5" y2="260" stroke="#B9C2D7"/>
<line x1="406.5" y1="172" x2="406.5" y2="179" stroke="#B9C2D7"/>
<line x1="406.5" y1="187" x2="406.5" y2="194" stroke="#B9C2D7"/>
<line x1="406.5" y1="202" x2="406.5" y2="209" stroke="#B9C2D7"/>
<line x1="406.5" y1="217" x2="406.5" y2="224" stroke="#B9C2D7"/>
<line x1="406.5" y1="238" x2="406.5" y2="245" stroke="#B9C2D7"/>
<line x1="406.5" y1="253" x2="406.5" y2="260" stroke="#B9C2D7"/>
<rect x="213" y="175" width="17" height="90" fill="#15365D" stroke="#B9C2D7"/>
<rect x="228" y="139" width="53" height="61" fill="#15365D" stroke="#B9C2D7"/>
<line x1="238.5" y1="148" x2="238.5" y2="155" stroke="#B9C2D7"/>
<line x1="246.5" y1="148" x2="246.5" y2="155" stroke="#B9C2D7"/>
<line x1="254.5" y1="148" x2="254.5" y2="155" stroke="#B9C2D7"/>
<line x1="262.5" y1="148" x2="262.5" y2="155" stroke="#B9C2D7"/>
<line x1="270.5" y1="148" x2="270.5" y2="155" stroke="#B9C2D7"/>
<line x1="238.5" y1="161" x2="238.5" y2="168" stroke="#B9C2D7"/>
<line x1="246.5" y1="161" x2="246.5" y2="168" stroke="#B9C2D7"/>
<line x1="254.5" y1="161" x2="254.5" y2="168" stroke="#B9C2D7"/>
<line x1="262.5" y1="161" x2="262.5" y2="168" stroke="#B9C2D7"/>
<line x1="270.5" y1="161" x2="270.5" y2="168" stroke="#B9C2D7"/>
<line x1="238.5" y1="174" x2="238.5" y2="181" stroke="#B9C2D7"/>
<line x1="246.5" y1="174" x2="246.5" y2="181" stroke="#B9C2D7"/>
<line x1="254.5" y1="174" x2="254.5" y2="181" stroke="#B9C2D7"/>
<line x1="262.5" y1="174" x2="262.5" y2="181" stroke="#B9C2D7"/>
<line x1="270.5" y1="174" x2="270.5" y2="181" stroke="#B9C2D7"/>
<rect x="281" y="139" width="19" height="61" fill="#15365D" stroke="#B9C2D7"/>
<rect x="281" y="139" width="19" height="61" fill="#15365D" stroke="#B9C2D7"/>
<line x1="291.5" y1="148" x2="291.5" y2="155" stroke="#B9C2D7"/>
<line x1="291.5" y1="161" x2="291.5" y2="168" stroke="#B9C2D7"/>
<line x1="291.5" y1="174" x2="291.5" y2="181" stroke="#B9C2D7"/>
<rect x="300" y="158" width="46" height="42" fill="#15365D" stroke="#B9C2D7"/>
<line x1="308.5" y1="168" x2="308.5" y2="175" stroke="#B9C2D7"/>
<line x1="314.5" y1="168" x2="314.5" y2="175" stroke="#B9C2D7"/>
<line x1="320.5" y1="168" x2="320.5" y2="175" stroke="#B9C2D7"/>
<line x1="308.5" y1="179" x2="308.5" y2="184" stroke="#B9C2D7"/>
<line x1="314.5" y1="179" x2="314.5" y2="184" stroke="#B9C2D7"/>
<line x1="320.5" y1="179" x2="320.5" y2="184" stroke="#B9C2D7"/>
<rect x="328" y="170" width="40" height="95" fill="#15365D" stroke="#B9C2D7"/>
<line x1="351.5" y1="187" x2="351.5" y2="265" stroke="#B9C2D7"/>
<line x1="359.5" y1="246" x2="359.5" y2="253" stroke="#B9C2D7"/>
<line x1="359.5" y1="235" x2="359.5" y2="242" stroke="#B9C2D7"/>
<line x1="359.5" y1="224" x2="359.5" y2="231" stroke="#B9C2D7"/>
<line x1="359.5" y1="213" x2="359.5" y2="220" stroke="#B9C2D7"/>
<line x1="359.5" y1="202" x2="359.5" y2="209" stroke="#B9C2D7"/>
<path d="M228 191V265H257V219H309.5V265H338V191H317V199.5H249V191H228Z" fill="#15365D" stroke="#B9C2D7"/>
<path d="M238 205.5V265.5" stroke="#B9C2D7"/>
<path d="M247 220L247 227" stroke="#B9C2D7"/>
<path d="M247 231L247 238" stroke="#B9C2D7"/>
<path d="M247 242L247 249" stroke="#B9C2D7"/>
<path d="M247 253L247 260" stroke="#B9C2D7"/>
<path d="M328 205.5V265.5" stroke="#B9C2D7"/>
<path d="M319 220L319 227" stroke="#B9C2D7"/>
<path d="M319 231L319 238" stroke="#B9C2D7"/>
<path d="M319 242L319 249" stroke="#B9C2D7"/>
<path d="M319 253L319 260" stroke="#B9C2D7"/>
<path d="M256.5 205V212" stroke="#B9C2D7"/>
<path d="M275 205V212" stroke="#B9C2D7"/>
<path d="M293.5 205V212" stroke="#B9C2D7"/>
<path d="M312 205V212" stroke="#B9C2D7"/>
<path d="M268 44V38H261V44" stroke="#B9C2D7"/>
<path d="M265 0V38" stroke="#B9C2D7"/>
<path d="M272 49H258" stroke="#B9C2D7"/>
<path d="M264 120L264 130" stroke="#B9C2D7"/>
<rect x="242" y="120" width="38" height="19" fill="#15365D" stroke="#B9C2D7"/>
<rect x="252" y="113" width="25" height="7" fill="#15365D" stroke="#B9C2D7"/>
<rect x="262" y="94" width="5" height="7" fill="#15365D" stroke="#B9C2D7"/>
<rect x="262" y="86" width="5" height="8" fill="#15365D" stroke="#B9C2D7"/>
<rect x="262" y="79" width="5" height="7" fill="#15365D" stroke="#B9C2D7"/>
<rect x="262" y="71" width="5" height="8" fill="#15365D" stroke="#B9C2D7"/>
<rect x="262" y="64" width="5" height="7" fill="#15365D" stroke="#B9C2D7"/>
<rect x="262" y="56" width="5" height="8" fill="#15365D" stroke="#B9C2D7"/>
<rect x="262" y="49" width="5" height="7" fill="#15365D" stroke="#B9C2D7"/>
<path d="M262 101H267L270 113H259L262 101Z" fill="#15365D" stroke="#B9C2D7"/>
<path d="M438 238.239H427V265H450.5V209H438V238.239Z" fill="#15365D" stroke="#B9C2D7"/>
<rect x="397" y="178" width="30" height="87" fill="#15365D" stroke="#B9C2D7"/>
<line x1="416.5" y1="202" x2="416.5" y2="209" stroke="#B9C2D7"/>
<line x1="416.5" y1="213" x2="416.5" y2="220" stroke="#B9C2D7"/>
<line x1="416.5" y1="224" x2="416.5" y2="231" stroke="#B9C2D7"/>
<line x1="416.5" y1="235" x2="416.5" y2="242" stroke="#B9C2D7"/>
<line x1="416.5" y1="246" x2="416.5" y2="253" stroke="#B9C2D7"/>
<line x1="407.5" y1="198" x2="407.5" y2="265" stroke="#B9C2D7"/>
<rect x="486" y="136" width="59" height="129" fill="#15365D" stroke="#B9C2D7"/>
<line x1="495" y1="145.5" x2="499" y2="145.5" stroke="#B9C2D7"/>
<line x1="504" y1="145.5" x2="517" y2="145.5" stroke="#B9C2D7"/>
<line x1="495" y1="152.5" x2="499" y2="152.5" stroke="#B9C2D7"/>
<line x1="504" y1="152.5" x2="517" y2="152.5" stroke="#B9C2D7"/>
<line x1="495" y1="159.5" x2="499" y2="159.5" stroke="#B9C2D7"/>
<line x1="504" y1="159.5" x2="517" y2="159.5" stroke="#B9C2D7"/>
<line x1="495" y1="166.5" x2="499" y2="166.5" stroke="#B9C2D7"/>
<line x1="504" y1="166.5" x2="517" y2="166.5" stroke="#B9C2D7"/>
<line x1="495" y1="173.5" x2="499" y2="173.5" stroke="#B9C2D7"/>
<line x1="504" y1="173.5" x2="517" y2="173.5" stroke="#B9C2D7"/>
<line x1="495" y1="180.5" x2="499" y2="180.5" stroke="#B9C2D7"/>
<line x1="504" y1="180.5" x2="517" y2="180.5" stroke="#B9C2D7"/>
<line x1="495" y1="187.5" x2="499" y2="187.5" stroke="#B9C2D7"/>
<line x1="504" y1="187.5" x2="517" y2="187.5" stroke="#B9C2D7"/>
<line x1="495" y1="194.5" x2="499" y2="194.5" stroke="#B9C2D7"/>
<line x1="504" y1="194.5" x2="517" y2="194.5" stroke="#B9C2D7"/>
<line x1="495" y1="201.5" x2="499" y2="201.5" stroke="#B9C2D7"/>
<line x1="504" y1="201.5" x2="517" y2="201.5" stroke="#B9C2D7"/>
<line x1="495" y1="208.5" x2="499" y2="208.5" stroke="#B9C2D7"/>
<line x1="504" y1="208.5" x2="517" y2="208.5" stroke="#B9C2D7"/>
<line x1="495" y1="215.5" x2="499" y2="215.5" stroke="#B9C2D7"/>
<line x1="504" y1="215.5" x2="517" y2="215.5" stroke="#B9C2D7"/>
<line x1="495" y1="222.5" x2="499" y2="222.5" stroke="#B9C2D7"/>
<line x1="504" y1="222.5" x2="517" y2="222.5" stroke="#B9C2D7"/>
<line x1="495" y1="229.5" x2="499" y2="229.5" stroke="#B9C2D7"/>
<line x1="504" y1="229.5" x2="517" y2="229.5" stroke="#B9C2D7"/>
<line x1="495" y1="236.5" x2="499" y2="236.5" stroke="#B9C2D7"/>
<line x1="504" y1="236.5" x2="517" y2="236.5" stroke="#B9C2D7"/>
<line x1="495" y1="243.5" x2="499" y2="243.5" stroke="#B9C2D7"/>
<line x1="504" y1="243.5" x2="517" y2="243.5" stroke="#B9C2D7"/>
<line x1="495" y1="250.5" x2="499" y2="250.5" stroke="#B9C2D7"/>
<line x1="504" y1="250.5" x2="517" y2="250.5" stroke="#B9C2D7"/>
<rect x="491" y="115" width="28" height="21" fill="#15365D" stroke="#B9C2D7"/>
<rect x="515" y="122" width="16" height="14" fill="#15365D" stroke="#B9C2D7"/>
<rect x="450" y="189" width="166" height="76" fill="#15365D" stroke="#B9C2D7"/>
<line x1="504.5" y1="208" x2="504.5" y2="214" stroke="#B9C2D7"/>
<line x1="511.5" y1="208" x2="511.5" y2="214" stroke="#B9C2D7"/>
<line x1="514.5" y1="208" x2="514.5" y2="214" stroke="#B9C2D7"/>
<line x1="519.5" y1="208" x2="519.5" y2="214" stroke="#B9C2D7"/>
<line x1="522.5" y1="208" x2="522.5" y2="214" stroke="#B9C2D7"/>
<line x1="504.5" y1="221" x2="504.5" y2="227" stroke="#B9C2D7"/>
<line x1="511.5" y1="221" x2="511.5" y2="227" stroke="#B9C2D7"/>
<line x1="514.5" y1="221" x2="514.5" y2="227" stroke="#B9C2D7"/>
<line x1="519.5" y1="221" x2="519.5" y2="227" stroke="#B9C2D7"/>
<line x1="522.5" y1="221" x2="522.5" y2="227" stroke="#B9C2D7"/>
<line x1="504.5" y1="234" x2="504.5" y2="240" stroke="#B9C2D7"/>
<line x1="511.5" y1="234" x2="511.5" y2="240" stroke="#B9C2D7"/>
<line x1="514.5" y1="234" x2="514.5" y2="240" stroke="#B9C2D7"/>
<line x1="519.5" y1="234" x2="519.5" y2="240" stroke="#B9C2D7"/>
<line x1="522.5" y1="234" x2="522.5" y2="240" stroke="#B9C2D7"/>
<line x1="504.5" y1="247" x2="504.5" y2="253" stroke="#B9C2D7"/>
<line x1="511.5" y1="247" x2="511.5" y2="253" stroke="#B9C2D7"/>
<line x1="514.5" y1="247" x2="514.5" y2="253" stroke="#B9C2D7"/>
<line x1="519.5" y1="247" x2="519.5" y2="253" stroke="#B9C2D7"/>
<line x1="522.5" y1="247" x2="522.5" y2="253" stroke="#B9C2D7"/>
<line x1="481.5" y1="208" x2="481.5" y2="214" stroke="#B9C2D7"/>
<line x1="488.5" y1="208" x2="488.5" y2="214" stroke="#B9C2D7"/>
<line x1="491.5" y1="208" x2="491.5" y2="214" stroke="#B9C2D7"/>
<line x1="496.5" y1="208" x2="496.5" y2="214" stroke="#B9C2D7"/>
<line x1="481.5" y1="221" x2="481.5" y2="227" stroke="#B9C2D7"/>
<line x1="488.5" y1="221" x2="488.5" y2="227" stroke="#B9C2D7"/>
<line x1="491.5" y1="221" x2="491.5" y2="227" stroke="#B9C2D7"/>
<line x1="496.5" y1="221" x2="496.5" y2="227" stroke="#B9C2D7"/>
<line x1="499.5" y1="221" x2="499.5" y2="227" stroke="#B9C2D7"/>
<line x1="481.5" y1="234" x2="481.5" y2="240" stroke="#B9C2D7"/>
<line x1="488.5" y1="234" x2="488.5" y2="240" stroke="#B9C2D7"/>
<line x1="491.5" y1="234" x2="491.5" y2="240" stroke="#B9C2D7"/>
<line x1="496.5" y1="234" x2="496.5" y2="240" stroke="#B9C2D7"/>
<line x1="499.5" y1="234" x2="499.5" y2="240" stroke="#B9C2D7"/>
<line x1="481.5" y1="247" x2="481.5" y2="253" stroke="#B9C2D7"/>
<line x1="488.5" y1="247" x2="488.5" y2="253" stroke="#B9C2D7"/>
<line x1="491.5" y1="247" x2="491.5" y2="253" stroke="#B9C2D7"/>
<line x1="496.5" y1="247" x2="496.5" y2="253" stroke="#B9C2D7"/>
<line x1="499.5" y1="247" x2="499.5" y2="253" stroke="#B9C2D7"/>
<line x1="481.5" y1="208" x2="481.5" y2="214" stroke="#B9C2D7"/>
<line x1="488.5" y1="208" x2="488.5" y2="214" stroke="#B9C2D7"/>
<line x1="491.5" y1="208" x2="491.5" y2="214" stroke="#B9C2D7"/>
<line x1="496.5" y1="208" x2="496.5" y2="214" stroke="#B9C2D7"/>
<line x1="481.5" y1="221" x2="481.5" y2="227" stroke="#B9C2D7"/>
<line x1="488.5" y1="221" x2="488.5" y2="227" stroke="#B9C2D7"/>
<line x1="491.5" y1="221" x2="491.5" y2="227" stroke="#B9C2D7"/>
<line x1="496.5" y1="221" x2="496.5" y2="227" stroke="#B9C2D7"/>
<line x1="499.5" y1="221" x2="499.5" y2="227" stroke="#B9C2D7"/>
<line x1="481.5" y1="234" x2="481.5" y2="240" stroke="#B9C2D7"/>
<line x1="488.5" y1="234" x2="488.5" y2="240" stroke="#B9C2D7"/>
<line x1="491.5" y1="234" x2="491.5" y2="240" stroke="#B9C2D7"/>
<line x1="496.5" y1="234" x2="496.5" y2="240" stroke="#B9C2D7"/>
<line x1="499.5" y1="234" x2="499.5" y2="240" stroke="#B9C2D7"/>
<line x1="481.5" y1="247" x2="481.5" y2="253" stroke="#B9C2D7"/>
<line x1="488.5" y1="247" x2="488.5" y2="253" stroke="#B9C2D7"/>
<line x1="491.5" y1="247" x2="491.5" y2="253" stroke="#B9C2D7"/>
<line x1="496.5" y1="247" x2="496.5" y2="253" stroke="#B9C2D7"/>
<line x1="499.5" y1="247" x2="499.5" y2="253" stroke="#B9C2D7"/>
<line x1="458.5" y1="208" x2="458.5" y2="214" stroke="#B9C2D7"/>
<line x1="465.5" y1="208" x2="465.5" y2="214" stroke="#B9C2D7"/>
<line x1="468.5" y1="208" x2="468.5" y2="214" stroke="#B9C2D7"/>
<line x1="473.5" y1="208" x2="473.5" y2="214" stroke="#B9C2D7"/>
<line x1="458.5" y1="221" x2="458.5" y2="227" stroke="#B9C2D7"/>
<line x1="465.5" y1="221" x2="465.5" y2="227" stroke="#B9C2D7"/>
<line x1="468.5" y1="221" x2="468.5" y2="227" stroke="#B9C2D7"/>
<line x1="473.5" y1="221" x2="473.5" y2="227" stroke="#B9C2D7"/>
<line x1="476.5" y1="221" x2="476.5" y2="227" stroke="#B9C2D7"/>
<line x1="458.5" y1="234" x2="458.5" y2="240" stroke="#B9C2D7"/>
<line x1="465.5" y1="234" x2="465.5" y2="240" stroke="#B9C2D7"/>
<line x1="468.5" y1="234" x2="468.5" y2="240" stroke="#B9C2D7"/>
<line x1="473.5" y1="234" x2="473.5" y2="240" stroke="#B9C2D7"/>
<line x1="476.5" y1="234" x2="476.5" y2="240" stroke="#B9C2D7"/>
<line x1="458.5" y1="247" x2="458.5" y2="253" stroke="#B9C2D7"/>
<line x1="465.5" y1="247" x2="465.5" y2="253" stroke="#B9C2D7"/>
<line x1="468.5" y1="247" x2="468.5" y2="253" stroke="#B9C2D7"/>
<line x1="473.5" y1="247" x2="473.5" y2="253" stroke="#B9C2D7"/>
<line x1="476.5" y1="247" x2="476.5" y2="253" stroke="#B9C2D7"/>
<line y1="-0.5" x2="6" y2="-0.5" transform="matrix(4.37114e-08 1 1 -4.37114e-08 586 208)" stroke="#B9C2D7"/>
<line y1="-0.5" x2="6" y2="-0.5" transform="matrix(4.37114e-08 1 1 -4.37114e-08 579 208)" stroke="#B9C2D7"/>
<line y1="-0.5" x2="6" y2="-0.5" transform="matrix(4.37114e-08 1 1 -4.37114e-08 576 208)" stroke="#B9C2D7"/>
<line y1="-0.5" x2="6" y2="-0.5" transform="matrix(4.37114e-08 1 1 -4.37114e-08 571 208)" stroke="#B9C2D7"/>
<line y1="-0.5" x2="6" y2="-0.5" transform="matrix(4.37114e-08 1 1 -4.37114e-08 568 208)" stroke="#B9C2D7"/>
<line y1="-0.5" x2="6" y2="-0.5" transform="matrix(4.37114e-08 1 1 -4.37114e-08 586 221)" stroke="#B9C2D7"/>
<line y1="-0.5" x2="6" y2="-0.5" transform="matrix(4.37114e-08 1 1 -4.37114e-08 579 221)" stroke="#B9C2D7"/>
<line y1="-0.5" x2="6" y2="-0.5" transform="matrix(4.37114e-08 1 1 -4.37114e-08 576 221)" stroke="#B9C2D7"/>
<line y1="-0.5" x2="6" y2="-0.5" transform="matrix(4.37114e-08 1 1 -4.37114e-08 571 221)" stroke="#B9C2D7"/>
<line y1="-0.5" x2="6" y2="-0.5" transform="matrix(4.37114e-08 1 1 -4.37114e-08 568 221)" stroke="#B9C2D7"/>
<line y1="-0.5" x2="6" y2="-0.5" transform="matrix(4.37114e-08 1 1 -4.37114e-08 586 234)" stroke="#B9C2D7"/>
<line y1="-0.5" x2="6" y2="-0.5" transform="matrix(4.37114e-08 1 1 -4.37114e-08 579 234)" stroke="#B9C2D7"/>
<line y1="-0.5" x2="6" y2="-0.5" transform="matrix(4.37114e-08 1 1 -4.37114e-08 576 234)" stroke="#B9C2D7"/>
<line y1="-0.5" x2="6" y2="-0.5" transform="matrix(4.37114e-08 1 1 -4.37114e-08 571 234)" stroke="#B9C2D7"/>
<line y1="-0.5" x2="6" y2="-0.5" transform="matrix(4.37114e-08 1 1 -4.37114e-08 568 234)" stroke="#B9C2D7"/>
<line y1="-0.5" x2="6" y2="-0.5" transform="matrix(4.37114e-08 1 1 -4.37114e-08 586 247)" stroke="#B9C2D7"/>
<line y1="-0.5" x2="6" y2="-0.5" transform="matrix(4.37114e-08 1 1 -4.37114e-08 579 247)" stroke="#B9C2D7"/>
<line y1="-0.5" x2="6" y2="-0.5" transform="matrix(4.37114e-08 1 1 -4.37114e-08 576 247)" stroke="#B9C2D7"/>
<line y1="-0.5" x2="6" y2="-0.5" transform="matrix(4.37114e-08 1 1 -4.37114e-08 571 247)" stroke="#B9C2D7"/>
<line y1="-0.5" x2="6" y2="-0.5" transform="matrix(4.37114e-08 1 1 -4.37114e-08 568 247)" stroke="#B9C2D7"/>
<line x1="530.5" y1="208" x2="530.5" y2="214" stroke="#B9C2D7"/>
<line x1="535.5" y1="208" x2="535.5" y2="214" stroke="#B9C2D7"/>
<line x1="542.5" y1="208" x2="542.5" y2="214" stroke="#B9C2D7"/>
<line x1="547.5" y1="208" x2="547.5" y2="214" stroke="#B9C2D7"/>
<line x1="554.5" y1="208" x2="554.5" y2="214" stroke="#B9C2D7"/>
<line x1="559.5" y1="208" x2="559.5" y2="214" stroke="#B9C2D7"/>
<line x1="530.5" y1="221" x2="530.5" y2="227" stroke="#B9C2D7"/>
<line x1="535.5" y1="221" x2="535.5" y2="227" stroke="#B9C2D7"/>
<line x1="542.5" y1="221" x2="542.5" y2="227" stroke="#B9C2D7"/>
<line x1="547.5" y1="221" x2="547.5" y2="227" stroke="#B9C2D7"/>
<line x1="554.5" y1="221" x2="554.5" y2="227" stroke="#B9C2D7"/>
<line x1="559.5" y1="221" x2="559.5" y2="227" stroke="#B9C2D7"/>
<line x1="530.5" y1="234" x2="530.5" y2="240" stroke="#B9C2D7"/>
<line x1="535.5" y1="234" x2="535.5" y2="240" stroke="#B9C2D7"/>
<line x1="542.5" y1="234" x2="542.5" y2="240" stroke="#B9C2D7"/>
<line x1="547.5" y1="234" x2="547.5" y2="240" stroke="#B9C2D7"/>
<line x1="554.5" y1="234" x2="554.5" y2="240" stroke="#B9C2D7"/>
<line x1="559.5" y1="234" x2="559.5" y2="240" stroke="#B9C2D7"/>
<line x1="530.5" y1="247" x2="530.5" y2="253" stroke="#B9C2D7"/>
<line x1="535.5" y1="247" x2="535.5" y2="253" stroke="#B9C2D7"/>
<line x1="542.5" y1="247" x2="542.5" y2="253" stroke="#B9C2D7"/>
<line x1="547.5" y1="247" x2="547.5" y2="253" stroke="#B9C2D7"/>
<line x1="554.5" y1="247" x2="554.5" y2="253" stroke="#B9C2D7"/>
<line x1="559.5" y1="247" x2="559.5" y2="253" stroke="#B9C2D7"/>
<path d="M497.5 197H595V264.5" stroke="#B9C2D7"/>
<path d="M604 197H615.5" stroke="#B9C2D7"/>
<rect x="523" y="163" width="37" height="26" fill="#15365D" stroke="#B9C2D7"/>
<rect x="463" y="180" width="64" height="9" fill="#15365D" stroke="#B9C2D7"/>
<rect x="450" y="197" width="39" height="68" fill="#15365D" stroke="#B9C2D7"/>
<line x1="460.5" y1="234" x2="460.5" y2="239" stroke="#B9C2D7"/>
<line x1="466.5" y1="234" x2="466.5" y2="239" stroke="#B9C2D7"/>
<line x1="472.5" y1="234" x2="472.5" y2="239" stroke="#B9C2D7"/>
<line x1="478.5" y1="234" x2="478.5" y2="239" stroke="#B9C2D7"/>
<line x1="460.5" y1="247" x2="460.5" y2="252" stroke="#B9C2D7"/>
<line x1="466.5" y1="247" x2="466.5" y2="252" stroke="#B9C2D7"/>
<line x1="472.5" y1="247" x2="472.5" y2="252" stroke="#B9C2D7"/>
<line x1="478.5" y1="247" x2="478.5" y2="252" stroke="#B9C2D7"/>
<line x1="460.5" y1="210" x2="460.5" y2="215" stroke="#B9C2D7"/>
<line x1="466.5" y1="210" x2="466.5" y2="215" stroke="#B9C2D7"/>
<line x1="472.5" y1="210" x2="472.5" y2="215" stroke="#B9C2D7"/>
<line x1="478.5" y1="210" x2="478.5" y2="215" stroke="#B9C2D7"/>
<line x1="460.5" y1="223" x2="460.5" y2="228" stroke="#B9C2D7"/>
<line x1="466.5" y1="223" x2="466.5" y2="228" stroke="#B9C2D7"/>
<line x1="472.5" y1="223" x2="472.5" y2="228" stroke="#B9C2D7"/>
<line x1="478.5" y1="223" x2="478.5" y2="228" stroke="#B9C2D7"/>
<rect y="169.5" width="3" height="95" fill="#15365D"/>
<rect x="859.36" y="116.919" width="24.1765" height="147.074" fill="#15365D" stroke="#B9C2D7"/>
<line x1="869.434" y1="127.5" x2="883.537" y2="127.5" stroke="#B9C2D7"/>
<line x1="869.434" y1="134.551" x2="883.537" y2="134.551" stroke="#B9C2D7"/>
<line x1="869.434" y1="141.603" x2="883.537" y2="141.603" stroke="#B9C2D7"/>
<line x1="869.434" y1="148.654" x2="883.537" y2="148.654" stroke="#B9C2D7"/>
<line x1="869.434" y1="155.706" x2="883.537" y2="155.706" stroke="#B9C2D7"/>
<line x1="869.434" y1="162.757" x2="883.537" y2="162.757" stroke="#B9C2D7"/>
<line x1="869.434" y1="169.809" x2="883.537" y2="169.809" stroke="#B9C2D7"/>
<line x1="869.434" y1="176.86" x2="883.537" y2="176.86" stroke="#B9C2D7"/>
<line x1="869.434" y1="183.912" x2="883.537" y2="183.912" stroke="#B9C2D7"/>
<line x1="869.434" y1="190.963" x2="883.537" y2="190.963" stroke="#B9C2D7"/>
<line x1="869.434" y1="198.015" x2="883.537" y2="198.015" stroke="#B9C2D7"/>
<line x1="869.434" y1="205.066" x2="883.537" y2="205.066" stroke="#B9C2D7"/>
<line x1="869.434" y1="212.118" x2="883.537" y2="212.118" stroke="#B9C2D7"/>
<line x1="869.434" y1="219.169" x2="883.537" y2="219.169" stroke="#B9C2D7"/>
<line x1="869.434" y1="226.221" x2="883.537" y2="226.221" stroke="#B9C2D7"/>
<line x1="869.434" y1="233.272" x2="883.537" y2="233.272" stroke="#B9C2D7"/>
<line x1="869.434" y1="240.324" x2="883.537" y2="240.324" stroke="#B9C2D7"/>
<line x1="869.434" y1="247.375" x2="883.537" y2="247.375" stroke="#B9C2D7"/>
<line x1="869.434" y1="254.426" x2="883.537" y2="254.426" stroke="#B9C2D7"/>
<rect width="24.1765" height="147.074" transform="matrix(-1 0 0 1 1038.93 116.919)" fill="#15365D" stroke="#B9C2D7"/>
<line y1="-0.5" x2="14.1029" y2="-0.5" transform="matrix(-1 0 0 1 1028.86 128)" stroke="#B9C2D7"/>
<line y1="-0.5" x2="14.1029" y2="-0.5" transform="matrix(-1 0 0 1 1028.86 135.051)" stroke="#B9C2D7"/>
<line y1="-0.5" x2="14.1029" y2="-0.5" transform="matrix(-1 0 0 1 1028.86 142.103)" stroke="#B9C2D7"/>
<line y1="-0.5" x2="14.1029" y2="-0.5" transform="matrix(-1 0 0 1 1028.86 149.154)" stroke="#B9C2D7"/>
<line y1="-0.5" x2="14.1029" y2="-0.5" transform="matrix(-1 0 0 1 1028.86 156.206)" stroke="#B9C2D7"/>
<line y1="-0.5" x2="14.1029" y2="-0.5" transform="matrix(-1 0 0 1 1028.86 163.257)" stroke="#B9C2D7"/>
<line y1="-0.5" x2="14.1029" y2="-0.5" transform="matrix(-1 0 0 1 1028.86 170.309)" stroke="#B9C2D7"/>
<line y1="-0.5" x2="14.1029" y2="-0.5" transform="matrix(-1 0 0 1 1028.86 177.36)" stroke="#B9C2D7"/>
<line y1="-0.5" x2="14.1029" y2="-0.5" transform="matrix(-1 0 0 1 1028.86 184.412)" stroke="#B9C2D7"/>
<line y1="-0.5" x2="14.1029" y2="-0.5" transform="matrix(-1 0 0 1 1028.86 191.463)" stroke="#B9C2D7"/>
<line y1="-0.5" x2="14.1029" y2="-0.5" transform="matrix(-1 0 0 1 1028.86 198.515)" stroke="#B9C2D7"/>
<line y1="-0.5" x2="14.1029" y2="-0.5" transform="matrix(-1 0 0 1 1028.86 205.566)" stroke="#B9C2D7"/>
<line y1="-0.5" x2="14.1029" y2="-0.5" transform="matrix(-1 0 0 1 1028.86 212.618)" stroke="#B9C2D7"/>
<line y1="-0.5" x2="14.1029" y2="-0.5" transform="matrix(-1 0 0 1 1028.86 219.669)" stroke="#B9C2D7"/>
<line y1="-0.5" x2="14.1029" y2="-0.5" transform="matrix(-1 0 0 1 1028.86 226.721)" stroke="#B9C2D7"/>
<line y1="-0.5" x2="14.1029" y2="-0.5" transform="matrix(-1 0 0 1 1028.86 233.772)" stroke="#B9C2D7"/>
<line y1="-0.5" x2="14.1029" y2="-0.5" transform="matrix(-1 0 0 1 1028.86 240.824)" stroke="#B9C2D7"/>
<line y1="-0.5" x2="14.1029" y2="-0.5" transform="matrix(-1 0 0 1 1028.86 247.875)" stroke="#B9C2D7"/>
<line y1="-0.5" x2="14.1029" y2="-0.5" transform="matrix(-1 0 0 1 1028.86 254.926)" stroke="#B9C2D7"/>
<rect x="986" y="189" width="166" height="76" fill="#15365D" stroke="#B9C2D7"/>
<line x1="1047.5" y1="206" x2="1047.5" y2="212" stroke="#B9C2D7"/>
<line x1="1052.5" y1="206" x2="1052.5" y2="212" stroke="#B9C2D7"/>
<line x1="1071.5" y1="206" x2="1071.5" y2="212" stroke="#B9C2D7"/>
<line x1="1076.5" y1="206" x2="1076.5" y2="212" stroke="#B9C2D7"/>
<line x1="1057.5" y1="206" x2="1057.5" y2="212" stroke="#B9C2D7"/>
<line x1="1066.5" y1="206" x2="1066.5" y2="212" stroke="#B9C2D7"/>
<line x1="1047.5" y1="218" x2="1047.5" y2="224" stroke="#B9C2D7"/>
<line x1="1052.5" y1="218" x2="1052.5" y2="224" stroke="#B9C2D7"/>
<line x1="1071.5" y1="218" x2="1071.5" y2="224" stroke="#B9C2D7"/>
<line x1="1076.5" y1="218" x2="1076.5" y2="224" stroke="#B9C2D7"/>
<line x1="1057.5" y1="218" x2="1057.5" y2="224" stroke="#B9C2D7"/>
<line x1="1066.5" y1="218" x2="1066.5" y2="224" stroke="#B9C2D7"/>
<line x1="1047.5" y1="230" x2="1047.5" y2="236" stroke="#B9C2D7"/>
<line x1="1052.5" y1="230" x2="1052.5" y2="236" stroke="#B9C2D7"/>
<line x1="1071.5" y1="230" x2="1071.5" y2="236" stroke="#B9C2D7"/>
<line x1="1076.5" y1="230" x2="1076.5" y2="236" stroke="#B9C2D7"/>
<line x1="1057.5" y1="230" x2="1057.5" y2="236" stroke="#B9C2D7"/>
<line x1="1066.5" y1="230" x2="1066.5" y2="236" stroke="#B9C2D7"/>
<line x1="1047.5" y1="242" x2="1047.5" y2="248" stroke="#B9C2D7"/>
<line x1="1052.5" y1="242" x2="1052.5" y2="248" stroke="#B9C2D7"/>
<line x1="1071.5" y1="242" x2="1071.5" y2="248" stroke="#B9C2D7"/>
<line x1="1076.5" y1="242" x2="1076.5" y2="248" stroke="#B9C2D7"/>
<line x1="1057.5" y1="242" x2="1057.5" y2="248" stroke="#B9C2D7"/>
<line x1="1066.5" y1="242" x2="1066.5" y2="248" stroke="#B9C2D7"/>
<line x1="1086.5" y1="208" x2="1086.5" y2="214" stroke="#B9C2D7"/>
<line x1="1089.5" y1="208" x2="1089.5" y2="214" stroke="#B9C2D7"/>
<line x1="1094.5" y1="208" x2="1094.5" y2="214" stroke="#B9C2D7"/>
<line x1="1097.5" y1="208" x2="1097.5" y2="214" stroke="#B9C2D7"/>
<line x1="1102.5" y1="208" x2="1102.5" y2="214" stroke="#B9C2D7"/>
<line x1="1105.5" y1="208" x2="1105.5" y2="214" stroke="#B9C2D7"/>
<line x1="1086.5" y1="221" x2="1086.5" y2="227" stroke="#B9C2D7"/>
<line x1="1089.5" y1="221" x2="1089.5" y2="227" stroke="#B9C2D7"/>
<line x1="1094.5" y1="221" x2="1094.5" y2="227" stroke="#B9C2D7"/>
<line x1="1097.5" y1="221" x2="1097.5" y2="227" stroke="#B9C2D7"/>
<line x1="1102.5" y1="221" x2="1102.5" y2="227" stroke="#B9C2D7"/>
<line x1="1105.5" y1="221" x2="1105.5" y2="227" stroke="#B9C2D7"/>
<line x1="1086.5" y1="234" x2="1086.5" y2="240" stroke="#B9C2D7"/>
<line x1="1089.5" y1="234" x2="1089.5" y2="240" stroke="#B9C2D7"/>
<line x1="1094.5" y1="234" x2="1094.5" y2="240" stroke="#B9C2D7"/>
<line x1="1097.5" y1="234" x2="1097.5" y2="240" stroke="#B9C2D7"/>
<line x1="1102.5" y1="234" x2="1102.5" y2="240" stroke="#B9C2D7"/>
<line x1="1105.5" y1="234" x2="1105.5" y2="240" stroke="#B9C2D7"/>
<line x1="1086.5" y1="247" x2="1086.5" y2="253" stroke="#B9C2D7"/>
<line x1="1089.5" y1="247" x2="1089.5" y2="253" stroke="#B9C2D7"/>
<line x1="1094.5" y1="247" x2="1094.5" y2="253" stroke="#B9C2D7"/>
<line x1="1097.5" y1="247" x2="1097.5" y2="253" stroke="#B9C2D7"/>
<line x1="1102.5" y1="247" x2="1102.5" y2="253" stroke="#B9C2D7"/>
<line x1="1105.5" y1="247" x2="1105.5" y2="253" stroke="#B9C2D7"/>
<line x1="1018.5" y1="208" x2="1018.5" y2="214" stroke="#B9C2D7"/>
<line x1="1021.5" y1="208" x2="1021.5" y2="214" stroke="#B9C2D7"/>
<line x1="1026.5" y1="208" x2="1026.5" y2="214" stroke="#B9C2D7"/>
<line x1="1029.5" y1="208" x2="1029.5" y2="214" stroke="#B9C2D7"/>
<line x1="1034.5" y1="208" x2="1034.5" y2="214" stroke="#B9C2D7"/>
<line x1="1037.5" y1="208" x2="1037.5" y2="214" stroke="#B9C2D7"/>
<line x1="1018.5" y1="221" x2="1018.5" y2="227" stroke="#B9C2D7"/>
<line x1="1021.5" y1="221" x2="1021.5" y2="227" stroke="#B9C2D7"/>
<line x1="1026.5" y1="221" x2="1026.5" y2="227" stroke="#B9C2D7"/>
<line x1="1029.5" y1="221" x2="1029.5" y2="227" stroke="#B9C2D7"/>
<line x1="1034.5" y1="221" x2="1034.5" y2="227" stroke="#B9C2D7"/>
<line x1="1037.5" y1="221" x2="1037.5" y2="227" stroke="#B9C2D7"/>
<line x1="1018.5" y1="234" x2="1018.5" y2="240" stroke="#B9C2D7"/>
<line x1="1021.5" y1="234" x2="1021.5" y2="240" stroke="#B9C2D7"/>
<line x1="1026.5" y1="234" x2="1026.5" y2="240" stroke="#B9C2D7"/>
<line x1="1029.5" y1="234" x2="1029.5" y2="240" stroke="#B9C2D7"/>
<line x1="1034.5" y1="234" x2="1034.5" y2="240" stroke="#B9C2D7"/>
<line x1="1037.5" y1="234" x2="1037.5" y2="240" stroke="#B9C2D7"/>
<line x1="1018.5" y1="247" x2="1018.5" y2="253" stroke="#B9C2D7"/>
<line x1="1021.5" y1="247" x2="1021.5" y2="253" stroke="#B9C2D7"/>
<line x1="1026.5" y1="247" x2="1026.5" y2="253" stroke="#B9C2D7"/>
<line x1="1029.5" y1="247" x2="1029.5" y2="253" stroke="#B9C2D7"/>
<line x1="1034.5" y1="247" x2="1034.5" y2="253" stroke="#B9C2D7"/>
<line x1="1037.5" y1="247" x2="1037.5" y2="253" stroke="#B9C2D7"/>
<line x1="995.5" y1="208" x2="995.5" y2="214" stroke="#B9C2D7"/>
<line x1="998.5" y1="208" x2="998.5" y2="214" stroke="#B9C2D7"/>
<line x1="995.5" y1="221" x2="995.5" y2="227" stroke="#B9C2D7"/>
<line x1="998.5" y1="221" x2="998.5" y2="227" stroke="#B9C2D7"/>
<line x1="995.5" y1="234" x2="995.5" y2="240" stroke="#B9C2D7"/>
<line x1="998.5" y1="234" x2="998.5" y2="240" stroke="#B9C2D7"/>
<line x1="995.5" y1="247" x2="995.5" y2="253" stroke="#B9C2D7"/>
<line x1="998.5" y1="247" x2="998.5" y2="253" stroke="#B9C2D7"/>
<line x1="1119.5" y1="208" x2="1119.5" y2="214" stroke="#B9C2D7"/>
<line x1="1122.5" y1="208" x2="1122.5" y2="214" stroke="#B9C2D7"/>
<line x1="1119.5" y1="221" x2="1119.5" y2="227" stroke="#B9C2D7"/>
<line x1="1122.5" y1="221" x2="1122.5" y2="227" stroke="#B9C2D7"/>
<line x1="1119.5" y1="234" x2="1119.5" y2="240" stroke="#B9C2D7"/>
<line x1="1122.5" y1="234" x2="1122.5" y2="240" stroke="#B9C2D7"/>
<line x1="1119.5" y1="247" x2="1119.5" y2="253" stroke="#B9C2D7"/>
<line x1="1122.5" y1="247" x2="1122.5" y2="253" stroke="#B9C2D7"/>
<line x1="1126.5" y1="208" x2="1126.5" y2="214" stroke="#B9C2D7"/>
<line x1="1129.5" y1="208" x2="1129.5" y2="214" stroke="#B9C2D7"/>
<line x1="1126.5" y1="221" x2="1126.5" y2="227" stroke="#B9C2D7"/>
<line x1="1129.5" y1="221" x2="1129.5" y2="227" stroke="#B9C2D7"/>
<line x1="1126.5" y1="234" x2="1126.5" y2="240" stroke="#B9C2D7"/>
<line x1="1129.5" y1="234" x2="1129.5" y2="240" stroke="#B9C2D7"/>
<line x1="1126.5" y1="247" x2="1126.5" y2="253" stroke="#B9C2D7"/>
<line x1="1129.5" y1="247" x2="1129.5" y2="253" stroke="#B9C2D7"/>
<line x1="1133.5" y1="208" x2="1133.5" y2="214" stroke="#B9C2D7"/>
<line x1="1136.5" y1="208" x2="1136.5" y2="214" stroke="#B9C2D7"/>
<line x1="1133.5" y1="221" x2="1133.5" y2="227" stroke="#B9C2D7"/>
<line x1="1136.5" y1="221" x2="1136.5" y2="227" stroke="#B9C2D7"/>
<line x1="1133.5" y1="234" x2="1133.5" y2="240" stroke="#B9C2D7"/>
<line x1="1136.5" y1="234" x2="1136.5" y2="240" stroke="#B9C2D7"/>
<line x1="1133.5" y1="247" x2="1133.5" y2="253" stroke="#B9C2D7"/>
<line x1="1136.5" y1="247" x2="1136.5" y2="253" stroke="#B9C2D7"/>
<line x1="1140.5" y1="208" x2="1140.5" y2="214" stroke="#B9C2D7"/>
<line x1="1143.5" y1="208" x2="1143.5" y2="214" stroke="#B9C2D7"/>
<line x1="1140.5" y1="221" x2="1140.5" y2="227" stroke="#B9C2D7"/>
<line x1="1143.5" y1="221" x2="1143.5" y2="227" stroke="#B9C2D7"/>
<line x1="1140.5" y1="234" x2="1140.5" y2="240" stroke="#B9C2D7"/>
<line x1="1143.5" y1="234" x2="1143.5" y2="240" stroke="#B9C2D7"/>
<line x1="1140.5" y1="247" x2="1140.5" y2="253" stroke="#B9C2D7"/>
<line x1="1143.5" y1="247" x2="1143.5" y2="253" stroke="#B9C2D7"/>
<line x1="986" y1="197.5" x2="999" y2="197.5" stroke="#B9C2D7"/>
<line x1="1139" y1="197.5" x2="1152" y2="197.5" stroke="#B9C2D7"/>
<path d="M1007 265.5V197.5H1105" stroke="#B9C2D7"/>
<rect x="1113" y="196" width="39" height="69" fill="#15365D" stroke="#B9C2D7"/>
<line x1="1123.5" y1="208" x2="1123.5" y2="214" stroke="#B9C2D7"/>
<line x1="1128.5" y1="208" x2="1128.5" y2="214" stroke="#B9C2D7"/>
<line x1="1133.5" y1="208" x2="1133.5" y2="214" stroke="#B9C2D7"/>
<line x1="1138.5" y1="208" x2="1138.5" y2="214" stroke="#B9C2D7"/>
<line x1="1143.5" y1="208" x2="1143.5" y2="214" stroke="#B9C2D7"/>
<line x1="1123.5" y1="221" x2="1123.5" y2="239" stroke="#B9C2D7"/>
<line x1="1128.5" y1="221" x2="1128.5" y2="239" stroke="#B9C2D7"/>
<line x1="1133.5" y1="221" x2="1133.5" y2="239" stroke="#B9C2D7"/>
<line x1="1138.5" y1="221" x2="1138.5" y2="239" stroke="#B9C2D7"/>
<line x1="1143.5" y1="221" x2="1143.5" y2="239" stroke="#B9C2D7"/>
<line x1="1123.5" y1="246" x2="1123.5" y2="252" stroke="#B9C2D7"/>
<line x1="1128.5" y1="246" x2="1128.5" y2="252" stroke="#B9C2D7"/>
<line x1="1133.5" y1="246" x2="1133.5" y2="252" stroke="#B9C2D7"/>
<line x1="1138.5" y1="246" x2="1138.5" y2="252" stroke="#B9C2D7"/>
<line x1="1143.5" y1="246" x2="1143.5" y2="252" stroke="#B9C2D7"/>
<rect x="953.044" y="159.228" width="130.956" height="105.772" fill="#15365D" stroke="#B9C2D7"/>
<line x1="1067.88" y1="165.779" x2="1074.93" y2="165.779" stroke="#B9C2D7"/>
<line x1="1067.88" y1="172.831" x2="1074.93" y2="172.831" stroke="#B9C2D7"/>
<line x1="1067.88" y1="179.882" x2="1074.93" y2="179.882" stroke="#B9C2D7"/>
<line x1="1067.88" y1="186.934" x2="1074.93" y2="186.934" stroke="#B9C2D7"/>
<line x1="1067.88" y1="201.037" x2="1074.93" y2="201.037" stroke="#B9C2D7"/>
<line x1="1067.88" y1="208.088" x2="1074.93" y2="208.088" stroke="#B9C2D7"/>
<line x1="1067.88" y1="215.14" x2="1074.93" y2="215.14" stroke="#B9C2D7"/>
<line x1="1067.88" y1="222.191" x2="1074.93" y2="222.191" stroke="#B9C2D7"/>
<line x1="1067.88" y1="229.243" x2="1074.93" y2="229.243" stroke="#B9C2D7"/>
<line x1="1067.88" y1="236.294" x2="1074.93" y2="236.294" stroke="#B9C2D7"/>
<line x1="1067.88" y1="243.346" x2="1074.93" y2="243.346" stroke="#B9C2D7"/>
<line x1="1067.88" y1="250.397" x2="1074.93" y2="250.397" stroke="#B9C2D7"/>
<line x1="1067.88" y1="257.448" x2="1074.93" y2="257.448" stroke="#B9C2D7"/>
<line x1="1054.79" y1="165.779" x2="1061.84" y2="165.779" stroke="#B9C2D7"/>
<line x1="1054.79" y1="172.831" x2="1061.84" y2="172.831" stroke="#B9C2D7"/>
<line x1="1054.79" y1="179.882" x2="1061.84" y2="179.882" stroke="#B9C2D7"/>
<line x1="1054.79" y1="186.934" x2="1061.84" y2="186.934" stroke="#B9C2D7"/>
<line x1="1054.79" y1="201.037" x2="1061.84" y2="201.037" stroke="#B9C2D7"/>
<line x1="1054.79" y1="208.088" x2="1061.84" y2="208.088" stroke="#B9C2D7"/>
<line x1="1054.79" y1="222.191" x2="1061.84" y2="222.191" stroke="#B9C2D7"/>
<line x1="1054.79" y1="229.243" x2="1061.84" y2="229.243" stroke="#B9C2D7"/>
<line x1="1054.79" y1="236.294" x2="1061.84" y2="236.294" stroke="#B9C2D7"/>
<line x1="1054.79" y1="243.346" x2="1061.84" y2="243.346" stroke="#B9C2D7"/>
<line x1="1054.79" y1="250.397" x2="1061.84" y2="250.397" stroke="#B9C2D7"/>
<line x1="1054.79" y1="257.448" x2="1061.84" y2="257.448" stroke="#B9C2D7"/>
<line x1="1041.69" y1="165.779" x2="1048.74" y2="165.779" stroke="#B9C2D7"/>
<line x1="1041.69" y1="172.831" x2="1048.74" y2="172.831" stroke="#B9C2D7"/>
<line x1="1041.69" y1="179.882" x2="1048.74" y2="179.882" stroke="#B9C2D7"/>
<line x1="1041.69" y1="186.934" x2="1048.74" y2="186.934" stroke="#B9C2D7"/>
<line x1="1041.69" y1="201.037" x2="1048.74" y2="201.037" stroke="#B9C2D7"/>
<line x1="1041.69" y1="208.088" x2="1048.74" y2="208.088" stroke="#B9C2D7"/>
<line x1="1041.69" y1="215.14" x2="1048.74" y2="215.14" stroke="#B9C2D7"/>
<line x1="1041.69" y1="222.191" x2="1048.74" y2="222.191" stroke="#B9C2D7"/>
<line x1="1041.69" y1="236.294" x2="1048.74" y2="236.294" stroke="#B9C2D7"/>
<line x1="1041.69" y1="243.346" x2="1048.74" y2="243.346" stroke="#B9C2D7"/>
<line x1="1041.69" y1="250.397" x2="1048.74" y2="250.397" stroke="#B9C2D7"/>
<line x1="1041.69" y1="257.448" x2="1048.74" y2="257.448" stroke="#B9C2D7"/>
<line x1="1028.6" y1="165.779" x2="1035.65" y2="165.779" stroke="#B9C2D7"/>
<line x1="1028.6" y1="186.934" x2="1035.65" y2="186.934" stroke="#B9C2D7"/>
<line x1="1028.6" y1="193.985" x2="1035.65" y2="193.985" stroke="#B9C2D7"/>
<line x1="1028.6" y1="201.037" x2="1035.65" y2="201.037" stroke="#B9C2D7"/>
<line x1="1028.6" y1="222.191" x2="1035.65" y2="222.191" stroke="#B9C2D7"/>
<line x1="1028.6" y1="229.243" x2="1035.65" y2="229.243" stroke="#B9C2D7"/>
<line x1="1028.6" y1="243.346" x2="1035.65" y2="243.346" stroke="#B9C2D7"/>
<line x1="1028.6" y1="250.397" x2="1035.65" y2="250.397" stroke="#B9C2D7"/>
<line x1="1028.6" y1="257.448" x2="1035.65" y2="257.448" stroke="#B9C2D7"/>
<line x1="1015.5" y1="165.779" x2="1022.55" y2="165.779" stroke="#B9C2D7"/>
<line x1="1015.5" y1="179.882" x2="1022.55" y2="179.882" stroke="#B9C2D7"/>
<line x1="1015.5" y1="186.934" x2="1022.55" y2="186.934" stroke="#B9C2D7"/>
<line x1="1015.5" y1="201.037" x2="1022.55" y2="201.037" stroke="#B9C2D7"/>
<line x1="1015.5" y1="208.088" x2="1022.55" y2="208.088" stroke="#B9C2D7"/>
<line x1="1015.5" y1="215.14" x2="1022.55" y2="215.14" stroke="#B9C2D7"/>
<line x1="1015.5" y1="222.191" x2="1022.55" y2="222.191" stroke="#B9C2D7"/>
<line x1="1015.5" y1="229.243" x2="1022.55" y2="229.243" stroke="#B9C2D7"/>
<line x1="1015.5" y1="236.294" x2="1022.55" y2="236.294" stroke="#B9C2D7"/>
<line x1="1015.5" y1="243.346" x2="1022.55" y2="243.346" stroke="#B9C2D7"/>
<line x1="1015.5" y1="250.397" x2="1022.55" y2="250.397" stroke="#B9C2D7"/>
<line x1="1015.5" y1="257.448" x2="1022.55" y2="257.448" stroke="#B9C2D7"/>
<line x1="1002.4" y1="165.779" x2="1009.46" y2="165.779" stroke="#B9C2D7"/>
<line x1="1002.4" y1="179.882" x2="1009.46" y2="179.882" stroke="#B9C2D7"/>
<line x1="1002.4" y1="186.934" x2="1009.46" y2="186.934" stroke="#B9C2D7"/>
<line x1="1002.4" y1="201.037" x2="1009.46" y2="201.037" stroke="#B9C2D7"/>
<line x1="1002.4" y1="208.088" x2="1009.46" y2="208.088" stroke="#B9C2D7"/>
<line x1="1002.4" y1="222.191" x2="1009.46" y2="222.191" stroke="#B9C2D7"/>
<line x1="1002.4" y1="229.243" x2="1009.46" y2="229.243" stroke="#B9C2D7"/>
<line x1="1002.4" y1="236.294" x2="1009.46" y2="236.294" stroke="#B9C2D7"/>
<line x1="1002.4" y1="243.346" x2="1009.46" y2="243.346" stroke="#B9C2D7"/>
<line x1="1002.4" y1="250.397" x2="1009.46" y2="250.397" stroke="#B9C2D7"/>
<line x1="1002.4" y1="257.448" x2="1009.46" y2="257.448" stroke="#B9C2D7"/>
<line x1="989.309" y1="165.779" x2="996.36" y2="165.779" stroke="#B9C2D7"/>
<line x1="989.309" y1="172.831" x2="996.36" y2="172.831" stroke="#B9C2D7"/>
<line x1="989.309" y1="186.934" x2="996.36" y2="186.934" stroke="#B9C2D7"/>
<line x1="989.309" y1="201.037" x2="996.36" y2="201.037" stroke="#B9C2D7"/>
<line x1="989.309" y1="208.088" x2="996.36" y2="208.088" stroke="#B9C2D7"/>
<line x1="989.309" y1="215.14" x2="996.36" y2="215.14" stroke="#B9C2D7"/>
<line x1="989.309" y1="222.191" x2="996.36" y2="222.191" stroke="#B9C2D7"/>
<line x1="989.309" y1="236.294" x2="996.36" y2="236.294" stroke="#B9C2D7"/>
<line x1="989.309" y1="243.346" x2="996.36" y2="243.346" stroke="#B9C2D7"/>
<line x1="989.309" y1="250.397" x2="996.36" y2="250.397" stroke="#B9C2D7"/>
<line x1="989.309" y1="257.448" x2="996.36" y2="257.448" stroke="#B9C2D7"/>
<line x1="976.213" y1="165.779" x2="983.265" y2="165.779" stroke="#B9C2D7"/>
<line x1="976.213" y1="186.934" x2="983.265" y2="186.934" stroke="#B9C2D7"/>
<line x1="976.213" y1="193.985" x2="983.265" y2="193.985" stroke="#B9C2D7"/>
<line x1="976.213" y1="201.037" x2="983.265" y2="201.037" stroke="#B9C2D7"/>
<line x1="976.213" y1="222.191" x2="983.265" y2="222.191" stroke="#B9C2D7"/>
<line x1="976.213" y1="229.243" x2="983.265" y2="229.243" stroke="#B9C2D7"/>
<line x1="963.118" y1="165.779" x2="970.169" y2="165.779" stroke="#B9C2D7"/>
<line x1="963.118" y1="186.934" x2="970.169" y2="186.934" stroke="#B9C2D7"/>
<line x1="963.118" y1="193.985" x2="970.169" y2="193.985" stroke="#B9C2D7"/>
<line x1="963.118" y1="201.037" x2="970.169" y2="201.037" stroke="#B9C2D7"/>
<line x1="963.118" y1="222.191" x2="970.169" y2="222.191" stroke="#B9C2D7"/>
<line x1="963.118" y1="229.243" x2="970.169" y2="229.243" stroke="#B9C2D7"/>
<line x1="976.213" y1="243.346" x2="983.265" y2="243.346" stroke="#B9C2D7"/>
<line x1="976.213" y1="250.397" x2="983.265" y2="250.397" stroke="#B9C2D7"/>
<line x1="976.213" y1="257.448" x2="983.265" y2="257.448" stroke="#B9C2D7"/>
<rect x="963.118" y="156.206" width="11.0809" height="3.02206" fill="#15365D" stroke="#B9C2D7"/>
<rect x="988.302" y="156.206" width="11.0809" height="3.02206" fill="#15365D" stroke="#B9C2D7"/>
<rect x="940.956" y="174.338" width="89.6544" height="90.6618" fill="#15365D" stroke="#B9C2D7"/>
<rect x="0.5" y="-0.5" width="64.4779" height="5.04412" transform="matrix(1 0 0 -1 953.044 174.346)" fill="#15365D" stroke="#B9C2D7"/>
<line x1="953.544" y1="182.397" x2="953.544" y2="188.441" stroke="#B9C2D7"/>
<line x1="959.588" y1="182.397" x2="959.588" y2="188.441" stroke="#B9C2D7"/>
<line x1="965.632" y1="182.397" x2="965.632" y2="188.441" stroke="#B9C2D7"/>
<line x1="953.544" y1="195.493" x2="953.544" y2="201.537" stroke="#B9C2D7"/>
<line x1="959.588" y1="195.493" x2="959.588" y2="201.537" stroke="#B9C2D7"/>
<line x1="965.632" y1="195.493" x2="965.632" y2="201.537" stroke="#B9C2D7"/>
<line x1="953.544" y1="208.588" x2="953.544" y2="214.632" stroke="#B9C2D7"/>
<line x1="959.588" y1="208.588" x2="959.588" y2="214.632" stroke="#B9C2D7"/>
<line x1="965.632" y1="208.588" x2="965.632" y2="214.632" stroke="#B9C2D7"/>
<line x1="953.544" y1="221.684" x2="953.544" y2="227.728" stroke="#B9C2D7"/>
<line x1="959.588" y1="221.684" x2="959.588" y2="227.728" stroke="#B9C2D7"/>
<line x1="965.632" y1="221.684" x2="965.632" y2="227.728" stroke="#B9C2D7"/>
<line x1="953.544" y1="234.779" x2="953.544" y2="240.824" stroke="#B9C2D7"/>
<line x1="959.588" y1="234.779" x2="959.588" y2="240.824" stroke="#B9C2D7"/>
<line x1="965.632" y1="234.779" x2="965.632" y2="240.824" stroke="#B9C2D7"/>
<line x1="953.544" y1="247.875" x2="953.544" y2="253.919" stroke="#B9C2D7"/>
<line x1="959.588" y1="247.875" x2="959.588" y2="253.919" stroke="#B9C2D7"/>
<line x1="965.632" y1="247.875" x2="965.632" y2="253.919" stroke="#B9C2D7"/>
<line x1="980.743" y1="182.397" x2="980.743" y2="188.441" stroke="#B9C2D7"/>
<line x1="986.787" y1="182.397" x2="986.787" y2="188.441" stroke="#B9C2D7"/>
<line x1="992.831" y1="182.397" x2="992.831" y2="188.441" stroke="#B9C2D7"/>
<line x1="980.743" y1="195.493" x2="980.743" y2="201.537" stroke="#B9C2D7"/>
<line x1="986.787" y1="195.493" x2="986.787" y2="201.537" stroke="#B9C2D7"/>
<line x1="992.831" y1="195.493" x2="992.831" y2="201.537" stroke="#B9C2D7"/>
<line x1="980.743" y1="208.588" x2="980.743" y2="214.632" stroke="#B9C2D7"/>
<line x1="986.787" y1="208.588" x2="986.787" y2="214.632" stroke="#B9C2D7"/>
<line x1="992.831" y1="208.588" x2="992.831" y2="214.632" stroke="#B9C2D7"/>
<line x1="980.743" y1="221.684" x2="980.743" y2="227.728" stroke="#B9C2D7"/>
<line x1="986.787" y1="221.684" x2="986.787" y2="227.728" stroke="#B9C2D7"/>
<line x1="992.831" y1="221.684" x2="992.831" y2="227.728" stroke="#B9C2D7"/>
<line x1="980.743" y1="234.779" x2="980.743" y2="240.824" stroke="#B9C2D7"/>
<line x1="986.787" y1="234.779" x2="986.787" y2="240.824" stroke="#B9C2D7"/>
<line x1="992.831" y1="234.779" x2="992.831" y2="240.824" stroke="#B9C2D7"/>
<line x1="980.743" y1="247.875" x2="980.743" y2="253.919" stroke="#B9C2D7"/>
<line x1="986.787" y1="247.875" x2="986.787" y2="253.919" stroke="#B9C2D7"/>
<line x1="992.831" y1="247.875" x2="992.831" y2="253.919" stroke="#B9C2D7"/>
<line x1="1007.94" y1="182.397" x2="1007.94" y2="188.441" stroke="#B9C2D7"/>
<line x1="1013.99" y1="182.397" x2="1013.99" y2="188.441" stroke="#B9C2D7"/>
<line x1="1020.03" y1="182.397" x2="1020.03" y2="188.441" stroke="#B9C2D7"/>
<line x1="1007.94" y1="195.493" x2="1007.94" y2="201.537" stroke="#B9C2D7"/>
<line x1="1013.99" y1="195.493" x2="1013.99" y2="201.537" stroke="#B9C2D7"/>
<line x1="1020.03" y1="195.493" x2="1020.03" y2="201.537" stroke="#B9C2D7"/>
<line x1="1007.94" y1="208.588" x2="1007.94" y2="214.632" stroke="#B9C2D7"/>
<line x1="1013.99" y1="208.588" x2="1013.99" y2="214.632" stroke="#B9C2D7"/>
<line x1="1020.03" y1="208.588" x2="1020.03" y2="214.632" stroke="#B9C2D7"/>
<line x1="1007.94" y1="221.684" x2="1007.94" y2="227.728" stroke="#B9C2D7"/>
<line x1="1013.99" y1="221.684" x2="1013.99" y2="227.728" stroke="#B9C2D7"/>
<line x1="1020.03" y1="221.684" x2="1020.03" y2="227.728" stroke="#B9C2D7"/>
<line x1="1007.94" y1="234.779" x2="1007.94" y2="240.824" stroke="#B9C2D7"/>
<line x1="1013.99" y1="234.779" x2="1013.99" y2="240.824" stroke="#B9C2D7"/>
<line x1="1020.03" y1="234.779" x2="1020.03" y2="240.824" stroke="#B9C2D7"/>
<line x1="1007.94" y1="247.875" x2="1007.94" y2="253.919" stroke="#B9C2D7"/>
<line x1="1013.99" y1="247.875" x2="1013.99" y2="253.919" stroke="#B9C2D7"/>
<line x1="1020.03" y1="247.875" x2="1020.03" y2="253.919" stroke="#B9C2D7"/>
<rect x="899.654" y="135.051" width="40.2941" height="9.06618" fill="#15365D" stroke="#B9C2D7"/>
<mask id="path-668-inside-1" fill="white">
<path fill-rule="evenodd" clip-rule="evenodd" d="M924.49 134.044C924.711 133.65 924.838 133.191 924.838 132.659C924.838 130.155 922.027 126.993 919.801 126.993C917.576 126.993 914.765 130.155 914.765 132.659C914.765 133.191 914.892 133.65 915.113 134.044H924.49Z"/>
</mask>
<path fill-rule="evenodd" clip-rule="evenodd" d="M924.49 134.044C924.711 133.65 924.838 133.191 924.838 132.659C924.838 130.155 922.027 126.993 919.801 126.993C917.576 126.993 914.765 130.155 914.765 132.659C914.765 133.191 914.892 133.65 915.113 134.044H924.49Z" fill="#15365D"/>
<path d="M924.49 134.044V135.044H925.075L925.362 134.534L924.49 134.044ZM915.113 134.044L914.241 134.534L914.528 135.044H915.113V134.044ZM923.838 132.659C923.838 133.025 923.753 133.315 923.618 133.554L925.362 134.534C925.67 133.986 925.838 133.357 925.838 132.659H923.838ZM919.801 127.993C920.493 127.993 921.502 128.533 922.407 129.551C923.295 130.551 923.838 131.74 923.838 132.659H925.838C925.838 131.074 924.976 129.431 923.902 128.223C922.845 127.034 921.335 125.993 919.801 125.993V127.993ZM915.765 132.659C915.765 131.74 916.308 130.551 917.196 129.551C918.101 128.533 919.11 127.993 919.801 127.993V125.993C918.268 125.993 916.758 127.034 915.701 128.223C914.627 129.431 913.765 131.074 913.765 132.659H915.765ZM915.985 133.554C915.85 133.315 915.765 133.025 915.765 132.659H913.765C913.765 133.357 913.933 133.986 914.241 134.534L915.985 133.554ZM915.113 135.044H924.49V133.044H915.113V135.044Z" fill="#B9C2D7" mask="url(#path-668-inside-1)"/>
<path d="M895.625 143.11H911.239V133.037H927.357V143.11H943.978V265H895.625V143.11Z" fill="#15365D" stroke="#B9C2D7"/>
<rect x="906.706" y="227.728" width="26.1912" height="37.2721" fill="#15365D" stroke="#B9C2D7"/>
<line x1="909.221" y1="151.169" x2="909.221" y2="157.213" stroke="#B9C2D7"/>
<line x1="916.272" y1="151.169" x2="916.272" y2="157.213" stroke="#B9C2D7"/>
<line x1="923.324" y1="151.169" x2="923.324" y2="157.213" stroke="#B9C2D7"/>
<line x1="930.375" y1="151.169" x2="930.375" y2="157.213" stroke="#B9C2D7"/>
<line x1="909.221" y1="164.265" x2="909.221" y2="170.309" stroke="#B9C2D7"/>
<line x1="916.272" y1="164.265" x2="916.272" y2="170.309" stroke="#B9C2D7"/>
<line x1="923.324" y1="164.265" x2="923.324" y2="170.309" stroke="#B9C2D7"/>
<line x1="930.375" y1="164.265" x2="930.375" y2="170.309" stroke="#B9C2D7"/>
<line x1="909.221" y1="177.36" x2="909.221" y2="183.404" stroke="#B9C2D7"/>
<line x1="916.272" y1="177.36" x2="916.272" y2="183.404" stroke="#B9C2D7"/>
<line x1="923.324" y1="177.36" x2="923.324" y2="183.404" stroke="#B9C2D7"/>
<line x1="930.375" y1="177.36" x2="930.375" y2="183.404" stroke="#B9C2D7"/>
<line x1="909.221" y1="190.456" x2="909.221" y2="196.5" stroke="#B9C2D7"/>
<line x1="916.272" y1="190.456" x2="916.272" y2="196.5" stroke="#B9C2D7"/>
<line x1="923.324" y1="190.456" x2="923.324" y2="196.5" stroke="#B9C2D7"/>
<line x1="930.375" y1="190.456" x2="930.375" y2="196.5" stroke="#B9C2D7"/>
<line x1="909.221" y1="203.551" x2="909.221" y2="209.596" stroke="#B9C2D7"/>
<line x1="916.272" y1="203.551" x2="916.272" y2="209.596" stroke="#B9C2D7"/>
<line x1="923.324" y1="203.551" x2="923.324" y2="209.596" stroke="#B9C2D7"/>
<line x1="930.375" y1="203.551" x2="930.375" y2="209.596" stroke="#B9C2D7"/>
<line x1="909.221" y1="216.647" x2="909.221" y2="222.691" stroke="#B9C2D7"/>
<line x1="916.272" y1="216.647" x2="916.272" y2="222.691" stroke="#B9C2D7"/>
<line x1="923.324" y1="216.647" x2="923.324" y2="222.691" stroke="#B9C2D7"/>
<line x1="930.375" y1="216.647" x2="930.375" y2="222.691" stroke="#B9C2D7"/>
<rect x="810" y="173.331" width="85.625" height="91.6691" fill="#15365D" stroke="#B9C2D7"/>
<line x1="864.897" y1="181.39" x2="864.897" y2="187.434" stroke="#B9C2D7"/>
<line x1="864.897" y1="194.485" x2="864.897" y2="200.529" stroke="#B9C2D7"/>
<line x1="864.897" y1="207.581" x2="864.897" y2="213.625" stroke="#B9C2D7"/>
<line x1="864.897" y1="220.676" x2="864.897" y2="226.721" stroke="#B9C2D7"/>
<line x1="864.897" y1="233.772" x2="864.897" y2="239.816" stroke="#B9C2D7"/>
<line x1="864.897" y1="246.868" x2="864.897" y2="252.912" stroke="#B9C2D7"/>
<line x1="872.956" y1="181.39" x2="872.956" y2="187.434" stroke="#B9C2D7"/>
<line x1="881.015" y1="181.39" x2="881.015" y2="187.434" stroke="#B9C2D7"/>
<line x1="872.956" y1="194.485" x2="872.956" y2="200.529" stroke="#B9C2D7"/>
<line x1="881.015" y1="194.485" x2="881.015" y2="200.529" stroke="#B9C2D7"/>
<line x1="872.956" y1="207.581" x2="872.956" y2="213.625" stroke="#B9C2D7"/>
<line x1="881.015" y1="207.581" x2="881.015" y2="213.625" stroke="#B9C2D7"/>
<line x1="872.956" y1="220.676" x2="872.956" y2="226.721" stroke="#B9C2D7"/>
<line x1="881.015" y1="220.676" x2="881.015" y2="226.721" stroke="#B9C2D7"/>
<line x1="872.956" y1="233.772" x2="872.956" y2="239.816" stroke="#B9C2D7"/>
<line x1="881.015" y1="233.772" x2="881.015" y2="239.816" stroke="#B9C2D7"/>
<line x1="872.956" y1="246.868" x2="872.956" y2="252.912" stroke="#B9C2D7"/>
<line x1="881.015" y1="246.868" x2="881.015" y2="252.912" stroke="#B9C2D7"/>
<line x1="824.603" y1="181.39" x2="824.603" y2="187.434" stroke="#B9C2D7"/>
<line x1="832.662" y1="181.39" x2="832.662" y2="187.434" stroke="#B9C2D7"/>
<line x1="824.603" y1="194.485" x2="824.603" y2="200.529" stroke="#B9C2D7"/>
<line x1="832.662" y1="194.485" x2="832.662" y2="200.529" stroke="#B9C2D7"/>
<line x1="824.603" y1="207.581" x2="824.603" y2="213.625" stroke="#B9C2D7"/>
<line x1="832.662" y1="207.581" x2="832.662" y2="213.625" stroke="#B9C2D7"/>
<line x1="824.603" y1="220.676" x2="824.603" y2="226.721" stroke="#B9C2D7"/>
<line x1="832.662" y1="220.676" x2="832.662" y2="226.721" stroke="#B9C2D7"/>
<line x1="824.603" y1="233.772" x2="824.603" y2="239.816" stroke="#B9C2D7"/>
<line x1="832.662" y1="233.772" x2="832.662" y2="239.816" stroke="#B9C2D7"/>
<line x1="824.603" y1="246.868" x2="824.603" y2="252.912" stroke="#B9C2D7"/>
<line x1="832.662" y1="246.868" x2="832.662" y2="252.912" stroke="#B9C2D7"/>
<line x1="840.721" y1="181.39" x2="840.721" y2="187.434" stroke="#B9C2D7"/>
<line x1="848.779" y1="181.39" x2="848.779" y2="187.434" stroke="#B9C2D7"/>
<line x1="856.838" y1="181.39" x2="856.838" y2="187.434" stroke="#B9C2D7"/>
<line x1="840.721" y1="194.485" x2="840.721" y2="200.529" stroke="#B9C2D7"/>
<line x1="848.779" y1="194.485" x2="848.779" y2="200.529" stroke="#B9C2D7"/>
<line x1="856.838" y1="194.485" x2="856.838" y2="200.529" stroke="#B9C2D7"/>
<line x1="840.721" y1="207.581" x2="840.721" y2="213.625" stroke="#B9C2D7"/>
<line x1="848.779" y1="207.581" x2="848.779" y2="213.625" stroke="#B9C2D7"/>
<line x1="856.838" y1="207.581" x2="856.838" y2="213.625" stroke="#B9C2D7"/>
<line x1="840.721" y1="220.676" x2="840.721" y2="226.721" stroke="#B9C2D7"/>
<line x1="848.779" y1="220.676" x2="848.779" y2="226.721" stroke="#B9C2D7"/>
<line x1="856.838" y1="220.676" x2="856.838" y2="226.721" stroke="#B9C2D7"/>
<line x1="840.721" y1="233.772" x2="840.721" y2="239.816" stroke="#B9C2D7"/>
<line x1="848.779" y1="233.772" x2="848.779" y2="239.816" stroke="#B9C2D7"/>
<line x1="856.838" y1="233.772" x2="856.838" y2="239.816" stroke="#B9C2D7"/>
<line x1="840.721" y1="246.868" x2="840.721" y2="252.912" stroke="#B9C2D7"/>
<line x1="848.779" y1="246.868" x2="848.779" y2="252.912" stroke="#B9C2D7"/>
<line x1="856.838" y1="246.868" x2="856.838" y2="252.912" stroke="#B9C2D7"/>
<line x1="840.721" y1="181.39" x2="840.721" y2="187.434" stroke="#B9C2D7"/>
<line x1="848.779" y1="181.39" x2="848.779" y2="187.434" stroke="#B9C2D7"/>
<line x1="856.838" y1="181.39" x2="856.838" y2="187.434" stroke="#B9C2D7"/>
<line x1="840.721" y1="194.485" x2="840.721" y2="200.529" stroke="#B9C2D7"/>
<line x1="848.779" y1="194.485" x2="848.779" y2="200.529" stroke="#B9C2D7"/>
<line x1="856.838" y1="194.485" x2="856.838" y2="200.529" stroke="#B9C2D7"/>
<line x1="840.721" y1="207.581" x2="840.721" y2="213.625" stroke="#B9C2D7"/>
<line x1="848.779" y1="207.581" x2="848.779" y2="213.625" stroke="#B9C2D7"/>
<line x1="856.838" y1="207.581" x2="856.838" y2="213.625" stroke="#B9C2D7"/>
<line x1="840.721" y1="220.676" x2="840.721" y2="226.721" stroke="#B9C2D7"/>
<line x1="848.779" y1="220.676" x2="848.779" y2="226.721" stroke="#B9C2D7"/>
<line x1="856.838" y1="220.676" x2="856.838" y2="226.721" stroke="#B9C2D7"/>
<line x1="840.721" y1="233.772" x2="840.721" y2="239.816" stroke="#B9C2D7"/>
<line x1="848.779" y1="233.772" x2="848.779" y2="239.816" stroke="#B9C2D7"/>
<line x1="856.838" y1="233.772" x2="856.838" y2="239.816" stroke="#B9C2D7"/>
<line x1="840.721" y1="246.868" x2="840.721" y2="252.912" stroke="#B9C2D7"/>
<line x1="848.779" y1="246.868" x2="848.779" y2="252.912" stroke="#B9C2D7"/>
<line x1="856.838" y1="246.868" x2="856.838" y2="252.912" stroke="#B9C2D7"/>
<path d="M1353.5 182.5H1388.26V174H1399.5V264H1353.5V182.5Z" fill="#15365D" stroke="#B9C2D7"/>
<path d="M1388.26 182.5V196.5" stroke="#B9C2D7"/>
<rect x="1312" y="147" width="42" height="118" fill="#15365D" stroke="#B9C2D7"/>
<line x1="1326" y1="159.5" x2="1334" y2="159.5" stroke="#B9C2D7"/>
<line x1="1341" y1="159.5" x2="1346" y2="159.5" stroke="#B9C2D7"/>
<line x1="1326" y1="168.5" x2="1334" y2="168.5" stroke="#B9C2D7"/>
<line x1="1341" y1="168.5" x2="1346" y2="168.5" stroke="#B9C2D7"/>
<line x1="1326" y1="177.5" x2="1334" y2="177.5" stroke="#B9C2D7"/>
<line x1="1341" y1="177.5" x2="1346" y2="177.5" stroke="#B9C2D7"/>
<line x1="1326" y1="186.5" x2="1334" y2="186.5" stroke="#B9C2D7"/>
<line x1="1341" y1="186.5" x2="1346" y2="186.5" stroke="#B9C2D7"/>
<line x1="1326" y1="195.5" x2="1334" y2="195.5" stroke="#B9C2D7"/>
<line x1="1341" y1="195.5" x2="1346" y2="195.5" stroke="#B9C2D7"/>
<line x1="1326" y1="204.5" x2="1334" y2="204.5" stroke="#B9C2D7"/>
<line x1="1341" y1="204.5" x2="1346" y2="204.5" stroke="#B9C2D7"/>
<line x1="1326" y1="213.5" x2="1334" y2="213.5" stroke="#B9C2D7"/>
<line x1="1341" y1="213.5" x2="1346" y2="213.5" stroke="#B9C2D7"/>
<line x1="1326" y1="222.5" x2="1334" y2="222.5" stroke="#B9C2D7"/>
<line x1="1341" y1="222.5" x2="1346" y2="222.5" stroke="#B9C2D7"/>
<line x1="1326" y1="231.5" x2="1334" y2="231.5" stroke="#B9C2D7"/>
<line x1="1341" y1="231.5" x2="1346" y2="231.5" stroke="#B9C2D7"/>
<line x1="1326" y1="240.5" x2="1334" y2="240.5" stroke="#B9C2D7"/>
<line x1="1341" y1="240.5" x2="1346" y2="240.5" stroke="#B9C2D7"/>
<line x1="1326" y1="249.5" x2="1334" y2="249.5" stroke="#B9C2D7"/>
<line x1="1341" y1="249.5" x2="1346" y2="249.5" stroke="#B9C2D7"/>
<rect x="1325" y="142" width="17" height="5" fill="#15365D" stroke="#B9C2D7"/>
<path d="M1334 90.5V142" stroke="#B9C2D7"/>
<path d="M1326 201H1399.5V265H1326V201Z" fill="#15365D" stroke="#B9C2D7"/>
<line x1="1340.5" y1="214" x2="1340.5" y2="219" stroke="#B9C2D7"/>
<line x1="1352.5" y1="214" x2="1352.5" y2="219" stroke="#B9C2D7"/>
<line x1="1364.5" y1="214" x2="1364.5" y2="219" stroke="#B9C2D7"/>
<line x1="1376.5" y1="214" x2="1376.5" y2="219" stroke="#B9C2D7"/>
<line x1="1388.5" y1="214" x2="1388.5" y2="219" stroke="#B9C2D7"/>
<line x1="1376.5" y1="224" x2="1376.5" y2="229" stroke="#B9C2D7"/>
<line x1="1388.5" y1="224" x2="1388.5" y2="229" stroke="#B9C2D7"/>
<line x1="1376.5" y1="234" x2="1376.5" y2="239" stroke="#B9C2D7"/>
<line x1="1388.5" y1="234" x2="1388.5" y2="239" stroke="#B9C2D7"/>
<line x1="1376.5" y1="244" x2="1376.5" y2="249" stroke="#B9C2D7"/>
<line x1="1376.5" y1="254" x2="1376.5" y2="259" stroke="#B9C2D7"/>
<line x1="1388.5" y1="254" x2="1388.5" y2="259" stroke="#B9C2D7"/>
<rect x="1152" y="205" width="35" height="60" fill="#15365D" stroke="#B9C2D7"/>
<line x1="1160.5" y1="212" x2="1160.5" y2="217" stroke="#B9C2D7"/>
<line x1="1169.5" y1="212" x2="1169.5" y2="217" stroke="#B9C2D7"/>
<line x1="1178.5" y1="212" x2="1178.5" y2="217" stroke="#B9C2D7"/>
<line x1="1160.5" y1="221" x2="1160.5" y2="226" stroke="#B9C2D7"/>
<line x1="1169.5" y1="221" x2="1169.5" y2="226" stroke="#B9C2D7"/>
<line x1="1178.5" y1="221" x2="1178.5" y2="226" stroke="#B9C2D7"/>
<line x1="1160.5" y1="230" x2="1160.5" y2="235" stroke="#B9C2D7"/>
<line x1="1169.5" y1="230" x2="1169.5" y2="235" stroke="#B9C2D7"/>
<line x1="1178.5" y1="230" x2="1178.5" y2="235" stroke="#B9C2D7"/>
<rect width="25" height="8" transform="matrix(1 0 0 -1 1162 205)" fill="#15365D" stroke="#B9C2D7"/>
<path d="M1164 200H1184.5" stroke="#B9C2D7"/>
<rect x="1187" y="152" width="92" height="113" fill="#15365D" stroke="#B9C2D7"/>
<rect x="1187" y="145" width="22" height="7" fill="#15365D" stroke="#B9C2D7"/>
<path d="M1199.5 138V145" stroke="#B9C2D7"/>
<rect x="1263" y="145" width="16" height="7" fill="#15365D" stroke="#B9C2D7"/>
<path d="M1269.5 138V145" stroke="#B9C2D7"/>
<path d="M1256 211.5V160H1197V230" stroke="#B9C2D7"/>
<path d="M1211.5 168H1256" stroke="#B9C2D7"/>
<path d="M1237 177H1205V257" stroke="#B9C2D7"/>
<path d="M1248 182H1213V257" stroke="#B9C2D7"/>
<path d="M1256 190H1231V234" stroke="#B9C2D7"/>
<path d="M1263 242H1233V265" stroke="#B9C2D7"/>
<path d="M1243 253H1262.5" stroke="#B9C2D7"/>
<path d="M1263 152V200" stroke="#B9C2D7"/>
<path d="M1187 242H1198.5" stroke="#B9C2D7"/>
<path d="M1187 249H1198.5" stroke="#B9C2D7"/>
<path d="M1239.5 242V230H1312V265H1232V242H1239.5Z" fill="#15365D" stroke="#B9C2D7"/>
<path d="M1239.5 242H1263" stroke="#B9C2D7"/>
<path d="M1278 242L1312 242" stroke="#B9C2D7"/>
<path d="M1243 254L1263 254" stroke="#B9C2D7"/>
<path d="M1278 252L1278 265" stroke="#B9C2D7"/>
<path d="M1288 252L1288 265" stroke="#B9C2D7"/>
<path d="M1298 252L1298 265" stroke="#B9C2D7"/>
<path d="M1308 252L1308 265" stroke="#B9C2D7"/>
<path d="M1275.05 219L1298.95 219L1304 224.068V230H1276.5H1249V224.068L1254.05 219L1275.05 219Z" fill="#15365D" stroke="#B9C2D7"/>
<rect x="1398" y="174.5" width="2" height="26" fill="#15365D"/>
<rect x="1398" y="201.5" width="2" height="63" fill="#15365D"/>
<mask id="path-841-inside-2" fill="white">
<path fill-rule="evenodd" clip-rule="evenodd" d="M786.61 248.737C785.06 250.114 783.018 250.951 780.78 250.951C775.931 250.951 772 247.02 772 242.171C772 238.919 773.768 236.08 776.395 234.562C775.102 232.745 774.341 230.522 774.341 228.122C774.341 221.979 779.321 217 785.463 217C789.997 217 793.898 219.713 795.63 223.604C796.422 223.128 797.35 222.854 798.341 222.854C801.251 222.854 803.61 225.212 803.61 228.122C803.61 230.265 802.33 232.11 800.492 232.933C802.417 234.842 803.61 237.489 803.61 240.415C803.61 246.234 798.892 250.951 793.073 250.951C790.637 250.951 788.395 250.125 786.61 248.737Z"/>
</mask>
<path fill-rule="evenodd" clip-rule="evenodd" d="M786.61 248.737C785.06 250.114 783.018 250.951 780.78 250.951C775.931 250.951 772 247.02 772 242.171C772 238.919 773.768 236.08 776.395 234.562C775.102 232.745 774.341 230.522 774.341 228.122C774.341 221.979 779.321 217 785.463 217C789.997 217 793.898 219.713 795.63 223.604C796.422 223.128 797.35 222.854 798.341 222.854C801.251 222.854 803.61 225.212 803.61 228.122C803.61 230.265 802.33 232.11 800.492 232.933C802.417 234.842 803.61 237.489 803.61 240.415C803.61 246.234 798.892 250.951 793.073 250.951C790.637 250.951 788.395 250.125 786.61 248.737Z" fill="#15365D"/>
<path d="M786.61 248.737L787.224 247.947L786.568 247.437L785.946 247.989L786.61 248.737ZM776.395 234.562L776.895 235.428L777.847 234.878L777.21 233.983L776.395 234.562ZM795.63 223.604L794.716 224.011L795.176 225.044L796.145 224.461L795.63 223.604ZM800.492 232.933L800.083 232.02L798.752 232.616L799.788 233.643L800.492 232.933ZM785.946 247.989C784.571 249.211 782.764 249.951 780.78 249.951V251.951C783.272 251.951 785.548 251.018 787.274 249.484L785.946 247.989ZM780.78 249.951C776.483 249.951 773 246.468 773 242.171H771C771 247.572 775.379 251.951 780.78 251.951V249.951ZM773 242.171C773 239.29 774.565 236.774 776.895 235.428L775.895 233.696C772.971 235.385 771 238.547 771 242.171H773ZM777.21 233.983C776.033 232.329 775.341 230.308 775.341 228.122H773.341C773.341 230.737 774.171 233.161 775.58 235.142L777.21 233.983ZM775.341 228.122C775.341 222.532 779.873 218 785.463 218V216C778.769 216 773.341 221.427 773.341 228.122H775.341ZM785.463 218C789.588 218 793.139 220.467 794.716 224.011L796.543 223.198C794.657 218.959 790.407 216 785.463 216V218ZM796.145 224.461C796.786 224.076 797.536 223.854 798.341 223.854V221.854C797.163 221.854 796.058 222.18 795.114 222.747L796.145 224.461ZM798.341 223.854C800.699 223.854 802.61 225.765 802.61 228.122H804.61C804.61 224.66 801.803 221.854 798.341 221.854V223.854ZM802.61 228.122C802.61 229.857 801.574 231.353 800.083 232.02L800.901 233.845C803.085 232.868 804.61 230.674 804.61 228.122H802.61ZM799.788 233.643C801.532 235.372 802.61 237.766 802.61 240.415H804.61C804.61 237.212 803.303 234.312 801.196 232.223L799.788 233.643ZM802.61 240.415C802.61 245.682 798.34 249.951 793.073 249.951V251.951C799.445 251.951 804.61 246.786 804.61 240.415H802.61ZM793.073 249.951C790.868 249.951 788.839 249.204 787.224 247.947L785.996 249.526C787.95 251.046 790.407 251.951 793.073 251.951V249.951Z" fill="#B9C2D7" mask="url(#path-841-inside-2)"/>
<path d="M787 249L787 265" stroke="#B9C2D7" stroke-linecap="round"/>
<mask id="path-844-inside-3" fill="white">
<path d="M804.911 253.159C804.969 252.877 805 252.585 805 252.286C805 249.919 803.081 248 800.714 248C798.347 248 796.429 249.919 796.429 252.286C796.429 253.001 796.604 253.676 796.914 254.269C795.768 254.955 795 256.209 795 257.643C795 259.813 796.759 261.571 798.929 261.571C800.125 261.571 801.196 261.037 801.916 260.194C802.484 260.613 803.167 260.857 803.902 260.857C805.875 260.857 807.474 259.098 807.474 256.929C807.474 255.144 806.392 253.638 804.911 253.159Z"/>
</mask>
<path d="M804.911 253.159C804.969 252.877 805 252.585 805 252.286C805 249.919 803.081 248 800.714 248C798.347 248 796.429 249.919 796.429 252.286C796.429 253.001 796.604 253.676 796.914 254.269C795.768 254.955 795 256.209 795 257.643C795 259.813 796.759 261.571 798.929 261.571C800.125 261.571 801.196 261.037 801.916 260.194C802.484 260.613 803.167 260.857 803.902 260.857C805.875 260.857 807.474 259.098 807.474 256.929C807.474 255.144 806.392 253.638 804.911 253.159Z" fill="#15365D"/>
<path d="M804.911 253.159L803.932 252.956L803.75 253.835L804.603 254.11L804.911 253.159ZM796.914 254.269L797.428 255.127L798.238 254.643L797.8 253.806L796.914 254.269ZM801.916 260.194L802.51 259.389L801.761 258.837L801.156 259.544L801.916 260.194ZM804 252.286C804 252.516 803.976 252.741 803.932 252.956L805.89 253.362C805.962 253.013 806 252.653 806 252.286H804ZM800.714 249C802.529 249 804 250.471 804 252.286H806C806 249.366 803.634 247 800.714 247V249ZM797.429 252.286C797.429 250.471 798.9 249 800.714 249V247C797.795 247 795.429 249.366 795.429 252.286H797.429ZM797.8 253.806C797.563 253.352 797.429 252.836 797.429 252.286H795.429C795.429 253.167 795.645 254 796.028 254.733L797.8 253.806ZM796.401 253.411C794.965 254.27 794 255.843 794 257.643H796C796 256.576 796.57 255.64 797.428 255.127L796.401 253.411ZM794 257.643C794 260.365 796.207 262.571 798.929 262.571V260.571C797.311 260.571 796 259.26 796 257.643H794ZM798.929 262.571C800.429 262.571 801.774 261.9 802.676 260.844L801.156 259.544C800.617 260.175 799.82 260.571 798.929 260.571V262.571ZM801.323 260.999C802.051 261.536 802.94 261.857 803.902 261.857V259.857C803.395 259.857 802.917 259.69 802.51 259.389L801.323 260.999ZM803.902 261.857C806.515 261.857 808.474 259.559 808.474 256.929H806.474C806.474 258.638 805.235 259.857 803.902 259.857V261.857ZM808.474 256.929C808.474 254.752 807.151 252.832 805.219 252.207L804.603 254.11C805.634 254.443 806.474 255.537 806.474 256.929H808.474Z" fill="#B9C2D7" mask="url(#path-844-inside-3)"/>
<path d="M802 260L802 265" stroke="#B9C2D7" stroke-linecap="round"/>
<mask id="path-847-inside-4" fill="white">
<path d="M636.124 251.71C636.189 251.394 636.223 251.066 636.223 250.73C636.223 248.074 634.07 245.92 631.413 245.92C628.757 245.92 626.603 248.074 626.603 250.73C626.603 251.533 626.8 252.291 627.148 252.956C625.862 253.726 625 255.134 625 256.743C625 259.178 626.974 261.152 629.409 261.152C630.751 261.152 631.954 260.552 632.762 259.606C633.4 260.076 634.167 260.35 634.992 260.35C637.205 260.35 639 258.376 639 255.941C639 253.938 637.786 252.247 636.124 251.71Z"/>
</mask>
<path d="M636.124 251.71C636.189 251.394 636.223 251.066 636.223 250.73C636.223 248.074 634.07 245.92 631.413 245.92C628.757 245.92 626.603 248.074 626.603 250.73C626.603 251.533 626.8 252.291 627.148 252.956C625.862 253.726 625 255.134 625 256.743C625 259.178 626.974 261.152 629.409 261.152C630.751 261.152 631.954 260.552 632.762 259.606C633.4 260.076 634.167 260.35 634.992 260.35C637.205 260.35 639 258.376 639 255.941C639 253.938 637.786 252.247 636.124 251.71Z" fill="#15365D"/>
<path d="M636.124 251.71L635.144 251.507L634.963 252.386L635.816 252.662L636.124 251.71ZM627.148 252.956L627.662 253.815L628.472 253.33L628.035 252.493L627.148 252.956ZM632.762 259.606L633.356 258.801L632.607 258.249L632.002 258.956L632.762 259.606ZM635.223 250.73C635.223 250.997 635.196 251.257 635.144 251.507L637.103 251.913C637.182 251.53 637.223 251.134 637.223 250.73H635.223ZM631.413 246.92C633.518 246.92 635.223 248.626 635.223 250.73H637.223C637.223 247.521 634.622 244.92 631.413 244.92V246.92ZM627.603 250.73C627.603 248.626 629.309 246.92 631.413 246.92V244.92C628.205 244.92 625.603 247.521 625.603 250.73H627.603ZM628.035 252.493C627.759 251.967 627.603 251.368 627.603 250.73H625.603C625.603 251.699 625.841 252.615 626.262 253.42L628.035 252.493ZM626.635 252.098C625.059 253.041 624 254.768 624 256.743H626C626 255.5 626.664 254.412 627.662 253.815L626.635 252.098ZM624 256.743C624 259.73 626.422 262.152 629.409 262.152V260.152C627.526 260.152 626 258.626 626 256.743H624ZM629.409 262.152C631.056 262.152 632.532 261.415 633.523 260.256L632.002 258.956C631.375 259.69 630.447 260.152 629.409 260.152V262.152ZM632.169 260.411C632.967 260.999 633.939 261.35 634.992 261.35V259.35C634.394 259.35 633.833 259.153 633.356 258.801L632.169 260.411ZM634.992 261.35C637.845 261.35 640 258.837 640 255.941H638C638 257.916 636.566 259.35 634.992 259.35V261.35ZM640 255.941C640 253.546 638.544 251.442 636.431 250.759L635.816 252.662C637.028 253.053 638 254.331 638 255.941H640Z" fill="#B9C2D7" mask="url(#path-847-inside-4)"/>
<path d="M632.856 259.388L632.856 265" stroke="#B9C2D7" stroke-linecap="round"/>
<mask id="path-850-inside-5" fill="white">
<path fill-rule="evenodd" clip-rule="evenodd" d="M68.1532 253.141C67.0226 254.146 65.5338 254.756 63.9024 254.756C60.3665 254.756 57.5 251.89 57.5 248.354C57.5 245.982 58.789 243.912 60.7046 242.806C59.7617 241.481 59.2073 239.86 59.2073 238.11C59.2073 233.631 62.8382 230 67.3171 230C70.6231 230 73.4671 231.978 74.7299 234.816C75.3075 234.468 75.9841 234.268 76.7073 234.268C78.8289 234.268 80.5488 235.988 80.5488 238.11C80.5488 239.673 79.6153 241.018 78.2755 241.618C79.6793 243.01 80.5488 244.94 80.5488 247.073C80.5488 251.316 77.109 254.756 72.8659 254.756C71.0898 254.756 69.4545 254.153 68.1532 253.141Z"/>
</mask>
<path fill-rule="evenodd" clip-rule="evenodd" d="M68.1532 253.141C67.0226 254.146 65.5338 254.756 63.9024 254.756C60.3665 254.756 57.5 251.89 57.5 248.354C57.5 245.982 58.789 243.912 60.7046 242.806C59.7617 241.481 59.2073 239.86 59.2073 238.11C59.2073 233.631 62.8382 230 67.3171 230C70.6231 230 73.4671 231.978 74.7299 234.816C75.3075 234.468 75.9841 234.268 76.7073 234.268C78.8289 234.268 80.5488 235.988 80.5488 238.11C80.5488 239.673 79.6153 241.018 78.2755 241.618C79.6793 243.01 80.5488 244.94 80.5488 247.073C80.5488 251.316 77.109 254.756 72.8659 254.756C71.0898 254.756 69.4545 254.153 68.1532 253.141Z" fill="#15365D"/>
<path d="M68.1532 253.141L68.7671 252.352L68.1107 251.842L67.489 252.394L68.1532 253.141ZM60.7046 242.806L61.2048 243.672L62.1567 243.122L61.5194 242.226L60.7046 242.806ZM74.7299 234.816L73.8163 235.222L74.2762 236.256L75.2454 235.673L74.7299 234.816ZM78.2755 241.618L77.8669 240.705L76.5359 241.301L77.5714 242.328L78.2755 241.618ZM67.489 252.394C66.5344 253.242 65.2797 253.756 63.9024 253.756V255.756C65.7879 255.756 67.5109 255.05 68.8174 253.889L67.489 252.394ZM63.9024 253.756C60.9188 253.756 58.5 251.337 58.5 248.354H56.5C56.5 252.442 59.8142 255.756 63.9024 255.756V253.756ZM58.5 248.354C58.5 246.354 59.5858 244.607 61.2048 243.672L60.2043 241.94C57.9922 243.218 56.5 245.611 56.5 248.354H58.5ZM61.5194 242.226C60.6931 241.065 60.2073 239.645 60.2073 238.11H58.2073C58.2073 240.074 58.8304 241.897 59.8897 243.386L61.5194 242.226ZM60.2073 238.11C60.2073 234.183 63.3905 231 67.3171 231V229C62.2859 229 58.2073 233.079 58.2073 238.11H60.2073ZM67.3171 231C70.2139 231 72.7083 232.733 73.8163 235.222L75.6435 234.409C74.226 231.224 71.0323 229 67.3171 229V231ZM75.2454 235.673C75.6718 235.416 76.1708 235.268 76.7073 235.268V233.268C75.7974 233.268 74.9433 233.52 74.2144 233.959L75.2454 235.673ZM76.7073 235.268C78.2766 235.268 79.5488 236.54 79.5488 238.11H81.5488C81.5488 235.436 79.3812 233.268 76.7073 233.268V235.268ZM79.5488 238.11C79.5488 239.264 78.8601 240.26 77.8669 240.705L78.6841 242.53C80.3706 241.775 81.5488 240.081 81.5488 238.11H79.5488ZM77.5714 242.328C78.7936 243.54 79.5488 245.217 79.5488 247.073H81.5488C81.5488 244.662 80.5651 242.48 78.9796 240.908L77.5714 242.328ZM79.5488 247.073C79.5488 250.764 76.5567 253.756 72.8659 253.756V255.756C77.6613 255.756 81.5488 251.869 81.5488 247.073H79.5488ZM72.8659 253.756C71.3199 253.756 69.8991 253.232 68.7671 252.352L67.5393 253.931C69.0099 255.074 70.8597 255.756 72.8659 255.756V253.756Z" fill="#B9C2D7" mask="url(#path-850-inside-5)"/>
<path d="M68.4375 253.333L68.4375 265" stroke="#B9C2D7" stroke-linecap="round"/>
<mask id="path-853-inside-6" fill="white">
<path fill-rule="evenodd" clip-rule="evenodd" d="M55.1175 249.85C55.177 249.562 55.2083 249.264 55.2083 248.958C55.2083 246.542 53.2496 244.583 50.8333 244.583C48.4171 244.583 46.4583 246.542 46.4583 248.958C46.4583 249.689 46.6374 250.378 46.9541 250.983C45.7836 251.684 45 252.964 45 254.427C45 256.642 46.7955 258.438 49.0104 258.438C50.2313 258.438 51.3247 257.892 52.0603 257.031C52.64 257.459 53.3375 257.708 54.0879 257.708C56.1015 257.708 57.7338 255.913 57.7338 253.698C57.7338 251.876 56.6297 250.338 55.1175 249.85Z"/>
</mask>
<path fill-rule="evenodd" clip-rule="evenodd" d="M55.1175 249.85C55.177 249.562 55.2083 249.264 55.2083 248.958C55.2083 246.542 53.2496 244.583 50.8333 244.583C48.4171 244.583 46.4583 246.542 46.4583 248.958C46.4583 249.689 46.6374 250.378 46.9541 250.983C45.7836 251.684 45 252.964 45 254.427C45 256.642 46.7955 258.438 49.0104 258.438C50.2313 258.438 51.3247 257.892 52.0603 257.031C52.64 257.459 53.3375 257.708 54.0879 257.708C56.1015 257.708 57.7338 255.913 57.7338 253.698C57.7338 251.876 56.6297 250.338 55.1175 249.85Z" fill="#15365D"/>
<path d="M55.1175 249.85L54.1382 249.647L53.9564 250.525L54.8099 250.801L55.1175 249.85ZM46.9541 250.983L47.4676 251.841L48.2779 251.356L47.8402 250.52L46.9541 250.983ZM52.0603 257.031L52.6538 256.227L51.9048 255.674L51.3001 256.382L52.0603 257.031ZM56.0967 250.052C56.17 249.698 56.2083 249.332 56.2083 248.958H54.2083C54.2083 249.195 54.1841 249.425 54.1382 249.647L56.0967 250.052ZM56.2083 248.958C56.2083 245.99 53.8019 243.583 50.8333 243.583V245.583C52.6973 245.583 54.2083 247.094 54.2083 248.958H56.2083ZM50.8333 243.583C47.8648 243.583 45.4583 245.99 45.4583 248.958H47.4583C47.4583 247.094 48.9694 245.583 50.8333 245.583V243.583ZM45.4583 248.958C45.4583 249.854 45.6783 250.702 46.068 251.447L47.8402 250.52C47.5966 250.054 47.4583 249.524 47.4583 248.958H45.4583ZM46.4407 250.125C44.9809 250.999 44 252.598 44 254.427H46C46 253.33 46.5864 252.369 47.4676 251.841L46.4407 250.125ZM44 254.427C44 257.194 46.2432 259.438 49.0104 259.438V257.438C47.3478 257.438 46 256.09 46 254.427H44ZM49.0104 259.438C50.5359 259.438 51.903 258.755 52.8204 257.681L51.3001 256.382C50.7464 257.029 49.9266 257.438 49.0104 257.438V259.438ZM54.0879 256.708C53.5649 256.708 53.0731 256.536 52.6538 256.227L51.4668 257.836C52.207 258.382 53.1101 258.708 54.0879 258.708V256.708ZM56.7338 253.698C56.7338 255.452 55.4616 256.708 54.0879 256.708V258.708C56.7413 258.708 58.7338 256.373 58.7338 253.698H56.7338ZM54.8099 250.801C55.8714 251.144 56.7338 252.269 56.7338 253.698H58.7338C58.7338 251.484 57.388 249.533 55.425 248.898L54.8099 250.801Z" fill="#B9C2D7" mask="url(#path-853-inside-6)"/>
<path d="M52.2917 256.979L52.2917 265" stroke="#B9C2D7" stroke-linecap="round"/>
<mask id="path-856-inside-7" fill="white">
<path fill-rule="evenodd" clip-rule="evenodd" d="M443.153 253.141C442.023 254.146 440.534 254.756 438.902 254.756C435.366 254.756 432.5 251.89 432.5 248.354C432.5 245.982 433.789 243.912 435.705 242.806C434.762 241.481 434.207 239.86 434.207 238.11C434.207 233.631 437.838 230 442.317 230C445.623 230 448.467 231.978 449.73 234.816C450.308 234.468 450.984 234.268 451.707 234.268C453.829 234.268 455.549 235.988 455.549 238.11C455.549 239.673 454.615 241.018 453.275 241.618C454.679 243.01 455.549 244.94 455.549 247.073C455.549 251.316 452.109 254.756 447.866 254.756C446.09 254.756 444.454 254.153 443.153 253.141Z"/>
</mask>
<path fill-rule="evenodd" clip-rule="evenodd" d="M443.153 253.141C442.023 254.146 440.534 254.756 438.902 254.756C435.366 254.756 432.5 251.89 432.5 248.354C432.5 245.982 433.789 243.912 435.705 242.806C434.762 241.481 434.207 239.86 434.207 238.11C434.207 233.631 437.838 230 442.317 230C445.623 230 448.467 231.978 449.73 234.816C450.308 234.468 450.984 234.268 451.707 234.268C453.829 234.268 455.549 235.988 455.549 238.11C455.549 239.673 454.615 241.018 453.275 241.618C454.679 243.01 455.549 244.94 455.549 247.073C455.549 251.316 452.109 254.756 447.866 254.756C446.09 254.756 444.454 254.153 443.153 253.141Z" fill="#15365D"/>
<path d="M443.153 253.141L443.767 252.352L443.111 251.842L442.489 252.394L443.153 253.141ZM435.705 242.806L436.205 243.672L437.157 243.122L436.519 242.226L435.705 242.806ZM449.73 234.816L448.816 235.222L449.276 236.256L450.245 235.673L449.73 234.816ZM453.275 241.618L452.867 240.705L451.536 241.301L452.571 242.328L453.275 241.618ZM442.489 252.394C441.534 253.242 440.28 253.756 438.902 253.756V255.756C440.788 255.756 442.511 255.05 443.817 253.889L442.489 252.394ZM438.902 253.756C435.919 253.756 433.5 251.337 433.5 248.354H431.5C431.5 252.442 434.814 255.756 438.902 255.756V253.756ZM433.5 248.354C433.5 246.354 434.586 244.607 436.205 243.672L435.204 241.94C432.992 243.218 431.5 245.611 431.5 248.354H433.5ZM436.519 242.226C435.693 241.065 435.207 239.645 435.207 238.11H433.207C433.207 240.074 433.83 241.897 434.89 243.386L436.519 242.226ZM435.207 238.11C435.207 234.183 438.39 231 442.317 231V229C437.286 229 433.207 233.079 433.207 238.11H435.207ZM442.317 231C445.214 231 447.708 232.733 448.816 235.222L450.644 234.409C449.226 231.224 446.032 229 442.317 229V231ZM450.245 235.673C450.672 235.416 451.171 235.268 451.707 235.268V233.268C450.797 233.268 449.943 233.52 449.214 233.959L450.245 235.673ZM451.707 235.268C453.277 235.268 454.549 236.54 454.549 238.11H456.549C456.549 235.436 454.381 233.268 451.707 233.268V235.268ZM454.549 238.11C454.549 239.264 453.86 240.26 452.867 240.705L453.684 242.53C455.371 241.775 456.549 240.081 456.549 238.11H454.549ZM452.571 242.328C453.794 243.54 454.549 245.217 454.549 247.073H456.549C456.549 244.662 455.565 242.48 453.98 240.908L452.571 242.328ZM454.549 247.073C454.549 250.764 451.557 253.756 447.866 253.756V255.756C452.661 255.756 456.549 251.869 456.549 247.073H454.549ZM447.866 253.756C446.32 253.756 444.899 253.232 443.767 252.352L442.539 253.931C444.01 255.074 445.86 255.756 447.866 255.756V253.756Z" fill="#B9C2D7" mask="url(#path-856-inside-7)"/>
<path d="M443.438 253.333L443.438 265" stroke="#B9C2D7" stroke-linecap="round"/>
<mask id="path-859-inside-8" fill="white">
<path fill-rule="evenodd" clip-rule="evenodd" d="M295.117 249.85C295.177 249.562 295.208 249.264 295.208 248.958C295.208 246.542 293.25 244.583 290.833 244.583C288.417 244.583 286.458 246.542 286.458 248.958C286.458 249.689 286.637 250.378 286.954 250.983C285.784 251.684 285 252.964 285 254.427C285 256.642 286.796 258.438 289.01 258.438C290.231 258.438 291.325 257.892 292.06 257.031C292.64 257.459 293.338 257.708 294.088 257.708C296.101 257.708 297.734 255.913 297.734 253.698C297.734 251.876 296.63 250.338 295.117 249.85Z"/>
</mask>
<path fill-rule="evenodd" clip-rule="evenodd" d="M295.117 249.85C295.177 249.562 295.208 249.264 295.208 248.958C295.208 246.542 293.25 244.583 290.833 244.583C288.417 244.583 286.458 246.542 286.458 248.958C286.458 249.689 286.637 250.378 286.954 250.983C285.784 251.684 285 252.964 285 254.427C285 256.642 286.796 258.438 289.01 258.438C290.231 258.438 291.325 257.892 292.06 257.031C292.64 257.459 293.338 257.708 294.088 257.708C296.101 257.708 297.734 255.913 297.734 253.698C297.734 251.876 296.63 250.338 295.117 249.85Z" fill="#15365D"/>
<path d="M295.117 249.85L294.138 249.647L293.956 250.525L294.81 250.801L295.117 249.85ZM286.954 250.983L287.468 251.841L288.278 251.356L287.84 250.52L286.954 250.983ZM292.06 257.031L292.654 256.227L291.905 255.674L291.3 256.382L292.06 257.031ZM296.097 250.052C296.17 249.698 296.208 249.332 296.208 248.958H294.208C294.208 249.195 294.184 249.425 294.138 249.647L296.097 250.052ZM296.208 248.958C296.208 245.99 293.802 243.583 290.833 243.583V245.583C292.697 245.583 294.208 247.094 294.208 248.958H296.208ZM290.833 243.583C287.865 243.583 285.458 245.99 285.458 248.958H287.458C287.458 247.094 288.969 245.583 290.833 245.583V243.583ZM285.458 248.958C285.458 249.854 285.678 250.702 286.068 251.447L287.84 250.52C287.597 250.054 287.458 249.524 287.458 248.958H285.458ZM286.441 250.125C284.981 250.999 284 252.598 284 254.427H286C286 253.33 286.586 252.369 287.468 251.841L286.441 250.125ZM284 254.427C284 257.194 286.243 259.438 289.01 259.438V257.438C287.348 257.438 286 256.09 286 254.427H284ZM289.01 259.438C290.536 259.438 291.903 258.755 292.82 257.681L291.3 256.382C290.746 257.029 289.927 257.438 289.01 257.438V259.438ZM294.088 256.708C293.565 256.708 293.073 256.536 292.654 256.227L291.467 257.836C292.207 258.382 293.11 258.708 294.088 258.708V256.708ZM296.734 253.698C296.734 255.452 295.462 256.708 294.088 256.708V258.708C296.741 258.708 298.734 256.373 298.734 253.698H296.734ZM294.81 250.801C295.871 251.144 296.734 252.269 296.734 253.698H298.734C298.734 251.484 297.388 249.533 295.425 248.898L294.81 250.801Z" fill="#B9C2D7" mask="url(#path-859-inside-8)"/>
<path d="M292.292 256.979L292.292 265" stroke="#B9C2D7" stroke-linecap="round"/>
<mask id="path-862-inside-9" fill="white">
<path fill-rule="evenodd" clip-rule="evenodd" d="M1356.15 253.141C1355.02 254.146 1353.53 254.756 1351.9 254.756C1348.37 254.756 1345.5 251.89 1345.5 248.354C1345.5 245.982 1346.79 243.912 1348.7 242.806C1347.76 241.481 1347.21 239.86 1347.21 238.11C1347.21 233.631 1350.84 230 1355.32 230C1358.62 230 1361.47 231.978 1362.73 234.816C1363.31 234.468 1363.98 234.268 1364.71 234.268C1366.83 234.268 1368.55 235.988 1368.55 238.11C1368.55 239.673 1367.62 241.018 1366.28 241.618C1367.68 243.01 1368.55 244.94 1368.55 247.073C1368.55 251.316 1365.11 254.756 1360.87 254.756C1359.09 254.756 1357.45 254.153 1356.15 253.141Z"/>
</mask>
<path fill-rule="evenodd" clip-rule="evenodd" d="M1356.15 253.141C1355.02 254.146 1353.53 254.756 1351.9 254.756C1348.37 254.756 1345.5 251.89 1345.5 248.354C1345.5 245.982 1346.79 243.912 1348.7 242.806C1347.76 241.481 1347.21 239.86 1347.21 238.11C1347.21 233.631 1350.84 230 1355.32 230C1358.62 230 1361.47 231.978 1362.73 234.816C1363.31 234.468 1363.98 234.268 1364.71 234.268C1366.83 234.268 1368.55 235.988 1368.55 238.11C1368.55 239.673 1367.62 241.018 1366.28 241.618C1367.68 243.01 1368.55 244.94 1368.55 247.073C1368.55 251.316 1365.11 254.756 1360.87 254.756C1359.09 254.756 1357.45 254.153 1356.15 253.141Z" fill="#15365D"/>
<path d="M1356.15 253.141L1356.77 252.352L1356.11 251.842L1355.49 252.394L1356.15 253.141ZM1348.7 242.806L1349.2 243.672L1350.16 243.122L1349.52 242.226L1348.7 242.806ZM1362.73 234.816L1361.82 235.222L1362.28 236.256L1363.25 235.673L1362.73 234.816ZM1366.28 241.618L1365.87 240.705L1364.54 241.301L1365.57 242.328L1366.28 241.618ZM1355.49 252.394C1354.53 253.242 1353.28 253.756 1351.9 253.756V255.756C1353.79 255.756 1355.51 255.05 1356.82 253.889L1355.49 252.394ZM1351.9 253.756C1348.92 253.756 1346.5 251.337 1346.5 248.354H1344.5C1344.5 252.442 1347.81 255.756 1351.9 255.756V253.756ZM1346.5 248.354C1346.5 246.354 1347.59 244.607 1349.2 243.672L1348.2 241.94C1345.99 243.218 1344.5 245.611 1344.5 248.354H1346.5ZM1349.52 242.226C1348.69 241.065 1348.21 239.645 1348.21 238.11H1346.21C1346.21 240.074 1346.83 241.897 1347.89 243.386L1349.52 242.226ZM1348.21 238.11C1348.21 234.183 1351.39 231 1355.32 231V229C1350.29 229 1346.21 233.079 1346.21 238.11H1348.21ZM1355.32 231C1358.21 231 1360.71 232.733 1361.82 235.222L1363.64 234.409C1362.23 231.224 1359.03 229 1355.32 229V231ZM1363.25 235.673C1363.67 235.416 1364.17 235.268 1364.71 235.268V233.268C1363.8 233.268 1362.94 233.52 1362.21 233.959L1363.25 235.673ZM1364.71 235.268C1366.28 235.268 1367.55 236.54 1367.55 238.11H1369.55C1369.55 235.436 1367.38 233.268 1364.71 233.268V235.268ZM1367.55 238.11C1367.55 239.264 1366.86 240.26 1365.87 240.705L1366.68 242.53C1368.37 241.775 1369.55 240.081 1369.55 238.11H1367.55ZM1365.57 242.328C1366.79 243.54 1367.55 245.217 1367.55 247.073H1369.55C1369.55 244.662 1368.57 242.48 1366.98 240.908L1365.57 242.328ZM1367.55 247.073C1367.55 250.764 1364.56 253.756 1360.87 253.756V255.756C1365.66 255.756 1369.55 251.869 1369.55 247.073H1367.55ZM1360.87 253.756C1359.32 253.756 1357.9 253.232 1356.77 252.352L1355.54 253.931C1357.01 255.074 1358.86 255.756 1360.87 255.756V253.756Z" fill="#B9C2D7" mask="url(#path-862-inside-9)"/>
<path d="M1356.44 253.333L1356.44 265" stroke="#B9C2D7" stroke-linecap="round"/>
<mask id="path-865-inside-10" fill="white">
<path fill-rule="evenodd" clip-rule="evenodd" d="M1343.12 249.85C1343.18 249.562 1343.21 249.264 1343.21 248.958C1343.21 246.542 1341.25 244.583 1338.83 244.583C1336.42 244.583 1334.46 246.542 1334.46 248.958C1334.46 249.689 1334.64 250.378 1334.95 250.983C1333.78 251.684 1333 252.964 1333 254.427C1333 256.642 1334.8 258.438 1337.01 258.438C1338.23 258.438 1339.32 257.892 1340.06 257.031C1340.64 257.459 1341.34 257.708 1342.09 257.708C1344.1 257.708 1345.73 255.913 1345.73 253.698C1345.73 251.876 1344.63 250.338 1343.12 249.85Z"/>
</mask>
<path fill-rule="evenodd" clip-rule="evenodd" d="M1343.12 249.85C1343.18 249.562 1343.21 249.264 1343.21 248.958C1343.21 246.542 1341.25 244.583 1338.83 244.583C1336.42 244.583 1334.46 246.542 1334.46 248.958C1334.46 249.689 1334.64 250.378 1334.95 250.983C1333.78 251.684 1333 252.964 1333 254.427C1333 256.642 1334.8 258.438 1337.01 258.438C1338.23 258.438 1339.32 257.892 1340.06 257.031C1340.64 257.459 1341.34 257.708 1342.09 257.708C1344.1 257.708 1345.73 255.913 1345.73 253.698C1345.73 251.876 1344.63 250.338 1343.12 249.85Z" fill="#15365D"/>
<path d="M1343.12 249.85L1342.14 249.647L1341.96 250.525L1342.81 250.801L1343.12 249.85ZM1334.95 250.983L1335.47 251.841L1336.28 251.356L1335.84 250.52L1334.95 250.983ZM1340.06 257.031L1340.65 256.227L1339.9 255.674L1339.3 256.382L1340.06 257.031ZM1344.1 250.052C1344.17 249.698 1344.21 249.332 1344.21 248.958H1342.21C1342.21 249.195 1342.18 249.425 1342.14 249.647L1344.1 250.052ZM1344.21 248.958C1344.21 245.99 1341.8 243.583 1338.83 243.583V245.583C1340.7 245.583 1342.21 247.094 1342.21 248.958H1344.21ZM1338.83 243.583C1335.86 243.583 1333.46 245.99 1333.46 248.958H1335.46C1335.46 247.094 1336.97 245.583 1338.83 245.583V243.583ZM1333.46 248.958C1333.46 249.854 1333.68 250.702 1334.07 251.447L1335.84 250.52C1335.6 250.054 1335.46 249.524 1335.46 248.958H1333.46ZM1334.44 250.125C1332.98 250.999 1332 252.598 1332 254.427H1334C1334 253.33 1334.59 252.369 1335.47 251.841L1334.44 250.125ZM1332 254.427C1332 257.194 1334.24 259.438 1337.01 259.438V257.438C1335.35 257.438 1334 256.09 1334 254.427H1332ZM1337.01 259.438C1338.54 259.438 1339.9 258.755 1340.82 257.681L1339.3 256.382C1338.75 257.029 1337.93 257.438 1337.01 257.438V259.438ZM1342.09 256.708C1341.56 256.708 1341.07 256.536 1340.65 256.227L1339.47 257.836C1340.21 258.382 1341.11 258.708 1342.09 258.708V256.708ZM1344.73 253.698C1344.73 255.452 1343.46 256.708 1342.09 256.708V258.708C1344.74 258.708 1346.73 256.373 1346.73 253.698H1344.73ZM1342.81 250.801C1343.87 251.144 1344.73 252.269 1344.73 253.698H1346.73C1346.73 251.484 1345.39 249.533 1343.43 248.898L1342.81 250.801Z" fill="#B9C2D7" mask="url(#path-865-inside-10)"/>
<path d="M1340.29 256.979L1340.29 265" stroke="#B9C2D7" stroke-linecap="round"/>
<mask id="path-868-inside-11" fill="white">
<path fill-rule="evenodd" clip-rule="evenodd" d="M999.153 253.141C998.023 254.146 996.534 254.756 994.902 254.756C991.366 254.756 988.5 251.89 988.5 248.354C988.5 245.982 989.789 243.912 991.705 242.806C990.762 241.481 990.207 239.86 990.207 238.11C990.207 233.631 993.838 230 998.317 230C1001.62 230 1004.47 231.978 1005.73 234.816C1006.31 234.468 1006.98 234.268 1007.71 234.268C1009.83 234.268 1011.55 235.988 1011.55 238.11C1011.55 239.673 1010.62 241.018 1009.28 241.618C1010.68 243.01 1011.55 244.94 1011.55 247.073C1011.55 251.316 1008.11 254.756 1003.87 254.756C1002.09 254.756 1000.45 254.153 999.153 253.141Z"/>
</mask>
<path fill-rule="evenodd" clip-rule="evenodd" d="M999.153 253.141C998.023 254.146 996.534 254.756 994.902 254.756C991.366 254.756 988.5 251.89 988.5 248.354C988.5 245.982 989.789 243.912 991.705 242.806C990.762 241.481 990.207 239.86 990.207 238.11C990.207 233.631 993.838 230 998.317 230C1001.62 230 1004.47 231.978 1005.73 234.816C1006.31 234.468 1006.98 234.268 1007.71 234.268C1009.83 234.268 1011.55 235.988 1011.55 238.11C1011.55 239.673 1010.62 241.018 1009.28 241.618C1010.68 243.01 1011.55 244.94 1011.55 247.073C1011.55 251.316 1008.11 254.756 1003.87 254.756C1002.09 254.756 1000.45 254.153 999.153 253.141Z" fill="#15365D"/>
<path d="M999.153 253.141L999.767 252.352L999.111 251.842L998.489 252.394L999.153 253.141ZM991.705 242.806L992.205 243.672L993.157 243.122L992.519 242.226L991.705 242.806ZM1005.73 234.816L1004.82 235.222L1005.28 236.256L1006.25 235.673L1005.73 234.816ZM1009.28 241.618L1008.87 240.705L1007.54 241.301L1008.57 242.328L1009.28 241.618ZM998.489 252.394C997.534 253.242 996.28 253.756 994.902 253.756V255.756C996.788 255.756 998.511 255.05 999.817 253.889L998.489 252.394ZM994.902 253.756C991.919 253.756 989.5 251.337 989.5 248.354H987.5C987.5 252.442 990.814 255.756 994.902 255.756V253.756ZM989.5 248.354C989.5 246.354 990.586 244.607 992.205 243.672L991.204 241.94C988.992 243.218 987.5 245.611 987.5 248.354H989.5ZM992.519 242.226C991.693 241.065 991.207 239.645 991.207 238.11H989.207C989.207 240.074 989.83 241.897 990.89 243.386L992.519 242.226ZM991.207 238.11C991.207 234.183 994.39 231 998.317 231V229C993.286 229 989.207 233.079 989.207 238.11H991.207ZM998.317 231C1001.21 231 1003.71 232.733 1004.82 235.222L1006.64 234.409C1005.23 231.224 1002.03 229 998.317 229V231ZM1006.25 235.673C1006.67 235.416 1007.17 235.268 1007.71 235.268V233.268C1006.8 233.268 1005.94 233.52 1005.21 233.959L1006.25 235.673ZM1007.71 235.268C1009.28 235.268 1010.55 236.54 1010.55 238.11H1012.55C1012.55 235.436 1010.38 233.268 1007.71 233.268V235.268ZM1010.55 238.11C1010.55 239.264 1009.86 240.26 1008.87 240.705L1009.68 242.53C1011.37 241.775 1012.55 240.081 1012.55 238.11H1010.55ZM1008.57 242.328C1009.79 243.54 1010.55 245.217 1010.55 247.073H1012.55C1012.55 244.662 1011.57 242.48 1009.98 240.908L1008.57 242.328ZM1010.55 247.073C1010.55 250.764 1007.56 253.756 1003.87 253.756V255.756C1008.66 255.756 1012.55 251.869 1012.55 247.073H1010.55ZM1003.87 253.756C1002.32 253.756 1000.9 253.232 999.767 252.352L998.539 253.931C1000.01 255.074 1001.86 255.756 1003.87 255.756V253.756Z" fill="#B9C2D7" mask="url(#path-868-inside-11)"/>
<path d="M999.438 253.333L999.438 265" stroke="#B9C2D7" stroke-linecap="round"/>
<mask id="path-871-inside-12" fill="white">
<path fill-rule="evenodd" clip-rule="evenodd" d="M1024.12 249.85C1024.18 249.562 1024.21 249.264 1024.21 248.958C1024.21 246.542 1022.25 244.583 1019.83 244.583C1017.42 244.583 1015.46 246.542 1015.46 248.958C1015.46 249.689 1015.64 250.378 1015.95 250.983C1014.78 251.684 1014 252.964 1014 254.427C1014 256.642 1015.8 258.438 1018.01 258.438C1019.23 258.438 1020.32 257.892 1021.06 257.031C1021.64 257.459 1022.34 257.708 1023.09 257.708C1025.1 257.708 1026.73 255.913 1026.73 253.698C1026.73 251.876 1025.63 250.338 1024.12 249.85Z"/>
</mask>
<path fill-rule="evenodd" clip-rule="evenodd" d="M1024.12 249.85C1024.18 249.562 1024.21 249.264 1024.21 248.958C1024.21 246.542 1022.25 244.583 1019.83 244.583C1017.42 244.583 1015.46 246.542 1015.46 248.958C1015.46 249.689 1015.64 250.378 1015.95 250.983C1014.78 251.684 1014 252.964 1014 254.427C1014 256.642 1015.8 258.438 1018.01 258.438C1019.23 258.438 1020.32 257.892 1021.06 257.031C1021.64 257.459 1022.34 257.708 1023.09 257.708C1025.1 257.708 1026.73 255.913 1026.73 253.698C1026.73 251.876 1025.63 250.338 1024.12 249.85Z" fill="#15365D"/>
<path d="M1024.12 249.85L1023.14 249.647L1022.96 250.525L1023.81 250.801L1024.12 249.85ZM1015.95 250.983L1016.47 251.841L1017.28 251.356L1016.84 250.52L1015.95 250.983ZM1021.06 257.031L1021.65 256.227L1020.9 255.674L1020.3 256.382L1021.06 257.031ZM1025.1 250.052C1025.17 249.698 1025.21 249.332 1025.21 248.958H1023.21C1023.21 249.195 1023.18 249.425 1023.14 249.647L1025.1 250.052ZM1025.21 248.958C1025.21 245.99 1022.8 243.583 1019.83 243.583V245.583C1021.7 245.583 1023.21 247.094 1023.21 248.958H1025.21ZM1019.83 243.583C1016.86 243.583 1014.46 245.99 1014.46 248.958H1016.46C1016.46 247.094 1017.97 245.583 1019.83 245.583V243.583ZM1014.46 248.958C1014.46 249.854 1014.68 250.702 1015.07 251.447L1016.84 250.52C1016.6 250.054 1016.46 249.524 1016.46 248.958H1014.46ZM1015.44 250.125C1013.98 250.999 1013 252.598 1013 254.427H1015C1015 253.33 1015.59 252.369 1016.47 251.841L1015.44 250.125ZM1013 254.427C1013 257.194 1015.24 259.438 1018.01 259.438V257.438C1016.35 257.438 1015 256.09 1015 254.427H1013ZM1018.01 259.438C1019.54 259.438 1020.9 258.755 1021.82 257.681L1020.3 256.382C1019.75 257.029 1018.93 257.438 1018.01 257.438V259.438ZM1023.09 256.708C1022.56 256.708 1022.07 256.536 1021.65 256.227L1020.47 257.836C1021.21 258.382 1022.11 258.708 1023.09 258.708V256.708ZM1025.73 253.698C1025.73 255.452 1024.46 256.708 1023.09 256.708V258.708C1025.74 258.708 1027.73 256.373 1027.73 253.698H1025.73ZM1023.81 250.801C1024.87 251.144 1025.73 252.269 1025.73 253.698H1027.73C1027.73 251.484 1026.39 249.533 1024.43 248.898L1023.81 250.801Z" fill="#B9C2D7" mask="url(#path-871-inside-12)"/>
<path d="M1021.29 256.979L1021.29 265" stroke="#B9C2D7" stroke-linecap="round"/>
<circle cx="663.454" cy="258.424" r="5.45444" fill="#15365D" stroke="#B9C2D7"/>
<circle cx="663.454" cy="258.424" r="1.03192" fill="#15365D" stroke="#B9C2D7"/>
<circle cx="682.619" cy="258.424" r="5.45444" transform="rotate(-175.153 682.619 258.424)" fill="#15365D" stroke="#B9C2D7"/>
<circle cx="682.619" cy="258.424" r="1.03192" transform="rotate(-175.153 682.619 258.424)" fill="#15365D" stroke="#B9C2D7"/>
<path d="M674.511 244.509C674.235 244.509 674.011 244.733 674.011 245.009C674.011 245.285 674.235 245.509 674.511 245.509V244.509ZM678.196 246.336L677.73 246.516V246.516L678.196 246.336ZM663.454 258.424L663.02 258.176C662.932 258.331 662.933 258.521 663.022 258.675C663.111 258.829 663.276 258.924 663.454 258.924V258.424ZM672.594 258.424V258.924H672.827L672.977 258.746L672.594 258.424ZM682.151 258.601C682.248 258.859 682.537 258.99 682.795 258.892C683.053 258.795 683.184 258.506 683.087 258.248L682.151 258.601ZM668.606 250.417C668.743 250.177 668.66 249.872 668.42 249.735C668.18 249.598 667.875 249.681 667.738 249.921L668.606 250.417ZM674.511 245.509C675.074 245.509 675.768 245.461 676.424 245.589C677.061 245.713 677.523 245.978 677.73 246.516L678.663 246.157C678.28 245.161 677.415 244.763 676.615 244.607C675.834 244.455 674.979 244.509 674.511 244.509V245.509ZM663.454 258.924H672.594V257.924H663.454V258.924ZM677.73 246.516C677.839 246.801 677.998 247.298 678.221 247.973C678.442 248.638 678.718 249.454 679.055 250.346L679.991 249.992C679.66 249.119 679.389 248.318 679.171 247.659C678.956 247.009 678.784 246.472 678.663 246.157L677.73 246.516ZM679.055 250.346C680.092 253.086 681.371 256.532 682.151 258.601L683.087 258.248C682.312 256.194 681.025 252.727 679.991 249.992L679.055 250.346ZM672.977 258.746L679.906 250.49L679.14 249.847L672.211 258.103L672.977 258.746ZM667.738 249.921L663.02 258.176L663.889 258.672L668.606 250.417L667.738 249.921Z" fill="#B9C2D7"/>
<path d="M672.594 258.424L666.698 247.958" stroke="#B9C2D7"/>
<path d="M668.024 250.169H679.376" stroke="#B9C2D7"/>
<path d="M664.145 246.786C663.905 246.649 663.6 246.733 663.463 246.972C663.326 247.212 663.409 247.518 663.649 247.655L664.145 246.786ZM669.651 247.621C669.872 247.455 669.917 247.141 669.751 246.921C669.585 246.7 669.272 246.655 669.051 246.821L669.651 247.621ZM663.649 247.655C664.217 247.98 665.176 248.359 666.252 248.47C667.332 248.581 668.577 248.426 669.651 247.621L669.051 246.821C668.239 247.43 667.272 247.57 666.355 247.475C665.433 247.38 664.608 247.051 664.145 246.786L663.649 247.655Z" fill="#B9C2D7"/>
<path d="M731 258V265" stroke="#B9C2D7"/>
<path d="M764 258V265" stroke="#B9C2D7"/>
<path d="M743 249H729" stroke="#B9C2D7" stroke-linecap="round" stroke-linejoin="round"/>
<path d="M766 244H757" stroke="#B9C2D7" stroke-linecap="round" stroke-linejoin="round"/>
<path d="M766 248H761" stroke="#B9C2D7" stroke-linecap="round" stroke-linejoin="round"/>
<rect x="727" y="254" width="41" height="4" rx="2" fill="#15365D" stroke="#B9C2D7"/>
<rect x="729" y="241" width="37" height="13" rx="2" fill="#15365D" stroke="#B9C2D7"/>
</svg>
