<svg width="64" height="64" viewBox="0 0 64 64" fill="none" xmlns="http://www.w3.org/2000/svg">
<g clip-path="url(#clip0)">
<path d="M25.5 10C25.7761 10 26 10.2239 26 10.5C26 10.7761 25.7761 11 25.5 11C25.2239 11 25 10.7761 25 10.5C25 10.2239 25.2239 10 25.5 10Z" fill="#2D4C70"/>
<path d="M17.5 39C17.7761 39 18 39.2239 18 39.5C18 39.7761 17.7761 40 17.5 40C17.2239 40 17 39.7761 17 39.5C17 39.2239 17.2239 39 17.5 39Z" fill="#2F4C6D"/>
<path d="M56.5 54.8735C56.7761 54.8735 57 55.0974 57 55.3735C57 55.6497 56.7761 55.8735 56.5 55.8735C56.2239 55.8735 56 55.6497 56 55.3735C56 55.0974 56.2239 54.8735 56.5 54.8735Z" fill="#2D4C70"/>
<path d="M45.5 23C45.7761 23 46 23.2239 46 23.5C46 23.7761 45.7761 24 45.5 24C45.2239 24 45 23.7761 45 23.5C45 23.2239 45.2239 23 45.5 23Z" fill="#1F4674"/>
<path d="M64 42C64.5523 42 65 42.4477 65 43C65 43.5523 64.5523 44 64 44C63.4477 44 63 43.5523 63 43C63 42.4477 63.4477 42 64 42Z" fill="#213E60"/>
<path d="M0 42C0.552285 42 1 42.4477 1 43C1 43.5523 0.552285 44 0 44C-0.552285 44 -1 43.5523 -1 43C-1 42.4477 -0.552285 42 0 42Z" fill="#213E60"/>
<path d="M36.5 57C36.7761 57 37 57.2239 37 57.5C37 57.7761 36.7761 58 36.5 58C36.2239 58 36 57.7761 36 57.5C36 57.2239 36.2239 57 36.5 57Z" fill="#255083"/>
</g>
<defs>
<clipPath id="clip0">
<rect width="64" height="64" fill="white"/>
</clipPath>
</defs>
</svg>
