<svg width="1400" height="313" viewBox="0 0 1400 313" fill="none" xmlns="http://www.w3.org/2000/svg">
<path d="M703.381 189.642H701.122V133.814H684.901V166.994H668.017V155.67H651.796V116.375H620.126V99.7279H573.78V114.11H552.483V94.5188H532.621V48.4291H524.565L497.31 67.3406V86.2521H480.426V105.164H462.771V50.0145H453.943V40.9551H447.322V49.2218H438.494V133.814H413.445V97.5763H385.528V117.167H349.444V82.4018H342.051V74.8146H322.188V81.6091H316.34V114.11H306.96V76.8529C306.519 42.767 302.215 -2.07702 282.573 0.0745884C266.683 1.88647 263.483 44.5788 263.263 76.8529V112.638H251.676V73.3424H205.33V111.845H177.412V129.964H168.584V51.4866H160.419V30.3103H157.439V51.4866H147.839V130.756H122.128V111.845H102.265V102.785H75.782V112.638H47.8641V161.672H31.643V236.412H0V313H737.205H1400L1399.94 215.643H1382.67V190.843H1370.86V135.014H1354.64V168.194H1337.75V156.87H1321.53V117.575H1289.86V100.928H1243.52V115.31H1222.22V95.7192H1202.36V68.541H1167.05V87.4525H1150.16V106.364H1132.51V51.2149H1123.68V42.1555H1117.06V50.4222H1108.23V135.014H1083.18V98.7767H1055.27V118.368H1019.18V83.6022H1011.79V76.015H991.926V82.8095H986.077V115.31H976.698V91.4832H933V113.838H921.414V74.5428H875.068V113.045H847.15V131.164H845.322V40.6871H837.156V19.5107H834.177V40.6871H824.577V131.957H791.866V113.045H772.003V103.986H745.52V113.838H717.602V162.872H703.381V189.642Z" fill="#224165"/>
</svg>
