<svg width="1400" height="413" viewBox="0 0 1400 413" fill="none" xmlns="http://www.w3.org/2000/svg">
<path d="M0 356H1400V413H0V356Z" fill="#162B44"/>
<path fill-rule="evenodd" clip-rule="evenodd" d="M1120.96 122.908V113.25H1121.96V122.908H1124.45V123.908H1121.96V128.188H1120.96V123.908H1118.47V122.908H1120.96Z" fill="#162B44"/>
<path d="M375.602 243.204C376.458 246.689 379.491 249.293 383.185 249.293C387.501 249.293 391 245.688 391 241.241C391 236.794 387.501 233.188 383.185 233.188C379.763 233.188 376.886 235.472 375.797 238.597L373.892 237.715C373.542 229.662 371.986 221.93 369.381 214.719L370.586 213.397C372.647 216.321 376.458 217.483 379.841 216.041C383.807 214.358 385.712 209.631 384.079 205.544C382.446 201.458 377.858 199.495 373.892 201.178C370.742 202.54 368.915 205.745 369.109 209.07L367.087 209.03C363.821 201.859 359.505 195.288 354.333 189.559L354.956 187.837C357.95 189.719 361.916 189.319 364.482 186.635C367.515 183.51 367.515 178.422 364.482 175.257C361.449 172.132 356.511 172.132 353.439 175.257C351.028 177.741 350.523 181.466 351.962 184.471L350.095 185.192C344.457 179.904 338.041 175.497 331.043 172.172L331.004 170.409C334.464 170.97 337.964 169.047 339.363 165.561C340.997 161.475 339.13 156.747 335.125 155.065C331.159 153.382 326.571 155.305 324.938 159.432C323.616 162.677 324.549 166.323 326.96 168.526L325.56 169.888C318.483 167.244 310.94 165.682 303.086 165.401L302.386 163.799C305.769 162.917 308.296 159.792 308.296 155.986C308.296 151.539 304.797 147.934 300.481 147.934C296.165 147.934 292.665 151.539 292.665 155.986C292.665 159.512 294.881 162.477 297.914 163.598L297.137 165.401C289.282 165.762 281.739 167.404 274.701 170.129L273.457 168.927C276.295 166.803 277.423 162.877 276.023 159.392C274.39 155.305 269.802 153.342 265.836 155.025C261.87 156.707 259.965 161.435 261.598 165.521C262.92 168.766 266.03 170.649 269.258 170.449L269.219 172.452C262.259 175.818 255.882 180.305 250.322 185.673L248.65 185.032C250.477 181.947 250.088 177.861 247.483 175.217C244.45 172.092 239.512 172.092 236.44 175.217C233.408 178.342 233.408 183.43 236.44 186.595C238.851 189.078 242.467 189.599 245.383 188.117L246.122 190.08C240.99 195.889 236.751 202.5 233.563 209.711L231.774 209.751C232.319 206.185 230.452 202.58 227.07 201.137C223.104 199.455 218.515 201.378 216.882 205.504C215.249 209.591 217.116 214.318 221.121 216.001C224.27 217.363 227.808 216.402 229.947 213.918L231.347 215.44C228.819 222.691 227.342 230.424 227.07 238.476L225.398 239.238C224.542 235.752 221.509 233.148 217.815 233.148C213.499 233.148 210 236.754 210 241.201C210 245.648 213.499 249.253 217.815 249.253C221.237 249.253 224.114 246.97 225.203 243.845L227.108 244.726C227.497 252.739 229.053 260.471 231.697 267.642L230.414 269.045C228.353 266.12 224.542 264.958 221.159 266.4C217.193 268.083 215.288 272.811 216.921 276.897C218.554 280.983 223.142 282.947 227.108 281.264C230.258 279.902 232.085 276.697 231.891 273.371L234.03 273.452C237.296 280.543 241.612 287.033 246.744 292.722L246.044 294.645C243.05 292.762 239.084 293.163 236.518 295.847C233.485 298.972 233.485 304.06 236.518 307.225C239.551 310.35 244.489 310.35 247.561 307.225C249.972 304.741 250.477 301.015 249.038 298.01L251.138 297.209C256.698 302.417 263.036 306.744 269.957 310.029L269.996 312.072C266.536 311.512 263.036 313.435 261.637 316.92C260.237 320.446 261.442 324.412 264.319 326.535L247.115 356.968L249.604 358.049L266.769 327.737C270.502 328.819 274.546 326.856 276.062 323.09C277.384 319.845 276.451 316.199 274.04 313.995L275.673 312.433C282.633 315.037 290.099 316.56 297.837 316.84L298.653 318.723C295.27 319.604 292.743 322.729 292.743 326.535C292.743 330.982 296.242 334.588 300.558 334.588C304.874 334.588 308.374 330.982 308.374 326.535C308.374 323.01 306.157 320.045 303.125 318.923L304.058 316.8C311.795 316.439 319.222 314.797 326.182 312.153L327.621 313.555C324.782 315.678 323.655 319.604 325.055 323.09C326.571 326.896 330.615 328.859 334.386 327.737L352.513 357.969L354.963 356.927L336.758 326.535C339.675 324.412 340.88 320.446 339.441 316.92C338.119 313.675 335.009 311.792 331.781 311.992L331.859 309.709C338.741 306.383 345.04 301.936 350.562 296.688L352.428 297.409C350.601 300.494 350.989 304.581 353.595 307.225C356.628 310.35 361.566 310.35 364.637 307.225C367.67 304.1 367.67 299.012 364.637 295.847C362.227 293.363 358.611 292.842 355.694 294.324L354.917 292.201C360.01 286.472 364.249 279.942 367.437 272.77L369.342 272.73C368.798 276.296 370.664 279.902 374.047 281.344C378.013 283.027 382.601 281.104 384.234 276.977C385.867 272.891 384.001 268.163 379.996 266.481C376.847 265.118 373.308 266.08 371.17 268.564L369.692 266.961C372.22 259.75 373.736 252.018 374.047 244.005L375.602 243.204ZM375.602 239.398C375.447 239.999 375.369 240.6 375.369 241.281C375.369 241.681 375.408 242.042 375.447 242.443L373.93 243.124C373.93 242.483 373.969 241.802 373.969 241.161C373.969 240.319 373.969 239.478 373.93 238.677L375.602 239.398ZM302.969 237.595C302.93 237.555 302.852 237.515 302.814 237.475L326.338 178.902C333.842 182.228 340.647 186.955 346.401 192.804L302.969 237.595ZM301.453 236.874C301.375 236.874 301.336 236.834 301.258 236.834V173.454C309.618 173.534 317.628 175.257 324.977 178.342L301.453 236.874ZM299.742 236.834C299.664 236.834 299.625 236.874 299.547 236.874L276.023 178.342C283.372 175.297 291.382 173.574 299.742 173.454V236.834ZM298.148 237.475C298.109 237.515 298.031 237.555 297.992 237.595L254.56 192.804C260.314 186.995 267.119 182.228 274.623 178.902L298.148 237.475ZM296.942 238.717C296.903 238.757 296.864 238.837 296.864 238.877L240.056 214.639C243.284 206.907 247.833 199.896 253.471 193.926L296.942 238.717ZM296.32 240.319C296.32 240.359 296.32 240.439 296.281 240.48H234.807C234.885 231.866 236.518 223.613 239.473 216.081L296.32 240.319ZM296.359 242.042C296.359 242.082 296.398 242.122 296.398 242.162L239.59 266.4C236.635 258.869 234.963 250.616 234.846 242.042H296.359ZM297.02 243.604C297.059 243.645 297.059 243.685 297.098 243.685L253.627 288.475C247.989 282.546 243.4 275.575 240.173 267.843L297.02 243.604ZM296.515 246.449L273.807 302.938C266.691 299.653 260.198 295.086 254.676 289.557L296.515 246.449ZM299.742 245.728V308.787C291.46 308.707 283.566 307.024 276.295 304.02L299.742 245.728ZM301.258 245.608L324.744 304.02C317.472 307.024 309.54 308.707 301.258 308.787V245.608ZM304.486 246.449L346.324 289.557C340.802 295.086 334.348 299.653 327.193 302.938L304.486 246.449ZM303.902 243.685C303.941 243.645 303.941 243.604 303.98 243.604L360.827 267.843C357.6 275.575 353.011 282.546 347.373 288.475L303.902 243.685ZM304.602 242.162C304.602 242.122 304.641 242.082 304.641 242.042H366.154C366.037 250.656 364.365 258.869 361.41 266.4L304.602 242.162ZM304.68 240.48C304.68 240.439 304.68 240.359 304.641 240.319L361.488 216.041C364.443 223.613 366.076 231.826 366.154 240.439H304.68V240.48ZM304.136 238.877C304.097 238.837 304.058 238.757 304.058 238.717L347.529 193.926C353.167 199.896 357.716 206.867 360.943 214.639L304.136 238.877ZM348.579 192.804L350.873 190.441C356.939 196.851 361.877 204.383 365.337 212.756L362.304 214.038C359.038 206.105 354.333 198.934 348.579 192.804ZM347.529 191.723C341.619 185.753 334.659 180.906 326.96 177.5L328.204 174.375C336.292 177.941 343.641 183.069 349.823 189.319L347.529 191.723ZM325.56 176.899C318.017 173.774 309.851 172.012 301.258 171.891V168.526C310.279 168.606 318.911 170.489 326.804 173.774L325.56 176.899ZM299.742 171.891C291.149 171.971 282.983 173.734 275.44 176.899L274.196 173.774C282.128 170.489 290.721 168.646 299.742 168.526V171.891ZM272.796 174.375L274.04 177.5C266.341 180.906 259.381 185.753 253.471 191.723L251.177 189.359C257.359 183.069 264.708 177.941 272.796 174.375ZM250.088 190.441L252.382 192.804C246.628 198.894 241.923 206.065 238.618 213.998L235.585 212.716C239.084 204.383 244.023 196.851 250.088 190.441ZM235.079 214.198L238.112 215.48C235.118 223.212 233.408 231.666 233.33 240.48H230.064C230.141 231.185 231.891 222.331 235.079 214.198ZM233.33 242.042C233.446 250.856 235.157 259.269 238.19 267.001L235.157 268.283C231.969 260.151 230.141 251.297 230.025 242.002H233.33V242.042ZM238.773 268.444C242.078 276.336 246.783 283.507 252.538 289.557L250.244 291.921C244.178 285.551 239.24 278.019 235.74 269.726L238.773 268.444ZM253.627 290.679C259.304 296.368 265.914 301.055 273.224 304.42L271.979 307.545C264.281 304.02 257.282 299.092 251.294 293.083L253.627 290.679ZM275.712 305.462C283.178 308.507 291.265 310.23 299.742 310.35V313.715C290.838 313.635 282.283 311.792 274.468 308.587L275.712 305.462ZM301.258 310.35C309.735 310.27 317.861 308.547 325.327 305.462L326.571 308.587C318.717 311.832 310.201 313.635 301.258 313.715V310.35ZM327.776 304.38C335.086 301.015 341.735 296.328 347.373 290.639L349.667 293.002C343.718 299.012 336.719 303.94 328.982 307.465L327.776 304.38ZM350.756 291.961L348.462 289.597C354.217 283.547 358.922 276.376 362.227 268.484L365.26 269.766C361.76 278.059 356.822 285.591 350.756 291.961ZM365.843 268.283L362.81 267.001C365.843 259.269 367.554 250.856 367.67 242.042H370.936C370.82 251.297 369.031 260.191 365.843 268.283ZM367.67 240.48C367.592 231.666 365.921 223.212 362.888 215.48L365.921 214.198C369.109 222.331 370.859 231.225 370.936 240.52H367.67V240.48ZM369.187 209.911C369.264 210.512 369.42 211.113 369.692 211.714C369.848 212.075 370.003 212.395 370.198 212.756L369.109 213.958C368.603 212.596 368.059 211.233 367.437 209.871L369.187 209.911ZM352.311 185.232C352.623 185.753 353.011 186.274 353.439 186.715C353.711 186.995 353.983 187.236 354.295 187.476L353.75 188.998C352.778 187.917 351.767 186.915 350.717 185.873L352.311 185.232ZM327.543 169.087C328.01 169.448 328.554 169.768 329.137 170.008C329.487 170.169 329.837 170.289 330.187 170.369L330.226 171.931C328.943 171.331 327.621 170.81 326.299 170.289L327.543 169.087ZM298.692 163.879C299.275 164.039 299.858 164.119 300.519 164.119C300.908 164.119 301.258 164.079 301.647 164.039L302.269 165.441C301.686 165.441 301.103 165.401 300.558 165.401C299.742 165.401 298.886 165.401 298.07 165.441L298.692 163.879ZM270.074 170.489C270.657 170.409 271.241 170.249 271.824 169.968C272.174 169.808 272.485 169.648 272.835 169.448L273.924 170.529C272.602 171.05 271.318 171.611 270.035 172.212L270.074 170.489ZM246.122 187.877C246.628 187.556 247.133 187.155 247.561 186.715C247.833 186.434 248.066 186.154 248.3 185.833L249.777 186.394C248.727 187.396 247.755 188.478 246.783 189.559L246.122 187.877ZM230.414 213.357C230.763 212.876 231.075 212.315 231.308 211.714C231.463 211.354 231.58 210.993 231.658 210.632L233.252 210.592C232.669 211.955 232.124 213.317 231.619 214.679L230.414 213.357ZM225.398 243.124C225.553 242.523 225.631 241.922 225.631 241.241C225.631 240.84 225.592 240.48 225.553 240.079L227.07 239.398C227.07 239.959 227.031 240.52 227.031 241.08C227.031 242.002 227.07 242.923 227.07 243.845L225.398 243.124ZM231.813 272.61C231.736 272.009 231.58 271.408 231.308 270.807C231.152 270.447 230.997 270.126 230.802 269.766L231.969 268.484C232.513 269.886 233.058 271.288 233.68 272.65L231.813 272.61ZM248.689 297.289C248.377 296.768 247.989 296.247 247.561 295.807C247.289 295.526 247.017 295.286 246.705 295.046L247.328 293.323C248.339 294.445 249.427 295.486 250.516 296.528L248.689 297.289ZM270.735 310.35C270.774 310.35 270.774 310.39 270.813 310.39L270.735 310.59V310.35ZM273.418 313.475C273.185 313.314 272.951 313.154 272.679 312.994L273.301 311.472C273.807 311.672 274.312 311.872 274.857 312.072L273.418 313.475ZM302.308 318.643C301.725 318.483 301.142 318.402 300.481 318.402C300.092 318.402 299.742 318.442 299.353 318.483L298.614 316.8C299.236 316.8 299.858 316.84 300.481 316.84C301.375 316.84 302.23 316.8 303.086 316.8L302.308 318.643ZM328.165 313.074L326.882 311.792C327.154 311.672 327.465 311.552 327.737 311.431L328.36 312.954C328.282 312.994 328.204 313.034 328.165 313.074ZM330.887 312.032C330.848 312.032 330.848 312.032 330.809 312.032L330.148 310.35C330.42 310.23 330.693 310.109 330.926 309.989L330.887 312.032ZM354.878 294.645C354.372 294.965 353.867 295.366 353.439 295.807C353.167 296.087 352.934 296.368 352.7 296.688L351.028 296.047C352.117 295.006 353.167 293.884 354.178 292.802L354.878 294.645ZM370.548 269.165C370.198 269.646 369.887 270.206 369.653 270.807C369.498 271.168 369.381 271.529 369.303 271.889L367.592 271.929C368.176 270.567 368.759 269.165 369.264 267.763L370.548 269.165Z" fill="#162B44"/>
<path d="M1169 222V227.978L1176.75 229.26L1174.81 357H1387L1356.96 345.868L1357.45 267.014C1362.87 264.69 1373.44 259.915 1377.8 257.817V251.041C1354.06 260.721 1340.01 264.11 1328.87 267.014C1317.72 269.918 1267.34 279.598 1250.39 282.502C1233.43 285.406 1221.32 288.311 1211.15 292.667C1201.94 297.023 1198.23 305.735 1198.07 310.091C1197.29 303.121 1198.07 299.927 1200 296.539C1204.36 290.247 1211.15 287.342 1229.56 282.502C1245.01 278.439 1264.11 274.758 1271.7 273.306C1298.83 269.434 1322.57 261.689 1348.24 252.977C1312.4 254.913 1276.06 246.201 1256.2 241.361C1236.34 236.521 1203.4 227.324 1191.77 224.904C1182.47 222.968 1172.71 222.161 1169 222Z" fill="#162B44"/>
<path d="M757.118 224.974H758.649H759.669V225.994L759.159 226.504L757.118 233.647L754.057 245.892L753.547 248.443V251.504V254.565L757.118 331.094L882.116 333.135V339.257H757.118V372.849H745.384L747.5 254.5L750.485 245.892L757.118 224.974Z" fill="#162B44"/>
<path d="M539 328.573C578.067 322.32 670.164 313.922 753.278 326.587C753.551 326.629 753.806 326.441 753.847 326.168C753.889 325.895 753.701 325.64 753.428 325.599C670.292 312.93 578.224 321.299 539 327.56V328.573Z" fill="#162B44"/>
<path fill-rule="evenodd" clip-rule="evenodd" d="M753.5 247L814.156 331.824L813.343 332.406L752.687 247.582L753.5 247Z" fill="#162B44"/>
<path fill-rule="evenodd" clip-rule="evenodd" d="M602.601 325.723C602.468 325.48 602.557 325.176 602.799 325.044L750.755 243.923C750.997 243.79 751.301 243.879 751.434 244.121C751.567 244.363 751.478 244.667 751.236 244.8L603.28 325.921C603.038 326.053 602.734 325.965 602.601 325.723Z" fill="#162B44"/>
<path fill-rule="evenodd" clip-rule="evenodd" d="M632.724 324.737C632.571 324.507 632.635 324.197 632.865 324.045L750.21 246.495C750.44 246.343 750.75 246.406 750.903 246.637C751.055 246.867 750.991 247.177 750.761 247.329L633.416 324.879C633.186 325.031 632.876 324.968 632.724 324.737Z" fill="#162B44"/>
<path fill-rule="evenodd" clip-rule="evenodd" d="M657.314 324.585L749.149 249.586C749.363 249.411 749.678 249.443 749.852 249.657C750.027 249.871 749.995 250.186 749.781 250.361L657.946 325.359L657.314 324.585Z" fill="#162B44"/>
<path fill-rule="evenodd" clip-rule="evenodd" d="M685.872 325.859C685.664 325.678 685.643 325.362 685.824 325.154L748.068 253.726C748.249 253.518 748.565 253.497 748.773 253.678C748.981 253.859 749.003 254.175 748.822 254.383L686.578 325.811C686.397 326.019 686.081 326.041 685.872 325.859Z" fill="#162B44"/>
<path d="M526 333.135C613.753 319.258 709.16 325.652 745.894 330.584V333.645C712.425 328.339 695.555 328.713 691.303 329.564L686.881 330.54C678.757 329.506 656.314 327.523 628.549 327.523C600.386 327.523 571.237 331.264 560.183 333.135H545.898H526Z" fill="#162B44"/>
<path d="M686.881 330.54L691.303 331.094L687.221 330.584C687.111 330.57 686.997 330.555 686.881 330.54Z" fill="#162B44"/>
<path fill-rule="evenodd" clip-rule="evenodd" d="M525.844 332.147C613.722 318.25 709.231 324.653 746.027 329.593L746.894 329.709V334.816L745.737 334.633C729.031 331.984 716.482 330.756 707.59 330.294C699.192 329.859 694.116 330.111 691.884 330.475V331.653L687.096 331.576H687.093H687.092C686.994 331.563 686.894 331.55 686.791 331.537L569.862 332.703C565.972 333.225 562.737 333.717 560.35 334.121L560.267 334.135H525.538L525.387 332.219L525.844 332.147ZM578.616 331.616L670.6 330.698L628.547 328.523L594.225 330.068C588.621 330.537 583.352 331.072 578.616 331.616ZM564.838 331.39C563.932 331.524 563.082 331.654 562.292 331.778L554.486 331.856L564.838 331.39ZM576.288 329.874L547.247 331.181C627.934 321.359 710.605 326.948 744.894 331.46V332.475C728.706 329.943 716.46 328.752 707.694 328.297C698.751 327.833 693.364 328.132 691.107 328.583L691.102 328.584L691.092 328.586L691.087 328.587L686.835 329.526C678.526 328.481 656.161 326.523 628.549 326.523C609.659 326.523 590.333 328.201 576.288 329.874ZM526.54 333.135H532.61L532.605 333.075L526.54 333.135ZM686.877 330.591L686.88 330.561L686.883 330.54C686.999 330.555 687.111 330.57 687.221 330.584C688.621 330.759 689.406 330.857 690.807 331.032L689.754 330.9L689.708 329.916L686.881 330.54L686.795 330.529C686.824 330.533 686.853 330.537 686.881 330.54L686.878 330.573L686.877 330.591ZM745.345 333.558L745.894 333.645C745.71 333.616 745.527 333.587 745.345 333.558Z" fill="#162B44"/>
<path fill-rule="evenodd" clip-rule="evenodd" d="M699.1 328.575C699.242 328.617 699.357 328.721 699.415 328.857L700.741 331.95L704.258 329.171C704.364 329.088 704.499 329.05 704.633 329.068C704.766 329.085 704.887 329.156 704.968 329.264L708.207 333.589L712.391 329.707C712.51 329.597 712.674 329.551 712.833 329.584C712.991 329.617 713.124 329.724 713.189 329.873L715.422 334.948L719.496 330.256C719.616 330.119 719.801 330.057 719.979 330.095C720.157 330.134 720.3 330.266 720.353 330.441L722.171 336.504L728.218 331.228C728.343 331.119 728.513 331.079 728.673 331.121C728.834 331.163 728.963 331.281 729.018 331.437L731.665 338.864L738.401 332.268C738.507 332.164 738.653 332.113 738.8 332.127C738.947 332.142 739.08 332.221 739.164 332.343L745.796 342.036C745.853 342.119 745.884 342.218 745.884 342.319V343.849C745.884 344.01 745.806 344.161 745.676 344.255C745.546 344.349 745.378 344.374 745.225 344.323C741.017 342.921 736.266 341.549 731.329 340.251C728.196 339.427 724.988 338.632 721.799 337.878C719.571 337.351 717.352 336.843 715.174 336.359C712.729 335.816 710.335 335.302 708.037 334.822C705.332 334.258 702.759 333.741 700.391 333.28C698.355 332.884 696.471 332.529 694.784 332.221C693.468 331.98 692.272 331.768 691.218 331.587C690.946 331.54 690.763 331.282 690.81 331.01C690.857 330.737 691.115 330.555 691.388 330.602C692.392 330.774 693.525 330.975 694.767 331.201L698.682 328.635C698.805 328.554 698.959 328.532 699.1 328.575ZM696.192 331.463C697.303 331.669 698.487 331.893 699.732 332.134L698.731 329.799L696.192 331.463ZM701.65 332.507C703.33 332.838 705.104 333.195 706.947 333.575L704.475 330.274L701.65 332.507ZM709.188 334.042C710.892 334.4 712.644 334.777 714.427 335.17L712.556 330.918L709.188 334.042ZM716.21 335.566C717.852 335.934 719.516 336.314 721.187 336.706L719.656 331.598L716.21 335.566ZM722.975 337.13C725.549 337.744 728.129 338.384 730.668 339.045L728.323 332.464L722.975 337.13ZM732.435 339.509C736.827 340.677 741.061 341.902 744.884 343.157V342.473L738.675 333.399L732.435 339.509Z" fill="#162B44"/>
<path fill-rule="evenodd" clip-rule="evenodd" d="M739.25 333.164L738.74 341.838L737.742 341.779L738.252 333.106L739.25 333.164Z" fill="#162B44"/>
<path fill-rule="evenodd" clip-rule="evenodd" d="M729.043 331.16L728.022 338.813L727.031 338.681L728.052 331.028L729.043 331.16Z" fill="#162B44"/>
<path fill-rule="evenodd" clip-rule="evenodd" d="M713.223 329.653L712.203 335.265L711.219 335.086L712.239 329.474L713.223 329.653Z" fill="#162B44"/>
<path fill-rule="evenodd" clip-rule="evenodd" d="M709.648 329.672L708.627 334.264L707.651 334.047L708.672 329.455L709.648 329.672Z" fill="#162B44"/>
<path fill-rule="evenodd" clip-rule="evenodd" d="M705.064 329.626L704.554 333.707L703.562 333.583L704.072 329.502L705.064 329.626Z" fill="#162B44"/>
<path fill-rule="evenodd" clip-rule="evenodd" d="M703.638 328.944L705.622 329.192L704.988 334.265L703.004 334.017L703.638 328.944Z" fill="#162B44"/>
<path fill-rule="evenodd" clip-rule="evenodd" d="M720.359 330.705L718.828 336.828L717.858 336.585L719.389 330.463L720.359 330.705Z" fill="#162B44"/>
<path fill-rule="evenodd" clip-rule="evenodd" d="M718.773 329L720.713 329.485L718.94 336.578L717 336.092L718.773 329Z" fill="#162B44"/>
<path fill-rule="evenodd" clip-rule="evenodd" d="M733.629 331.703L732.099 339.355L731.118 339.159L732.649 331.506L733.629 331.703Z" fill="#162B44"/>
<path fill-rule="evenodd" clip-rule="evenodd" d="M724.433 330.731L722.392 337.364L721.437 337.07L723.477 330.437L724.433 330.731Z" fill="#162B44"/>
<path fill-rule="evenodd" clip-rule="evenodd" d="M716.794 330.163L715.774 335.775L714.79 335.597L715.811 329.984L716.794 330.163Z" fill="#162B44"/>
<path fill-rule="evenodd" clip-rule="evenodd" d="M532.643 332.115V328.543H533.643V332.115H532.643Z" fill="#162B44"/>
<path fill-rule="evenodd" clip-rule="evenodd" d="M532.143 328.043H534.143V332.615H532.143V328.043Z" fill="#162B44"/>
<path fill-rule="evenodd" clip-rule="evenodd" d="M536.214 331.604V328.033H537.214V331.604H536.214Z" fill="#162B44"/>
<path fill-rule="evenodd" clip-rule="evenodd" d="M535.714 327.533H537.714V332.104H535.714V327.533Z" fill="#162B44"/>
<path fill-rule="evenodd" clip-rule="evenodd" d="M539.785 331.094V327.523H540.785V331.094H539.785Z" fill="#162B44"/>
<path fill-rule="evenodd" clip-rule="evenodd" d="M539.285 327.023H541.285V331.594H539.285V327.023Z" fill="#162B44"/>
<path fill-rule="evenodd" clip-rule="evenodd" d="M543.357 330.584V327.013H544.357V330.584H543.357Z" fill="#162B44"/>
<path fill-rule="evenodd" clip-rule="evenodd" d="M542.857 326.513H544.857V331.084H542.857V326.513Z" fill="#162B44"/>
<path fill-rule="evenodd" clip-rule="evenodd" d="M546.928 330.074V326.503H547.928V330.074H546.928Z" fill="#162B44"/>
<path fill-rule="evenodd" clip-rule="evenodd" d="M546.428 326.003H548.428V330.574H546.428V326.003Z" fill="#162B44"/>
<path fill-rule="evenodd" clip-rule="evenodd" d="M550.499 329.564V325.992H551.499V329.564H550.499Z" fill="#162B44"/>
<path fill-rule="evenodd" clip-rule="evenodd" d="M549.999 325.492H551.999V330.064H549.999V325.492Z" fill="#162B44"/>
<path fill-rule="evenodd" clip-rule="evenodd" d="M554.071 329.054V325.482H555.071V329.054H554.071Z" fill="#162B44"/>
<path fill-rule="evenodd" clip-rule="evenodd" d="M553.571 324.982H555.571V329.554H553.571V324.982Z" fill="#162B44"/>
<path fill-rule="evenodd" clip-rule="evenodd" d="M557.642 328.543V324.972H558.642V328.543H557.642Z" fill="#162B44"/>
<path fill-rule="evenodd" clip-rule="evenodd" d="M561.214 328.543V324.972H562.214V328.543H561.214Z" fill="#162B44"/>
<path fill-rule="evenodd" clip-rule="evenodd" d="M564.785 328.543V324.462H565.785V328.543H564.785Z" fill="#162B44"/>
<path fill-rule="evenodd" clip-rule="evenodd" d="M568.356 328.033V323.952H569.356V328.033H568.356Z" fill="#162B44"/>
<path fill-rule="evenodd" clip-rule="evenodd" d="M571.928 327.523V323.952H572.928V327.523H571.928Z" fill="#162B44"/>
<path fill-rule="evenodd" clip-rule="evenodd" d="M575.499 327.523V323.441H576.499V327.523H575.499Z" fill="#162B44"/>
<path fill-rule="evenodd" clip-rule="evenodd" d="M579.07 327.013V322.931H580.07V327.013H579.07Z" fill="#162B44"/>
<path fill-rule="evenodd" clip-rule="evenodd" d="M582.642 326.503V322.931H583.642V326.503H582.642Z" fill="#162B44"/>
<path fill-rule="evenodd" clip-rule="evenodd" d="M586.213 322.421H587.213V326.503H586.213V322.421Z" fill="#162B44"/>
<path fill-rule="evenodd" clip-rule="evenodd" d="M589.784 326.503V321.911H590.784V326.503H589.784Z" fill="#162B44"/>
<path fill-rule="evenodd" clip-rule="evenodd" d="M593.356 325.992V321.911H594.356V325.992H593.356Z" fill="#162B44"/>
<path fill-rule="evenodd" clip-rule="evenodd" d="M596.927 325.482V321.911H597.927V325.482H596.927Z" fill="#162B44"/>
<path fill-rule="evenodd" clip-rule="evenodd" d="M600.499 325.992V320.89H601.499V325.992H600.499Z" fill="#162B44"/>
<path fill-rule="evenodd" clip-rule="evenodd" d="M604.07 325.482V321.401H605.07V325.482H604.07Z" fill="#162B44"/>
<path fill-rule="evenodd" clip-rule="evenodd" d="M607.641 324.972V320.89H608.641V324.972H607.641Z" fill="#162B44"/>
<path fill-rule="evenodd" clip-rule="evenodd" d="M611.213 325.482V320.38H612.213V325.482H611.213Z" fill="#162B44"/>
<path fill-rule="evenodd" clip-rule="evenodd" d="M614.784 324.972V320.89H615.784V324.972H614.784Z" fill="#162B44"/>
<path fill-rule="evenodd" clip-rule="evenodd" d="M618.355 325.482V320.38H619.355V325.482H618.355Z" fill="#162B44"/>
<path fill-rule="evenodd" clip-rule="evenodd" d="M621.927 324.972V319.87H622.927V324.972H621.927Z" fill="#162B44"/>
<path fill-rule="evenodd" clip-rule="evenodd" d="M625.498 324.972V320.38H626.498V324.972H625.498Z" fill="#162B44"/>
<path fill-rule="evenodd" clip-rule="evenodd" d="M629.069 324.972V319.87H630.069V324.972H629.069Z" fill="#162B44"/>
<path fill-rule="evenodd" clip-rule="evenodd" d="M632.641 324.972V320.38H633.641V324.972H632.641Z" fill="#162B44"/>
<path fill-rule="evenodd" clip-rule="evenodd" d="M636.212 324.972V319.87H637.212V324.972H636.212Z" fill="#162B44"/>
<path fill-rule="evenodd" clip-rule="evenodd" d="M639.784 323.972V319.38H640.784V323.972H639.784Z" fill="#162B44"/>
<path fill-rule="evenodd" clip-rule="evenodd" d="M643.355 324.462V319.87H644.355V324.462H643.355Z" fill="#162B44"/>
<path fill-rule="evenodd" clip-rule="evenodd" d="M646.926 323.972V319.38H647.926V323.972H646.926Z" fill="#162B44"/>
<path fill-rule="evenodd" clip-rule="evenodd" d="M650.498 324.462V319.87H651.498V324.462H650.498Z" fill="#162B44"/>
<path fill-rule="evenodd" clip-rule="evenodd" d="M654.069 323.972V319.38H655.069V323.972H654.069Z" fill="#162B44"/>
<path fill-rule="evenodd" clip-rule="evenodd" d="M657.64 324.462V319.87H658.64V324.462H657.64Z" fill="#162B44"/>
<path fill-rule="evenodd" clip-rule="evenodd" d="M661.212 323.972V319.38H662.212V323.972H661.212Z" fill="#162B44"/>
<path fill-rule="evenodd" clip-rule="evenodd" d="M664.783 324.972V319.87H665.783V324.972H664.783Z" fill="#162B44"/>
<path fill-rule="evenodd" clip-rule="evenodd" d="M668.354 323.972V319.38H669.354V323.972H668.354Z" fill="#162B44"/>
<path fill-rule="evenodd" clip-rule="evenodd" d="M671.926 324.972V319.87H672.926V324.972H671.926Z" fill="#162B44"/>
<path fill-rule="evenodd" clip-rule="evenodd" d="M675 325V319H676V325H675Z" fill="#162B44"/>
<path fill-rule="evenodd" clip-rule="evenodd" d="M679.068 324.482V319.89H680.068V324.482H679.068Z" fill="#162B44"/>
<path fill-rule="evenodd" clip-rule="evenodd" d="M682.64 325.482V320.38H683.64V325.482H682.64Z" fill="#162B44"/>
<path fill-rule="evenodd" clip-rule="evenodd" d="M686 325V320H687V325H686Z" fill="#162B44"/>
<path fill-rule="evenodd" clip-rule="evenodd" d="M690 326V320H691V326H690Z" fill="#162B44"/>
<path fill-rule="evenodd" clip-rule="evenodd" d="M693 326V320H694V326H693Z" fill="#162B44"/>
<path fill-rule="evenodd" clip-rule="evenodd" d="M697 326V321H698V326H697Z" fill="#162B44"/>
<path fill-rule="evenodd" clip-rule="evenodd" d="M700 326V321H701V326H700Z" fill="#162B44"/>
<path fill-rule="evenodd" clip-rule="evenodd" d="M704.068 326.503V321.401H705.068V326.503H704.068Z" fill="#162B44"/>
<path fill-rule="evenodd" clip-rule="evenodd" d="M708 327V321H709V327H708Z" fill="#162B44"/>
<path fill-rule="evenodd" clip-rule="evenodd" d="M711 327V321H712V327H711Z" fill="#162B44"/>
<path fill-rule="evenodd" clip-rule="evenodd" d="M715 327V322H716V327H715Z" fill="#162B44"/>
<path fill-rule="evenodd" clip-rule="evenodd" d="M718 328V322H719V328H718Z" fill="#162B44"/>
<path fill-rule="evenodd" clip-rule="evenodd" d="M722 328V322H723V328H722Z" fill="#162B44"/>
<path fill-rule="evenodd" clip-rule="evenodd" d="M725 329V323H726V329H725Z" fill="#162B44"/>
<path fill-rule="evenodd" clip-rule="evenodd" d="M729.068 328.053V322.952H730.068V328.053H729.068Z" fill="#162B44"/>
<path fill-rule="evenodd" clip-rule="evenodd" d="M732.639 328.053V323.462H733.639V328.053H732.639Z" fill="#162B44"/>
<path fill-rule="evenodd" clip-rule="evenodd" d="M736 329V324H737V329H736Z" fill="#162B44"/>
<path fill-rule="evenodd" clip-rule="evenodd" d="M740 329V324H741V329H740Z" fill="#162B44"/>
<path fill-rule="evenodd" clip-rule="evenodd" d="M743 330V325H744V330H743Z" fill="#162B44"/>
<path fill-rule="evenodd" clip-rule="evenodd" d="M267 356.359H556.79L553.729 279.381L551.688 249.789H549.648V240.096H524.138V251.83H486.384V247.749H482.302V219.178H469.547V216.627H454.752V252.851H435.364V264.075H429.242V270.197H403.732V264.075H397.61V252.851H378.222V216.627H363.427V219.178H350.672V247.749H346.59V251.83H308.836V240.096H283.326V249.789H281.285V351.768L267 356.359ZM301.693 271.218H340.468V316.115H301.693V271.218ZM531.281 271.218H492.506V316.115H531.281V271.218Z" fill="#162B44"/>
<path fill-rule="evenodd" clip-rule="evenodd" d="M150.377 324.549H158.937V335.628H150.377V324.549ZM151.377 325.549V334.628H157.937V325.549H151.377Z" fill="#162B44"/>
<path fill-rule="evenodd" clip-rule="evenodd" d="M150.702 324.58C150.96 324.483 151.249 324.614 151.346 324.873L154.157 332.37V325.049C154.157 324.772 154.381 324.549 154.657 324.549C154.933 324.549 155.157 324.772 155.157 325.049V332.37L157.969 324.873C158.066 324.614 158.354 324.483 158.612 324.58C158.871 324.677 159.002 324.966 158.905 325.224L155.125 335.303C155.052 335.498 154.866 335.628 154.657 335.628C154.449 335.628 154.262 335.498 154.189 335.303L150.409 325.224C150.312 324.966 150.443 324.677 150.702 324.58Z" fill="#162B44"/>
<path fill-rule="evenodd" clip-rule="evenodd" d="M150.378 314.47H158.937V325.549H150.378V314.47ZM151.378 315.47V324.549H157.937V315.47H151.378Z" fill="#162B44"/>
<path fill-rule="evenodd" clip-rule="evenodd" d="M150.702 314.501C150.961 314.404 151.249 314.535 151.346 314.794L154.157 322.291V314.97C154.157 314.693 154.381 314.47 154.657 314.47C154.933 314.47 155.157 314.693 155.157 314.97V322.291L157.969 314.794C158.066 314.535 158.354 314.404 158.612 314.501C158.871 314.598 159.002 314.887 158.905 315.145L155.125 325.224C155.052 325.419 154.866 325.549 154.657 325.549C154.449 325.549 154.262 325.419 154.189 325.224L150.409 315.145C150.312 314.887 150.443 314.598 150.702 314.501Z" fill="#162B44"/>
<path fill-rule="evenodd" clip-rule="evenodd" d="M162.136 324.549H170.696V335.628H162.136V324.549ZM163.136 325.549V334.628H169.696V325.549H163.136Z" fill="#162B44"/>
<path fill-rule="evenodd" clip-rule="evenodd" d="M162.461 324.58C162.719 324.483 163.008 324.614 163.104 324.873L165.916 332.37V325.049C165.916 324.772 166.14 324.549 166.416 324.549C166.692 324.549 166.916 324.772 166.916 325.049V332.37L169.727 324.873C169.824 324.614 170.113 324.483 170.371 324.58C170.63 324.677 170.761 324.966 170.664 325.224L166.884 335.303C166.811 335.498 166.624 335.628 166.416 335.628C166.208 335.628 166.021 335.498 165.948 335.303L162.168 325.224C162.071 324.966 162.202 324.677 162.461 324.58Z" fill="#162B44"/>
<path fill-rule="evenodd" clip-rule="evenodd" d="M150.377 335.001H158.937V346.08H150.377V335.001ZM151.377 336.001V345.08H157.937V336.001H151.377Z" fill="#162B44"/>
<path fill-rule="evenodd" clip-rule="evenodd" d="M150.702 335.032C150.96 334.935 151.249 335.066 151.346 335.325L154.157 342.822V335.501C154.157 335.224 154.381 335.001 154.657 335.001C154.933 335.001 155.157 335.224 155.157 335.501V342.822L157.969 335.325C158.066 335.066 158.354 334.935 158.612 335.032C158.871 335.129 159.002 335.418 158.905 335.676L155.125 345.755C155.052 345.95 154.866 346.08 154.657 346.08C154.449 346.08 154.262 345.95 154.189 345.755L150.409 335.676C150.312 335.418 150.443 335.129 150.702 335.032Z" fill="#162B44"/>
<path fill-rule="evenodd" clip-rule="evenodd" d="M162.136 335.001H170.696V346.08H162.136V335.001ZM163.136 336.001V345.08H169.696V336.001H163.136Z" fill="#162B44"/>
<path fill-rule="evenodd" clip-rule="evenodd" d="M162.461 335.032C162.719 334.935 163.008 335.066 163.104 335.325L165.916 342.822V335.501C165.916 335.224 166.14 335.001 166.416 335.001C166.692 335.001 166.916 335.224 166.916 335.501V342.822L169.727 335.325C169.824 335.066 170.113 334.935 170.371 335.032C170.63 335.129 170.761 335.418 170.664 335.676L166.884 345.755C166.811 345.95 166.624 346.08 166.416 346.08C166.208 346.08 166.021 345.95 165.948 345.755L162.168 335.676C162.071 335.418 162.202 335.129 162.461 335.032Z" fill="#162B44"/>
<path fill-rule="evenodd" clip-rule="evenodd" d="M150.377 345.453H158.937V356.532H150.377V345.453ZM151.377 346.453V355.532H157.937V346.453H151.377Z" fill="#162B44"/>
<path fill-rule="evenodd" clip-rule="evenodd" d="M150.702 345.484C150.96 345.387 151.249 345.518 151.346 345.777L154.157 353.274V345.953C154.157 345.676 154.381 345.453 154.657 345.453C154.933 345.453 155.157 345.676 155.157 345.953V353.274L157.969 345.777C158.066 345.518 158.354 345.387 158.612 345.484C158.871 345.581 159.002 345.87 158.905 346.128L155.125 356.207C155.052 356.402 154.866 356.532 154.657 356.532C154.449 356.532 154.262 356.402 154.189 356.207L150.409 346.128C150.312 345.87 150.443 345.581 150.702 345.484Z" fill="#162B44"/>
<path fill-rule="evenodd" clip-rule="evenodd" d="M162.136 345.453H170.696V356.532H162.136V345.453ZM163.136 346.453V355.532H169.696V346.453H163.136Z" fill="#162B44"/>
<path fill-rule="evenodd" clip-rule="evenodd" d="M162.461 345.484C162.719 345.387 163.008 345.518 163.104 345.777L165.916 353.274V345.953C165.916 345.676 166.14 345.453 166.416 345.453C166.692 345.453 166.916 345.676 166.916 345.953V353.274L169.727 345.777C169.824 345.518 170.113 345.387 170.371 345.484C170.63 345.581 170.761 345.87 170.664 346.128L166.884 356.207C166.811 356.402 166.624 356.532 166.416 356.532C166.208 356.532 166.021 356.402 165.948 356.207L162.168 346.128C162.071 345.87 162.202 345.581 162.461 345.484Z" fill="#162B44"/>
<path fill-rule="evenodd" clip-rule="evenodd" d="M162.136 314.47H170.696V325.549H162.136V314.47ZM163.136 315.47V324.549H169.696V315.47H163.136Z" fill="#162B44"/>
<path fill-rule="evenodd" clip-rule="evenodd" d="M162.461 314.501C162.719 314.404 163.008 314.535 163.104 314.794L165.916 322.291V314.97C165.916 314.693 166.14 314.47 166.416 314.47C166.692 314.47 166.916 314.693 166.916 314.97V322.291L169.727 314.794C169.824 314.535 170.113 314.404 170.371 314.501C170.63 314.598 170.761 314.887 170.664 315.145L166.884 325.224C166.811 325.419 166.624 325.549 166.416 325.549C166.208 325.549 166.021 325.419 165.948 325.224L162.168 315.145C162.071 314.887 162.202 314.598 162.461 314.501Z" fill="#162B44"/>
<path fill-rule="evenodd" clip-rule="evenodd" d="M124 358L150.583 298.727H170.839L197 358L170.417 281H150.583L124 358Z" fill="#162B44"/>
<path fill-rule="evenodd" clip-rule="evenodd" d="M150.377 269.954H158.937V281.033H150.377V269.954ZM151.377 270.954V280.033H157.937V270.954H151.377Z" fill="#162B44"/>
<path fill-rule="evenodd" clip-rule="evenodd" d="M150.702 269.986C150.96 269.889 151.249 270.02 151.346 270.278L154.157 277.776V270.454C154.157 270.178 154.381 269.954 154.657 269.954C154.933 269.954 155.157 270.178 155.157 270.454V277.776L157.969 270.278C158.065 270.02 158.354 269.889 158.612 269.986C158.871 270.083 159.002 270.371 158.905 270.629L155.125 280.708C155.052 280.904 154.865 281.033 154.657 281.033C154.449 281.033 154.262 280.904 154.189 280.708L150.409 270.629C150.312 270.371 150.443 270.083 150.702 269.986Z" fill="#162B44"/>
<path fill-rule="evenodd" clip-rule="evenodd" d="M150.377 259.875H158.937V270.954H150.377V259.875ZM151.377 260.875V269.954H157.937V260.875H151.377Z" fill="#162B44"/>
<path fill-rule="evenodd" clip-rule="evenodd" d="M150.702 259.907C150.96 259.81 151.249 259.941 151.346 260.199L154.157 267.697V260.375C154.157 260.099 154.381 259.875 154.657 259.875C154.933 259.875 155.157 260.099 155.157 260.375V267.697L157.969 260.199C158.065 259.941 158.354 259.81 158.612 259.907C158.871 260.004 159.002 260.292 158.905 260.55L155.125 270.629C155.052 270.825 154.865 270.954 154.657 270.954C154.449 270.954 154.262 270.825 154.189 270.629L150.409 260.55C150.312 260.292 150.443 260.004 150.702 259.907Z" fill="#162B44"/>
<path fill-rule="evenodd" clip-rule="evenodd" d="M162.136 269.954H170.696V281.033H162.136V269.954ZM163.136 270.954V280.033H169.696V270.954H163.136Z" fill="#162B44"/>
<path fill-rule="evenodd" clip-rule="evenodd" d="M162.461 269.986C162.719 269.889 163.007 270.02 163.104 270.278L165.916 277.776V270.454C165.916 270.178 166.14 269.954 166.416 269.954C166.692 269.954 166.916 270.178 166.916 270.454V277.776L169.727 270.278C169.824 270.02 170.113 269.889 170.371 269.986C170.63 270.083 170.761 270.371 170.664 270.629L166.884 280.708C166.811 280.904 166.624 281.033 166.416 281.033C166.207 281.033 166.021 280.904 165.948 280.708L162.168 270.629C162.071 270.371 162.202 270.083 162.461 269.986Z" fill="#162B44"/>
<path fill-rule="evenodd" clip-rule="evenodd" d="M162.136 259.875H170.696V270.954H162.136V259.875ZM163.136 260.875V269.954H169.696V260.875H163.136Z" fill="#162B44"/>
<path fill-rule="evenodd" clip-rule="evenodd" d="M162.461 259.907C162.719 259.81 163.007 259.941 163.104 260.199L165.916 267.697V260.375C165.916 260.099 166.14 259.875 166.416 259.875C166.692 259.875 166.916 260.099 166.916 260.375V267.697L169.727 260.199C169.824 259.941 170.113 259.81 170.371 259.907C170.63 260.004 170.761 260.292 170.664 260.55L166.884 270.629C166.811 270.825 166.624 270.954 166.416 270.954C166.207 270.954 166.021 270.825 165.948 270.629L162.168 260.55C162.071 260.292 162.202 260.004 162.461 259.907Z" fill="#162B44"/>
<path fill-rule="evenodd" clip-rule="evenodd" d="M150.377 304.391H158.937V315.47H150.377V304.391ZM151.377 305.391V314.47H157.937V305.391H151.377Z" fill="#162B44"/>
<path fill-rule="evenodd" clip-rule="evenodd" d="M150.702 304.422C150.96 304.325 151.249 304.456 151.346 304.715L154.157 312.212V304.891C154.157 304.614 154.381 304.391 154.657 304.391C154.933 304.391 155.157 304.614 155.157 304.891V312.212L157.969 304.715C158.065 304.456 158.354 304.325 158.612 304.422C158.871 304.519 159.002 304.808 158.905 305.066L155.125 315.145C155.052 315.34 154.865 315.47 154.657 315.47C154.449 315.47 154.262 315.34 154.189 315.145L150.409 305.066C150.312 304.808 150.443 304.519 150.702 304.422Z" fill="#162B44"/>
<path fill-rule="evenodd" clip-rule="evenodd" d="M150.377 294.312H158.937V305.391H150.377V294.312ZM151.377 295.312V304.391H157.937V295.312H151.377Z" fill="#162B44"/>
<path fill-rule="evenodd" clip-rule="evenodd" d="M150.702 294.343C150.96 294.246 151.249 294.377 151.346 294.636L154.157 302.133V294.812C154.157 294.535 154.381 294.312 154.657 294.312C154.933 294.312 155.157 294.535 155.157 294.812V302.133L157.969 294.636C158.065 294.377 158.354 294.246 158.612 294.343C158.871 294.44 159.002 294.729 158.905 294.987L155.125 305.066C155.052 305.261 154.865 305.391 154.657 305.391C154.449 305.391 154.262 305.261 154.189 305.066L150.409 294.987C150.312 294.729 150.443 294.44 150.702 294.343Z" fill="#162B44"/>
<path fill-rule="evenodd" clip-rule="evenodd" d="M162.136 304.391H170.696V315.47H162.136V304.391ZM163.136 305.391V314.47H169.696V305.391H163.136Z" fill="#162B44"/>
<path fill-rule="evenodd" clip-rule="evenodd" d="M162.461 304.422C162.719 304.325 163.007 304.456 163.104 304.715L165.916 312.212V304.891C165.916 304.614 166.14 304.391 166.416 304.391C166.692 304.391 166.916 304.614 166.916 304.891V312.212L169.727 304.715C169.824 304.456 170.113 304.325 170.371 304.422C170.63 304.519 170.761 304.808 170.664 305.066L166.884 315.145C166.811 315.34 166.624 315.47 166.416 315.47C166.207 315.47 166.021 315.34 165.948 315.145L162.168 305.066C162.071 304.808 162.202 304.519 162.461 304.422Z" fill="#162B44"/>
<path fill-rule="evenodd" clip-rule="evenodd" d="M162.136 294.312H170.696V305.391H162.136V294.312ZM163.136 295.312V304.391H169.696V295.312H163.136Z" fill="#162B44"/>
<path fill-rule="evenodd" clip-rule="evenodd" d="M162.461 294.343C162.719 294.246 163.007 294.377 163.104 294.636L165.916 302.133V294.812C165.916 294.535 166.14 294.312 166.416 294.312C166.692 294.312 166.916 294.535 166.916 294.812V302.133L169.727 294.636C169.824 294.377 170.113 294.246 170.371 294.343C170.63 294.44 170.761 294.729 170.664 294.987L166.884 305.066C166.811 305.261 166.624 305.391 166.416 305.391C166.207 305.391 166.021 305.261 165.948 305.066L162.168 294.987C162.071 294.729 162.202 294.44 162.461 294.343Z" fill="#162B44"/>
<path fill-rule="evenodd" clip-rule="evenodd" d="M150.377 233.837H158.937V245.756H150.377V233.837ZM151.377 234.837V244.756H157.937V234.837H151.377Z" fill="#162B44"/>
<path fill-rule="evenodd" clip-rule="evenodd" d="M150.714 233.865C150.975 233.775 151.26 233.913 151.35 234.174L154.157 242.283V234.337C154.157 234.061 154.381 233.837 154.657 233.837C154.933 233.837 155.157 234.061 155.157 234.337V242.283L157.964 234.174C158.055 233.913 158.339 233.775 158.6 233.865C158.861 233.955 159 234.24 158.909 234.501L155.13 245.42C155.06 245.621 154.87 245.756 154.657 245.756C154.444 245.756 154.254 245.621 154.185 245.42L150.405 234.501C150.315 234.24 150.453 233.955 150.714 233.865Z" fill="#162B44"/>
<path fill-rule="evenodd" clip-rule="evenodd" d="M150.377 223.758H158.937V234.837H150.377V223.758ZM151.377 224.758V233.837H157.937V224.758H151.377Z" fill="#162B44"/>
<path fill-rule="evenodd" clip-rule="evenodd" d="M150.702 223.79C150.96 223.693 151.249 223.824 151.346 224.083L154.157 231.58V224.258C154.157 223.982 154.381 223.758 154.657 223.758C154.933 223.758 155.157 223.982 155.157 224.258V231.58L157.969 224.083C158.066 223.824 158.354 223.693 158.612 223.79C158.871 223.887 159.002 224.175 158.905 224.434L155.125 234.513C155.052 234.708 154.866 234.837 154.657 234.837C154.449 234.837 154.262 234.708 154.189 234.513L150.409 224.434C150.312 224.175 150.443 223.887 150.702 223.79Z" fill="#162B44"/>
<path fill-rule="evenodd" clip-rule="evenodd" d="M162.136 233.837H170.696V245.756H162.136V233.837ZM163.136 234.837V244.756H169.696V234.837H163.136Z" fill="#162B44"/>
<path fill-rule="evenodd" clip-rule="evenodd" d="M162.473 233.865C162.734 233.775 163.018 233.913 163.109 234.174L165.916 242.283V234.337C165.916 234.061 166.14 233.837 166.416 233.837C166.692 233.837 166.916 234.061 166.916 234.337V242.283L169.723 234.174C169.813 233.913 170.098 233.775 170.359 233.865C170.62 233.955 170.758 234.24 170.668 234.501L166.888 245.42C166.819 245.621 166.629 245.756 166.416 245.756C166.203 245.756 166.013 245.621 165.943 245.42L162.164 234.501C162.074 234.24 162.212 233.955 162.473 233.865Z" fill="#162B44"/>
<path fill-rule="evenodd" clip-rule="evenodd" d="M162.136 223.758H170.696V234.837H162.136V223.758ZM163.136 224.758V233.837H169.696V224.758H163.136Z" fill="#162B44"/>
<path fill-rule="evenodd" clip-rule="evenodd" d="M162.461 223.79C162.719 223.693 163.008 223.824 163.104 224.083L165.916 231.58V224.258C165.916 223.982 166.14 223.758 166.416 223.758C166.692 223.758 166.916 223.982 166.916 224.258V231.58L169.727 224.083C169.824 223.824 170.113 223.693 170.371 223.79C170.63 223.887 170.761 224.175 170.664 224.434L166.884 234.513C166.811 234.708 166.624 234.837 166.416 234.837C166.208 234.837 166.021 234.708 165.948 234.513L162.168 224.434C162.071 224.175 162.202 223.887 162.461 223.79Z" fill="#162B44"/>
<path fill-rule="evenodd" clip-rule="evenodd" d="M150.377 213.679H158.937V224.758H150.377V213.679ZM151.377 214.679V223.758H157.937V214.679H151.377Z" fill="#162B44"/>
<path fill-rule="evenodd" clip-rule="evenodd" d="M150.702 213.711C150.96 213.614 151.249 213.745 151.346 214.004L154.157 221.501V214.179C154.157 213.903 154.381 213.679 154.657 213.679C154.933 213.679 155.157 213.903 155.157 214.179V221.501L157.969 214.004C158.066 213.745 158.354 213.614 158.612 213.711C158.871 213.808 159.002 214.096 158.905 214.355L155.125 224.434C155.052 224.629 154.866 224.758 154.657 224.758C154.449 224.758 154.262 224.629 154.189 224.434L150.409 214.355C150.312 214.096 150.443 213.808 150.702 213.711Z" fill="#162B44"/>
<path fill-rule="evenodd" clip-rule="evenodd" d="M150.377 203.6H158.937V214.679H150.377V203.6ZM151.377 204.6V213.679H157.937V204.6H151.377Z" fill="#162B44"/>
<path fill-rule="evenodd" clip-rule="evenodd" d="M150.702 203.632C150.96 203.535 151.249 203.666 151.346 203.925L154.157 211.422V204.1C154.157 203.824 154.381 203.6 154.657 203.6C154.933 203.6 155.157 203.824 155.157 204.1V211.422L157.969 203.925C158.066 203.666 158.354 203.535 158.612 203.632C158.871 203.729 159.002 204.017 158.905 204.276L155.125 214.355C155.052 214.55 154.866 214.679 154.657 214.679C154.449 214.679 154.262 214.55 154.189 214.355L150.409 204.276C150.312 204.017 150.443 203.729 150.702 203.632Z" fill="#162B44"/>
<path fill-rule="evenodd" clip-rule="evenodd" d="M162.136 213.679H170.696V224.758H162.136V213.679ZM163.136 214.679V223.758H169.696V214.679H163.136Z" fill="#162B44"/>
<path fill-rule="evenodd" clip-rule="evenodd" d="M162.461 213.711C162.719 213.614 163.008 213.745 163.104 214.004L165.916 221.501V214.179C165.916 213.903 166.14 213.679 166.416 213.679C166.692 213.679 166.916 213.903 166.916 214.179V221.501L169.727 214.004C169.824 213.745 170.113 213.614 170.371 213.711C170.63 213.808 170.761 214.096 170.664 214.355L166.884 224.434C166.811 224.629 166.624 224.758 166.416 224.758C166.208 224.758 166.021 224.629 165.948 224.434L162.168 214.355C162.071 214.096 162.202 213.808 162.461 213.711Z" fill="#162B44"/>
<path fill-rule="evenodd" clip-rule="evenodd" d="M162.136 203.6H170.696V214.679H162.136V203.6ZM163.136 204.6V213.679H169.696V204.6H163.136Z" fill="#162B44"/>
<path fill-rule="evenodd" clip-rule="evenodd" d="M162.461 203.632C162.719 203.535 163.008 203.666 163.104 203.925L165.916 211.422V204.1C165.916 203.824 166.14 203.6 166.416 203.6C166.692 203.6 166.916 203.824 166.916 204.1V211.422L169.727 203.925C169.824 203.666 170.113 203.535 170.371 203.632C170.63 203.729 170.761 204.017 170.664 204.276L166.884 214.355C166.811 214.55 166.624 214.679 166.416 214.679C166.208 214.679 166.021 214.55 165.948 214.355L162.168 204.276C162.071 204.017 162.202 203.729 162.461 203.632Z" fill="#162B44"/>
<path fill-rule="evenodd" clip-rule="evenodd" d="M150.377 193.521H158.937V204.6H150.377V193.521ZM151.377 194.521V203.6H157.937V194.521H151.377Z" fill="#162B44"/>
<path fill-rule="evenodd" clip-rule="evenodd" d="M150.702 193.553C150.96 193.456 151.249 193.587 151.346 193.846L154.157 201.343V194.021C154.157 193.745 154.381 193.521 154.657 193.521C154.933 193.521 155.157 193.745 155.157 194.021V201.343L157.969 193.846C158.066 193.587 158.354 193.456 158.612 193.553C158.871 193.65 159.002 193.938 158.905 194.197L155.125 204.276C155.052 204.471 154.866 204.6 154.657 204.6C154.449 204.6 154.262 204.471 154.189 204.276L150.409 194.197C150.312 193.938 150.443 193.65 150.702 193.553Z" fill="#162B44"/>
<path fill-rule="evenodd" clip-rule="evenodd" d="M150.377 183.442H158.937V194.521H150.377V183.442ZM151.377 184.442V193.521H157.937V184.442H151.377Z" fill="#162B44"/>
<path fill-rule="evenodd" clip-rule="evenodd" d="M150.702 183.474C150.96 183.377 151.249 183.508 151.346 183.767L154.157 191.264V183.942C154.157 183.666 154.381 183.442 154.657 183.442C154.933 183.442 155.157 183.666 155.157 183.942V191.264L157.969 183.767C158.066 183.508 158.354 183.377 158.612 183.474C158.871 183.571 159.002 183.859 158.905 184.118L155.125 194.197C155.052 194.392 154.866 194.521 154.657 194.521C154.449 194.521 154.262 194.392 154.189 194.197L150.409 184.118C150.312 183.859 150.443 183.571 150.702 183.474Z" fill="#162B44"/>
<path fill-rule="evenodd" clip-rule="evenodd" d="M162.136 193.521H170.696V204.6H162.136V193.521ZM163.136 194.521V203.6H169.696V194.521H163.136Z" fill="#162B44"/>
<path fill-rule="evenodd" clip-rule="evenodd" d="M162.461 193.553C162.719 193.456 163.008 193.587 163.104 193.846L165.916 201.343V194.021C165.916 193.745 166.14 193.521 166.416 193.521C166.692 193.521 166.916 193.745 166.916 194.021V201.343L169.727 193.846C169.824 193.587 170.113 193.456 170.371 193.553C170.63 193.65 170.761 193.938 170.664 194.197L166.884 204.276C166.811 204.471 166.624 204.6 166.416 204.6C166.208 204.6 166.021 204.471 165.948 204.276L162.168 194.197C162.071 193.938 162.202 193.65 162.461 193.553Z" fill="#162B44"/>
<path fill-rule="evenodd" clip-rule="evenodd" d="M162.136 183.442H170.696V194.521H162.136V183.442ZM163.136 184.442V193.521H169.696V184.442H163.136Z" fill="#162B44"/>
<path fill-rule="evenodd" clip-rule="evenodd" d="M162.461 183.474C162.719 183.377 163.008 183.508 163.104 183.767L165.916 191.264V183.942C165.916 183.666 166.14 183.442 166.416 183.442C166.692 183.442 166.916 183.666 166.916 183.942V191.264L169.727 183.767C169.824 183.508 170.113 183.377 170.371 183.474C170.63 183.571 170.761 183.859 170.664 184.118L166.884 194.197C166.811 194.392 166.624 194.521 166.416 194.521C166.208 194.521 166.021 194.392 165.948 194.197L162.168 184.118C162.071 183.859 162.202 183.571 162.461 183.474Z" fill="#162B44"/>
<path fill-rule="evenodd" clip-rule="evenodd" d="M150.377 173.363H158.937V184.442H150.377V173.363ZM151.377 174.363V183.442H157.937V174.363H151.377Z" fill="#162B44"/>
<path fill-rule="evenodd" clip-rule="evenodd" d="M150.702 173.395C150.96 173.298 151.249 173.429 151.346 173.688L154.157 181.185V173.863C154.157 173.587 154.381 173.363 154.657 173.363C154.933 173.363 155.157 173.587 155.157 173.863V181.185L157.969 173.688C158.066 173.429 158.354 173.298 158.612 173.395C158.871 173.492 159.002 173.78 158.905 174.039L155.125 184.118C155.052 184.313 154.866 184.442 154.657 184.442C154.449 184.442 154.262 184.313 154.189 184.118L150.409 174.039C150.312 173.78 150.443 173.492 150.702 173.395Z" fill="#162B44"/>
<path fill-rule="evenodd" clip-rule="evenodd" d="M150.377 163.284H158.937V174.363H150.377V163.284ZM151.377 164.284V173.363H157.937V164.284H151.377Z" fill="#162B44"/>
<path fill-rule="evenodd" clip-rule="evenodd" d="M150.702 163.316C150.96 163.219 151.249 163.35 151.346 163.609L154.157 171.106V163.784C154.157 163.508 154.381 163.284 154.657 163.284C154.933 163.284 155.157 163.508 155.157 163.784V171.106L157.969 163.609C158.066 163.35 158.354 163.219 158.612 163.316C158.871 163.413 159.002 163.701 158.905 163.96L155.125 174.039C155.052 174.234 154.866 174.363 154.657 174.363C154.449 174.363 154.262 174.234 154.189 174.039L150.409 163.96C150.312 163.701 150.443 163.413 150.702 163.316Z" fill="#162B44"/>
<path fill-rule="evenodd" clip-rule="evenodd" d="M162.136 173.363H170.696V184.442H162.136V173.363ZM163.136 174.363V183.442H169.696V174.363H163.136Z" fill="#162B44"/>
<path fill-rule="evenodd" clip-rule="evenodd" d="M162.461 173.395C162.719 173.298 163.008 173.429 163.104 173.688L165.916 181.185V173.863C165.916 173.587 166.14 173.363 166.416 173.363C166.692 173.363 166.916 173.587 166.916 173.863V181.185L169.727 173.688C169.824 173.429 170.113 173.298 170.371 173.395C170.63 173.492 170.761 173.78 170.664 174.039L166.884 184.118C166.811 184.313 166.624 184.442 166.416 184.442C166.208 184.442 166.021 184.313 165.948 184.118L162.168 174.039C162.071 173.78 162.202 173.492 162.461 173.395Z" fill="#162B44"/>
<path fill-rule="evenodd" clip-rule="evenodd" d="M162.136 163.284H170.696V174.363H162.136V163.284ZM163.136 164.284V173.363H169.696V164.284H163.136Z" fill="#162B44"/>
<path fill-rule="evenodd" clip-rule="evenodd" d="M162.461 163.316C162.719 163.219 163.008 163.35 163.104 163.609L165.916 171.106V163.784C165.916 163.508 166.14 163.284 166.416 163.284C166.692 163.284 166.916 163.508 166.916 163.784V171.106L169.727 163.609C169.824 163.35 170.113 163.219 170.371 163.316C170.63 163.413 170.761 163.701 170.664 163.96L166.884 174.039C166.811 174.234 166.624 174.363 166.416 174.363C166.208 174.363 166.021 174.234 165.948 174.039L162.168 163.96C162.071 163.701 162.202 163.413 162.461 163.316Z" fill="#162B44"/>
<path fill-rule="evenodd" clip-rule="evenodd" d="M150.378 158.245H158.937V164.284H150.378V158.245ZM151.378 159.245V163.284H157.937V159.245H151.378Z" fill="#162B44"/>
<path fill-rule="evenodd" clip-rule="evenodd" d="M150.578 158.345C150.798 158.179 151.112 158.224 151.278 158.445L154.157 162.284V158.745C154.157 158.469 154.381 158.245 154.657 158.245C154.933 158.245 155.157 158.469 155.157 158.745V162.284L158.037 158.445C158.203 158.224 158.516 158.179 158.737 158.345C158.958 158.51 159.003 158.824 158.837 159.045L155.057 164.084C154.963 164.21 154.815 164.284 154.657 164.284C154.5 164.284 154.352 164.21 154.257 164.084L150.478 159.045C150.312 158.824 150.357 158.51 150.578 158.345Z" fill="#162B44"/>
<path fill-rule="evenodd" clip-rule="evenodd" d="M162.136 158.245H170.696V164.284H162.136V158.245ZM163.136 159.245V163.284H169.696V159.245H163.136Z" fill="#162B44"/>
<path fill-rule="evenodd" clip-rule="evenodd" d="M162.336 158.345C162.557 158.179 162.871 158.224 163.036 158.445L165.916 162.284V158.745C165.916 158.469 166.14 158.245 166.416 158.245C166.692 158.245 166.916 158.469 166.916 158.745V162.284L169.796 158.445C169.961 158.224 170.275 158.179 170.496 158.345C170.717 158.51 170.761 158.824 170.596 159.045L166.816 164.084C166.722 164.21 166.573 164.284 166.416 164.284C166.259 164.284 166.11 164.21 166.016 164.084L162.236 159.045C162.071 158.824 162.115 158.51 162.336 158.345Z" fill="#162B44"/>
<path fill-rule="evenodd" clip-rule="evenodd" d="M170.765 246.459C171.028 246.541 171.175 246.822 171.093 247.085L166.893 260.524C166.829 260.728 166.643 260.869 166.43 260.875C166.216 260.881 166.023 260.75 165.948 260.55L162.168 250.471C162.071 250.213 162.202 249.925 162.461 249.828C162.719 249.731 163.007 249.862 163.104 250.12L165.916 257.617V246.936C165.916 246.66 166.14 246.436 166.416 246.436C166.692 246.436 166.916 246.66 166.916 246.936V257.099L170.138 246.787C170.221 246.523 170.501 246.377 170.765 246.459Z" fill="#162B44"/>
<path fill-rule="evenodd" clip-rule="evenodd" d="M166.416 251.896H173.975V252.896H166.416V251.896Z" fill="#162B44"/>
<path fill-rule="evenodd" clip-rule="evenodd" d="M162.136 246.436H174.895V252.942L171.89 258.522L170.479 260.875H162.136V246.436ZM163.136 247.436V259.875H169.912L171.021 258.028L173.895 252.69V247.436H163.136Z" fill="#162B44"/>
<path fill-rule="evenodd" clip-rule="evenodd" d="M150.308 246.459C150.045 246.541 149.898 246.822 149.98 247.085L154.18 260.524C154.243 260.728 154.43 260.869 154.643 260.875C154.857 260.881 155.05 260.75 155.125 260.55L158.905 250.471C159.002 250.213 158.871 249.925 158.612 249.828C158.354 249.731 158.065 249.862 157.969 250.12L155.157 257.617V246.936C155.157 246.66 154.933 246.436 154.657 246.436C154.381 246.436 154.157 246.66 154.157 246.936V257.099L150.935 246.787C150.852 246.523 150.572 246.377 150.308 246.459Z" fill="#162B44"/>
<path fill-rule="evenodd" clip-rule="evenodd" d="M154.657 251.896H147.098V252.896H154.657V251.896Z" fill="#162B44"/>
<path fill-rule="evenodd" clip-rule="evenodd" d="M158.937 246.436H146.178V252.942L149.183 258.522L150.594 260.875H158.937V246.436ZM157.937 247.436V259.875H151.16L150.052 258.028L147.178 252.69V247.436H157.937Z" fill="#162B44"/>
<path fill-rule="evenodd" clip-rule="evenodd" d="M171.035 157.065H150.877V158.745H171.035V157.065ZM163.476 198.221V188.142H172.715V186.462H163.476V158.745H156.757V186.462H149.198V188.142H156.757V198.221H149.198V199.901H156.757V245.256H146.678V246.936H156.757V280.533H146.678V282.213H156.757V355.128H163.476V282.213H174.395V280.533H163.476V246.936H174.395V245.256H163.476V199.901H172.715V198.221H163.476Z" fill="#162B44"/>
<path fill-rule="evenodd" clip-rule="evenodd" d="M150.377 156.565H171.535V159.245H163.976V185.962H173.215V188.642H163.976V197.721H173.215V200.401H163.976V244.756H174.895V247.436H163.976V280.033H174.895V282.713H163.976V335.628H156.257V282.713H146.178V280.033H156.257V247.436H146.178V244.756H156.257V200.401H148.698V197.721H156.257V188.642H148.698V185.962H156.257V159.245H150.377V156.565ZM157.257 159.245V186.962H149.698V187.642H157.257V198.721H149.698V199.401H157.257V245.756H147.178V246.436H157.257V281.033H147.178V281.713H157.257V334.628H162.976V281.713H173.895V281.033H162.976V246.436H173.895V245.756H162.976V199.401H172.215V198.721H162.976V187.642H172.215V186.962H162.976V159.245H157.257ZM151.377 157.565V158.245H170.535V157.565H151.377Z" fill="#162B44"/>
<path fill-rule="evenodd" clip-rule="evenodd" d="M150.377 156.565H171.535V159.245H163.976V185.962H173.215V188.642H163.976V197.721H173.215V200.401H163.976V244.756H174.895V247.436H163.976V280.033H174.895V282.713H163.976V335.628H156.257V282.713H146.178V280.033H156.257V247.436H146.178V244.756H156.257V200.401H148.698V197.721H156.257V188.642H148.698V185.962H156.257V159.245H150.377V156.565ZM157.257 159.245V186.962H149.698V187.642H157.257V198.721H149.698V199.401H157.257V245.756H147.178V246.436H157.257V281.033H147.178V281.713H157.257V334.628H162.976V281.713H173.895V281.033H162.976V246.436H173.895V245.756H162.976V199.401H172.215V198.721H162.976V187.642H172.215V186.962H162.976V159.245H157.257ZM151.377 157.565V158.245H170.535V157.565H151.377Z" fill="#162B44"/>
<path fill-rule="evenodd" clip-rule="evenodd" d="M149.877 156.065H172.035V159.745H164.476V185.462H173.715V189.142H164.476V197.221H173.715V200.901H164.476V244.256H175.395V247.936H164.476V279.533H175.395V283.213H164.476V356.128H155.757V283.213H145.678V279.533H155.757V247.936H145.678V244.256H155.757V200.901H148.198V197.221H155.757V189.142H148.198V185.462H155.757V159.745H149.877V156.065ZM157.757 159.745V354.128H162.476V159.745H157.757Z" fill="#162B44"/>
<path fill-rule="evenodd" clip-rule="evenodd" d="M168.516 70.2133H153.397V69.2133H168.516V70.2133Z" fill="#162B44"/>
<path fill-rule="evenodd" clip-rule="evenodd" d="M166.356 73.5729H154.477V72.5729H166.356V73.5729Z" fill="#162B44"/>
<path fill-rule="evenodd" clip-rule="evenodd" d="M166.356 77.7725H154.477V76.7725H166.356V77.7725Z" fill="#162B44"/>
<path fill-rule="evenodd" clip-rule="evenodd" d="M166.356 81.9721H154.477V80.9721H166.356V81.9721Z" fill="#162B44"/>
<path fill-rule="evenodd" clip-rule="evenodd" d="M166.356 86.1717H154.477V85.1717H166.356V86.1717Z" fill="#162B44"/>
<path fill-rule="evenodd" clip-rule="evenodd" d="M166.356 90.3713H154.477V89.3713H166.356V90.3713Z" fill="#162B44"/>
<path fill-rule="evenodd" clip-rule="evenodd" d="M166.356 94.5709H154.477V93.5709H166.356V94.5709Z" fill="#162B44"/>
<path fill-rule="evenodd" clip-rule="evenodd" d="M166.356 98.7705H154.477V97.7705H166.356V98.7705Z" fill="#162B44"/>
<path fill-rule="evenodd" clip-rule="evenodd" d="M166.356 102.97H154.477V101.97H166.356V102.97Z" fill="#162B44"/>
<path fill-rule="evenodd" clip-rule="evenodd" d="M166.356 107.17H154.477V106.17H166.356V107.17Z" fill="#162B44"/>
<path fill-rule="evenodd" clip-rule="evenodd" d="M166.356 111.369H154.477V110.369H166.356V111.369Z" fill="#162B44"/>
<path fill-rule="evenodd" clip-rule="evenodd" d="M166.356 115.569H154.477V114.569H166.356V115.569Z" fill="#162B44"/>
<path fill-rule="evenodd" clip-rule="evenodd" d="M166.356 119.768H154.477V118.768H166.356V119.768Z" fill="#162B44"/>
<path fill-rule="evenodd" clip-rule="evenodd" d="M166.356 123.968H154.477V122.968H166.356V123.968Z" fill="#162B44"/>
<path fill-rule="evenodd" clip-rule="evenodd" d="M166.356 128.168H154.477V127.168H166.356V128.168Z" fill="#162B44"/>
<path fill-rule="evenodd" clip-rule="evenodd" d="M166.356 132.367H154.477V131.367H166.356V132.367Z" fill="#162B44"/>
<path fill-rule="evenodd" clip-rule="evenodd" d="M166.356 136.567H154.477V135.567H166.356V136.567Z" fill="#162B44"/>
<path fill-rule="evenodd" clip-rule="evenodd" d="M166.356 140.766H154.477V139.766H166.356V140.766Z" fill="#162B44"/>
<path fill-rule="evenodd" clip-rule="evenodd" d="M166.356 144.966H154.477V143.966H166.356V144.966Z" fill="#162B44"/>
<path fill-rule="evenodd" clip-rule="evenodd" d="M166.356 149.166H154.477V148.166H166.356V149.166Z" fill="#162B44"/>
<path fill-rule="evenodd" clip-rule="evenodd" d="M166.356 153.365H154.477V152.365H166.356V153.365Z" fill="#162B44"/>
<path d="M156.757 69.7133H163.476V157.065H156.757V69.7133Z" fill="#162B44"/>
<path fill-rule="evenodd" clip-rule="evenodd" d="M156.257 69.2133H163.976V157.565H156.257V69.2133ZM157.257 70.2133V156.565H162.976V70.2133H157.257Z" fill="#162B44"/>
<path d="M157.597 41.9959H162.636V69.7133H157.597V41.9959Z" fill="#162B44"/>
<path fill-rule="evenodd" clip-rule="evenodd" d="M161.636 42.9959H158.597V68.7133H161.636V42.9959ZM157.597 41.9959V69.7133H162.636V41.9959H157.597Z" fill="#162B44"/>
<path fill-rule="evenodd" clip-rule="evenodd" d="M164.316 46.2756H155.917V45.2756H164.316V46.2756Z" fill="#162B44"/>
<path fill-rule="evenodd" clip-rule="evenodd" d="M159.616 42.8359V17.6383H160.616V42.8359H159.616Z" fill="#162B44"/>
<path fill-rule="evenodd" clip-rule="evenodd" d="M160.616 3.8147e-06V17.6383H159.616V3.85841e-06L160.616 3.8147e-06Z" fill="#162B44"/>
<path d="M161.796 17.6383H158.437V15.9585H159.277V15.1185H160.956V15.9585H161.796V17.6383Z" fill="#162B44"/>
<path fill-rule="evenodd" clip-rule="evenodd" d="M158.777 14.6185H161.456V15.4585H162.296V18.1383H157.937V15.4585H158.777V14.6185ZM158.937 16.4585H159.777V15.6185H160.456V16.4585H161.296V17.1383H158.937V16.4585Z" fill="#162B44"/>
<path fill-rule="evenodd" clip-rule="evenodd" d="M160.956 1.75988H159.277V0.759876H160.956V1.75988Z" fill="#162B44"/>
<path fill-rule="evenodd" clip-rule="evenodd" d="M581.979 211.992C581.526 211.992 581.158 212.359 581.158 212.812C581.158 213.265 581.526 213.632 581.979 213.632C582.432 213.632 582.799 213.265 582.799 212.812C582.799 212.359 582.432 211.992 581.979 211.992ZM580.158 212.812C580.158 211.807 580.973 210.992 581.979 210.992C582.984 210.992 583.799 211.807 583.799 212.812C583.799 213.817 582.984 214.632 581.979 214.632C580.973 214.632 580.158 213.817 580.158 212.812Z" fill="#162B44"/>
<path fill-rule="evenodd" clip-rule="evenodd" d="M581.539 211.492V207.091H582.539V211.492H581.539Z" fill="#162B44"/>
<path fill-rule="evenodd" clip-rule="evenodd" d="M578.018 212.372H580.658V213.372H578.018V212.372Z" fill="#162B44"/>
<path fill-rule="evenodd" clip-rule="evenodd" d="M583.299 212.372H585.939V213.372H583.299V212.372Z" fill="#162B44"/>
<path fill-rule="evenodd" clip-rule="evenodd" d="M581.539 221.174V214.132H582.539V221.174H581.539Z" fill="#162B44"/>
<path fill-rule="evenodd" clip-rule="evenodd" d="M558.714 254.7V264.382H557.714V254.7H558.714Z" fill="#162B44"/>
<path fill-rule="evenodd" clip-rule="evenodd" d="M560.415 258.281H556.014V257.281H560.415V258.281Z" fill="#162B44"/>
<path fill-rule="evenodd" clip-rule="evenodd" d="M606.243 255.141V264.822H605.243V255.141H606.243Z" fill="#162B44"/>
<path fill-rule="evenodd" clip-rule="evenodd" d="M607.944 258.721H603.543V257.721H607.944V258.721Z" fill="#162B44"/>
<path fill-rule="evenodd" clip-rule="evenodd" d="M581.979 196.103C581.526 196.103 581.158 196.471 581.158 196.924C581.158 197.377 581.526 197.744 581.979 197.744C582.432 197.744 582.799 197.377 582.799 196.924C582.799 196.471 582.432 196.103 581.979 196.103ZM580.158 196.924C580.158 195.918 580.973 195.103 581.979 195.103C582.984 195.103 583.799 195.918 583.799 196.924C583.799 197.929 582.984 198.744 581.979 198.744C580.973 198.744 580.158 197.929 580.158 196.924Z" fill="#162B44"/>
<path fill-rule="evenodd" clip-rule="evenodd" d="M582.479 198.244V201.324H581.479V198.244H582.479Z" fill="#162B44"/>
<path fill-rule="evenodd" clip-rule="evenodd" d="M581.979 179.981H576.698V178.981H581.979V179.981Z" fill="#162B44"/>
<path fill-rule="evenodd" clip-rule="evenodd" d="M577.518 180.802V178.161H578.518V180.802H577.518Z" fill="#162B44"/>
<path fill-rule="evenodd" clip-rule="evenodd" d="M581.979 179.981H587.26V178.981H581.979V179.981Z" fill="#162B44"/>
<path fill-rule="evenodd" clip-rule="evenodd" d="M586.439 180.802V178.161H585.439V180.802H586.439Z" fill="#162B44"/>
<path fill-rule="evenodd" clip-rule="evenodd" d="M582.479 178V195.603H581.479V178H582.479Z" fill="#162B44"/>
<path fill-rule="evenodd" clip-rule="evenodd" d="M580.658 180.7V179.7H583.299V180.7H580.658Z" fill="#162B44"/>
<path d="M570.096 233.936C571.123 233.056 573.441 231.119 574.497 230.415V229.095H573.617L577.578 224.254L579.778 220.293V215.893H577.138L576.258 215.453L575.377 213.692V212.372L576.258 210.612L577.138 209.731H578.898V208.851L580.658 205.331H583.299L585.059 208.851V209.731H586.82L587.7 210.612L588.58 212.372V213.692L587.7 215.453L586.82 215.893H584.179V220.293L586.379 224.254L590.34 229.095H589.46V230.415C590.516 231.119 592.834 233.056 593.861 233.936L592.981 231.296L592.541 229.535H593.421V228.215H592.101V224.254H592.541V223.374H593.421V222.934H592.541V222.054H592.101V220.293H591.22V215.893H592.101V215.012H590.78V214.132H589.9V209.731L588.58 207.971H587.7V202.69H586.82V199.169H588.58V196.529H585.939V190.368H584.179V185.967H585.059V179.366H586.82V178.926H585.059V178.045H583.739V172.764H582.419V171.884H581.539V172.764H580.218V178.045H578.898V178.926H577.138V179.366H578.898V185.967H579.778V190.368H578.018V196.529H575.377V199.169H577.138V202.69H576.258V207.971H575.377L574.057 209.731V214.132H573.177V215.012H571.857V215.893H572.737V220.293H571.857V222.054H571.417V222.934H570.537V223.374H571.417V224.254H571.857V228.215H570.537V229.535H571.417L570.977 231.296L570.096 233.936Z" fill="#162B44"/>
<path fill-rule="evenodd" clip-rule="evenodd" d="M581.979 167.103C581.526 167.103 581.158 167.471 581.158 167.924C581.158 168.377 581.526 168.744 581.979 168.744C582.432 168.744 582.799 168.377 582.799 167.924C582.799 167.471 582.432 167.103 581.979 167.103ZM580.158 167.924C580.158 166.918 580.973 166.103 581.979 166.103C582.984 166.103 583.799 166.918 583.799 167.924C583.799 168.929 582.984 169.744 581.979 169.744C580.973 169.744 580.158 168.929 580.158 167.924Z" fill="#162B44"/>
<path fill-rule="evenodd" clip-rule="evenodd" d="M580.979 168.744H582.979V172.824H580.979V168.744Z" fill="#162B44"/>
<path fill-rule="evenodd" clip-rule="evenodd" d="M576.198 155.481H582.479V157.481H576.198V155.481Z" fill="#162B44"/>
<path fill-rule="evenodd" clip-rule="evenodd" d="M579.018 154.661V158.302H577.018V154.661H579.018Z" fill="#162B44"/>
<path fill-rule="evenodd" clip-rule="evenodd" d="M587.76 155.481H581.479V157.481H587.76V155.481Z" fill="#162B44"/>
<path fill-rule="evenodd" clip-rule="evenodd" d="M584.939 154.661V158.302H586.939V154.661H584.939Z" fill="#162B44"/>
<path fill-rule="evenodd" clip-rule="evenodd" d="M580.979 148.5H582.979V167.103H580.979V148.5Z" fill="#162B44"/>
<path fill-rule="evenodd" clip-rule="evenodd" d="M580.158 150.2H583.799V152.2H580.158V150.2Z" fill="#162B44"/>
<path d="M540 357L543.958 282.591L549.675 279.076V272.924C551.435 270.727 558.471 264.136 558.471 264.136C558.471 264.136 561.99 267.212 562.869 267.652L564.628 266.773V254.909C564.188 254.616 563.309 253.855 563.309 253.152C563.309 252.273 564.188 251.394 565.068 251.394H566.827C566.827 250.808 566.915 249.373 567.267 248.318V246.121C566.974 245.975 566.387 245.418 566.387 244.364C566.387 243.309 567.267 242.753 567.707 242.606H568.586V239.091C568.733 236.601 570.697 231.006 577.382 228.545H577.822V225.909H576.503L580.901 221.955V218H583.099V221.955L587.497 225.909H586.178V228.545H586.618C593.303 231.006 595.267 236.601 595.414 239.091V242.606H596.293C596.733 242.753 597.613 243.309 597.613 244.364C597.613 245.418 597.026 245.975 596.733 246.121V248.318C597.085 249.373 597.173 250.808 597.173 251.394H598.932C599.812 251.394 600.691 252.273 600.691 253.152C600.691 253.855 599.812 254.616 599.372 254.909V266.773L601.131 267.652C602.01 267.212 605.969 264.136 605.969 264.136C605.969 264.136 612.565 270.727 614.325 272.924V279.076L620.042 282.591L624 357H540Z" fill="#162B44"/>
<path d="M0 357.079V263.784L6.97913 259.489V255.917H9.01991V251.836H12.0811L19.734 248.265L22.7952 239.081H24.8359V235H26.8767V231.938H25.8563V229.898H27.8971C30.1079 223.265 36.4684 210 44.2233 210C51.9782 210 58.3387 223.265 60.5495 229.898H62.5903V231.938H61.5699V235H63.6107V239.081H65.6514L68.7126 248.265L76.3655 251.836H79.4267V255.917H81.4675V259.489L94.7325 267.652H102.896L105.447 357.079H0Z" fill="#162B44"/>
<path fill-rule="evenodd" clip-rule="evenodd" d="M6.97913 259.489L0 263.784V339.079H105.447L102.896 267.652H94.7325L81.4675 259.489V255.917H79.4267V251.836H76.3655L68.7126 248.265L65.6514 239.081H63.6107V235H61.5699V231.938H62.5903V229.898H60.5495C58.3387 223.265 51.9782 210 44.2233 210C36.4684 210 30.1079 223.265 27.8971 229.898H25.8563V231.938H26.8767V235H24.8359V239.081H22.7952L19.734 248.265L12.0811 251.836H9.01991V255.917H6.97913V259.489ZM7.97913 256.917V260.048L1 264.342V338.079H104.41L101.931 268.652H94.4495L80.4675 260.048V256.917H78.4267V252.836H76.1437L67.8999 248.989L64.9307 240.081H62.6107V236H60.5699V230.938H61.5903V230.898H59.8287L59.6008 230.214C58.5159 226.959 56.4097 222.075 53.6401 218.026C52.2555 216.002 50.7311 214.226 49.1187 212.964C47.5067 211.702 45.8667 211 44.2233 211C42.5799 211 40.9399 211.702 39.328 212.964C37.7155 214.226 36.1911 216.002 34.8065 218.026C32.0369 222.075 29.9307 226.959 28.8458 230.214L28.6179 230.898H26.8563V230.938H27.8767V236H25.8359V240.081H23.5159L20.5467 248.989L12.3029 252.836H10.0199V256.917H7.97913Z" fill="#162B44"/>
<path fill-rule="evenodd" clip-rule="evenodd" d="M6.97913 259.489L0 263.784V339.079H105.447L102.896 267.652H94.7325L81.4675 259.489V255.917H79.4267V251.836H76.3655L68.7126 248.265L65.6514 239.081H63.6107V235H61.5699V231.938H62.5903V229.898H60.5495C58.3387 223.265 51.9782 210 44.2233 210C36.4684 210 30.1079 223.265 27.8971 229.898H25.8563V231.938H26.8767V235H24.8359V239.081H22.7952L19.734 248.265L12.0811 251.836H9.01991V255.917H6.97913V259.489ZM7.97913 256.917V260.048L1 264.342V338.079H104.41L101.931 268.652H94.4495L80.4675 260.048V256.917H78.4267V252.836H76.1437L67.8999 248.989L64.9307 240.081H62.6107V236H60.5699V230.938H61.5903V230.898H59.8287L59.6008 230.214C58.5159 226.959 56.4097 222.075 53.6401 218.026C52.2555 216.002 50.7311 214.226 49.1187 212.964C47.5067 211.702 45.8667 211 44.2233 211C42.5799 211 40.9399 211.702 39.328 212.964C37.7155 214.226 36.1911 216.002 34.8065 218.026C32.0369 222.075 29.9307 226.959 28.8458 230.214L28.6179 230.898H26.8563V230.938H27.8767V236H25.8359V240.081H23.5159L20.5467 248.989L12.3029 252.836H10.0199V256.917H7.97913Z" fill="#162B44"/>
<path fill-rule="evenodd" clip-rule="evenodd" d="M6.97913 259.489L0 263.784V339.079H105.447L102.896 267.652H94.7325L81.4675 259.489V255.917H79.4267V251.836H76.3655L68.7126 248.265L65.6514 239.081H63.6107V235H61.5699V231.938H62.5903V229.898H60.5495C59.4441 226.581 57.3013 221.607 54.4654 217.462C53.0475 215.389 51.4564 213.524 49.735 212.176C48.0134 210.829 46.1618 210 44.2233 210C42.2848 210 40.4332 210.829 38.7116 212.176C36.9902 213.524 35.3991 215.389 33.9812 217.462C31.1453 221.607 29.0025 226.581 27.8971 229.898H25.8563V231.938H26.8767V235H24.8359V239.081H22.7952L19.734 248.265L12.0811 251.836H9.01991V255.917H6.97913V259.489ZM23.5159 240.081L20.5467 248.989L12.3029 252.836H10.0199V256.917H7.97913V260.048L1 264.342V338.079H104.41L101.931 268.652H94.4495L80.4675 260.048V256.917H78.4267V252.836H76.1437L67.8999 248.989L64.9307 240.081H62.6107V236H60.5699V230.938H61.5903V230.898H59.8287L59.6008 230.214C59.5906 230.183 59.5803 230.152 59.5699 230.121C58.4762 226.867 56.3836 222.037 53.6401 218.026C52.2555 216.002 50.7311 214.226 49.1187 212.964C47.5067 211.702 45.8667 211 44.2233 211C42.5799 211 40.9399 211.702 39.328 212.964C37.7155 214.226 36.1911 216.002 34.8065 218.026C32.063 222.037 29.9704 226.867 28.8767 230.121C28.8663 230.152 28.856 230.183 28.8458 230.214L28.6179 230.898H26.8563V230.938H27.8767V236H25.8359V240.081H23.5159Z" fill="#162B44"/>
<path fill-rule="evenodd" clip-rule="evenodd" d="M798 358.641L802.843 287.599L799.937 284.693L807.687 280.334V278.396V232.079L805.265 229.963H807.687V213.496L805.749 211.559H808.655V193.154L805.749 191.217H808.655V167H810.593V180.561H813.499V178.624H815.436V180.561H820.279V176.687H829.966V180.561H834.809V178.624H836.747V180.561H839.653V167H841.59V191.217H844.496L841.59 193.154V211.559H844.496L842.558 213.496V229.963H844.98L842.558 232.079V278.396V280.334L850.308 284.693L847.402 287.599L849.758 309.513L849.824 308.425C850.308 302.613 852.245 289.536 856.12 283.724L850.308 280.334V252.727H885.18V246.43H886.148V242.556L883.242 238.197L885.18 233.838H888.086L889.054 235.291V236.744H890.507V235.291L891.476 233.838H891.96V230.932H893.413V233.838L894.866 234.806V236.744H895.835V239.165L893.898 240.134L892.929 242.556V246.43L893.898 247.883H895.835C900.909 239.639 917.598 223.297 944.252 222.714V223.182H945.252V222.698H945.373L945.479 222.699C945.56 222.698 945.721 222.698 945.721 222.698V222.7C972.949 222.895 989.987 239.538 995.123 247.883H997.06L998.029 246.43V242.556L997.06 240.134L995.123 239.165V236.744H996.092V234.806L997.545 233.838V230.932H998.998V233.838H999.482L1000.45 235.291V236.744H1001.9V235.291L1002.87 233.838H1005.78L1007.72 238.197L1004.81 242.556V246.43H1005.78V252.727H1040.65V280.334L1034.84 283.724C1038.41 289.08 1040.33 300.604 1040.99 306.929L1043.07 287.599L1040.17 284.693L1047.92 280V278.396V232.079L1045.49 229.963H1047.92V213.496L1045.98 211.559H1048.88V193.154L1045.98 191.217H1048.88V167H1050.82V180.561H1053.73V178.624H1055.66V180.561H1060.51V176.687H1070.19V180.561H1075.04V178.624H1076.97V180.561H1079.88V167H1081.82V191.217H1084.72L1081.82 193.154V211.559H1084.72L1082.79 213.496V229.963H1085.21L1082.79 232.079V278.396V280L1090.54 284.693L1087.63 287.599L1092.47 358.641H798ZM940.393 269.61C942.71 268.27 944.268 265.766 944.268 262.898C944.268 260.602 943.27 258.54 941.685 257.121C948.202 257.458 962.008 260.281 974.297 269.678C990.764 282.271 998.998 292.442 1008.2 320.533H993.186L1001.42 318.111C997.867 303.259 982.53 271.616 949.596 263.866H949.111C948.95 265.481 948.046 269.388 945.721 272.1L945.237 272.584V277.428C930.868 277.589 901.453 285.952 898.741 318.111L906.975 320.533H892.929C892.768 313.752 895.641 297.479 908.428 286.63C921.214 275.781 934.743 273.069 939.909 273.069H940.393V269.61ZM864.838 320.533H879.368C889.442 281.399 919.729 270.97 933.613 270.647V270.084C930.773 268.934 928.77 266.15 928.77 262.898C928.77 259.645 930.773 256.861 933.613 255.712V254.18C989.795 253.017 1018.37 297.931 1025.64 320.533H1039.2L1029.99 317.143C1006.75 254.761 952.179 245.946 927.801 249.336V254.18C923.151 258.442 924.249 264.189 924.895 266.772C893.898 272.972 878.076 303.097 874.524 317.143L864.838 320.533ZM930.207 261.929C930.207 262.444 930.401 262.907 930.721 263.309C930.874 265.49 932.23 267.34 934.13 268.198C934.419 268.468 934.735 268.693 935.074 268.863C935.139 269.064 935.327 269.21 935.55 269.21C935.73 269.21 935.908 269.199 936.082 269.179C936.225 269.199 936.371 269.21 936.519 269.21C936.686 269.21 936.834 269.128 936.925 269.002C937.297 268.886 937.652 268.725 937.985 268.523C940.357 267.907 942.14 265.829 942.316 263.309C942.637 262.907 942.831 262.444 942.831 261.929C942.831 261.653 942.607 261.429 942.331 261.429C942.268 261.429 942.208 261.441 942.152 261.462C942.061 261.105 941.938 260.762 941.785 260.435C941.834 260.296 941.862 260.148 941.862 259.992C941.862 259.716 941.638 259.492 941.362 259.492C941.32 259.492 941.279 259.497 941.24 259.507C940.459 258.422 939.315 257.618 937.985 257.272C937.652 257.071 937.297 256.909 936.925 256.794C936.834 256.668 936.686 256.586 936.519 256.586C936.371 256.586 936.225 256.596 936.083 256.616C935.909 256.596 935.732 256.586 935.553 256.586H935.55C935.327 256.586 935.139 256.731 935.074 256.933C934.735 257.102 934.419 257.327 934.13 257.598C933.195 258.02 932.391 258.683 931.798 259.507C931.779 259.502 931.759 259.498 931.74 259.496C931.719 259.493 931.697 259.492 931.675 259.492C931.399 259.492 931.175 259.716 931.175 259.992C931.175 260.148 931.203 260.296 931.253 260.435C931.1 260.762 930.976 261.105 930.886 261.462C930.83 261.441 930.77 261.429 930.707 261.429C930.431 261.429 930.207 261.653 930.207 261.929Z" fill="#162B44"/>
<path fill-rule="evenodd" clip-rule="evenodd" d="M931.69 263.709C930.583 263.155 930.109 262.492 930.109 261.926C930.109 261.619 929.861 261.371 929.555 261.371C929.248 261.371 929 261.619 929 261.926C929 263.139 929.969 264.088 931.194 264.701C932.453 265.33 934.153 265.703 936 265.703C937.847 265.703 939.547 265.33 940.806 264.701C942.031 264.088 943 263.139 943 261.926C943 261.619 942.752 261.371 942.445 261.371C942.139 261.371 941.891 261.619 941.891 261.926C941.891 262.492 941.417 263.155 940.31 263.709C939.235 264.246 937.712 264.594 936 264.594C934.288 264.594 932.765 264.246 931.69 263.709Z" fill="#162B44"/>
<path fill-rule="evenodd" clip-rule="evenodd" d="M931.432 260.211C931.229 260.019 931.183 259.872 931.183 259.777C931.183 259.471 930.935 259.223 930.629 259.223C930.323 259.223 930.074 259.471 930.074 259.777C930.074 260.275 930.329 260.694 930.67 261.016C931.01 261.338 931.471 261.601 931.996 261.811C933.049 262.232 934.464 262.48 936 262.48C937.536 262.48 938.952 262.232 940.004 261.811C940.529 261.601 940.991 261.338 941.33 261.016C941.671 260.694 941.926 260.275 941.926 259.777C941.926 259.471 941.678 259.223 941.371 259.223C941.065 259.223 940.817 259.471 940.817 259.777C940.817 259.872 940.771 260.019 940.568 260.211C940.364 260.403 940.04 260.603 939.592 260.782C938.701 261.138 937.431 261.371 936 261.371C934.569 261.371 933.3 261.138 932.408 260.782C931.961 260.603 931.636 260.403 931.432 260.211Z" fill="#162B44"/>
<path fill-rule="evenodd" clip-rule="evenodd" d="M939.742 263C939.742 259.648 937.495 257.109 934.926 257.109V256C938.289 256 940.851 259.233 940.851 263C940.851 266.767 938.289 270 934.926 270V268.891C937.495 268.891 939.742 266.352 939.742 263Z" fill="#162B44"/>
<path fill-rule="evenodd" clip-rule="evenodd" d="M935.327 257.404C935.119 257.141 934.98 257.109 934.926 257.109C934.619 257.109 934.371 256.861 934.371 256.555C934.371 256.248 934.619 256 934.926 256C935.465 256 935.891 256.328 936.198 256.718C936.509 257.113 936.766 257.652 936.971 258.267C937.383 259.504 937.629 261.177 937.629 263C937.629 264.823 937.383 266.496 936.971 267.733C936.766 268.348 936.509 268.887 936.198 269.282C935.891 269.672 935.465 270 934.926 270C934.619 270 934.371 269.752 934.371 269.445C934.371 269.139 934.619 268.891 934.926 268.891C934.98 268.891 935.119 268.859 935.327 268.596C935.529 268.339 935.735 267.933 935.919 267.382C936.284 266.286 936.52 264.737 936.52 263C936.52 261.263 936.284 259.714 935.919 258.618C935.735 258.067 935.529 257.661 935.327 257.404Z" fill="#162B44"/>
<path fill-rule="evenodd" clip-rule="evenodd" d="M933.423 258.75C934.135 257.683 935.057 257.109 936 257.109V256C934.571 256 933.344 256.869 932.5 258.135C931.654 259.404 931.149 261.126 931.149 263C931.149 264.874 931.654 266.596 932.5 267.865C933.344 269.131 934.571 270 936 270V268.891C935.057 268.891 934.135 268.317 933.423 267.25C932.714 266.187 932.258 264.686 932.258 263C932.258 261.314 932.714 259.813 933.423 258.75Z" fill="#162B44"/>
<path fill-rule="evenodd" clip-rule="evenodd" d="M935.599 257.404C935.806 257.141 935.946 257.109 936 257.109C936.306 257.109 936.554 256.861 936.554 256.555C936.554 256.248 936.306 256 936 256C935.461 256 935.035 256.328 934.728 256.718C934.416 257.113 934.16 257.652 933.955 258.267C933.542 259.504 933.297 261.177 933.297 263C933.297 264.823 933.542 266.496 933.955 267.733C934.16 268.348 934.416 268.887 934.728 269.282C935.035 269.672 935.461 270 936 270C936.306 270 936.554 269.752 936.554 269.445C936.554 269.139 936.306 268.891 936 268.891C935.946 268.891 935.806 268.859 935.599 268.596C935.397 268.339 935.19 267.933 935.007 267.382C934.641 266.286 934.406 264.737 934.406 263C934.406 261.263 934.641 259.714 935.007 258.618C935.19 258.067 935.397 257.661 935.599 257.404Z" fill="#162B44"/>
<path d="M1120.46 112.75H1122.46V122.408H1124.95V124.408H1122.46V128.503C1122.75 128.679 1123.04 128.954 1123.25 129.383C1123.46 129.792 1123.33 130.424 1123.25 130.578C1122.95 131.176 1122.06 131.176 1122.06 131.176V134.183H1123.25V135.382H1124.45V136.58H1123.25V142.573C1126.24 143.173 1128.63 144.971 1129.83 146.169C1130.78 147.128 1131.42 148.566 1131.62 149.166V154.559H1130.42V156.357H1131.62V161.751H1130.42V171.34H1131.62L1131.68 171.369C1132.14 171.597 1133.41 172.225 1133.41 173.6C1133.41 175.038 1132.02 175.935 1131.62 176.135V197.71L1131.74 197.737C1133.55 198.126 1136.4 198.743 1136.4 201.086C1136.4 202.879 1134.41 203.903 1133.41 204.302V225.877H1135.2V231.56C1135.2 231.56 1137.99 231.671 1139.39 231.87C1140.78 232.07 1143.57 233.227 1143.57 235.145C1143.57 237.063 1141.98 238.063 1141.18 238.463V263.634L1143.57 266.031V268.428H1142.37V272.024L1153.13 275.021L1149.55 278.017L1154.92 357.359H1088L1093.38 278.017L1089.79 275.021L1100.55 272.024V268.428H1099.35V266.031L1101.74 263.634V238.463C1100.95 238.063 1099.35 237.063 1099.35 235.145C1099.35 233.227 1102.14 232.07 1103.54 231.87C1104.93 231.671 1107.72 231.56 1107.72 231.56V225.877H1109.51V204.302C1108.52 203.903 1106.52 202.879 1106.52 201.086C1106.52 198.743 1109.38 198.126 1111.18 197.737L1111.3 197.71V176.135C1110.91 175.935 1109.51 175.038 1109.51 173.6C1109.51 172.225 1110.78 171.597 1111.24 171.369L1111.3 171.34H1112.5V161.751H1111.3V156.357H1112.5V154.559H1111.3V149.166C1111.5 148.566 1112.14 147.128 1113.1 146.169C1114.29 144.971 1116.68 143.173 1119.67 142.573V136.58H1118.47V135.382H1119.67V134.183H1120.86V131.176C1120.86 131.176 1119.97 131.176 1119.67 130.578C1119.59 130.424 1119.46 129.792 1119.67 129.383C1119.88 128.954 1120.18 128.679 1120.46 128.503V124.408H1117.97V122.408H1120.46V112.75Z" fill="#162B44"/>
</svg>
