<svg width="129" height="128" viewBox="0 0 129 128" fill="none" xmlns="http://www.w3.org/2000/svg">
<path opacity="0.1" d="M94.9282 118.3L122.702 28.5173L127.089 29.8756C128.145 30.2022 128.735 31.3224 128.409 32.3777L101.818 118.339C101.491 119.395 100.371 119.985 99.316 119.659L94.9282 118.3Z" fill="#071322"/>
<path d="M99.8058 27.2341C98.4138 26.8032 97.2514 25.8318 96.5743 24.5338C95.8973 23.2357 95.7611 21.7172 96.1957 20.3124L79.3999 15.1133L56.706 88.4757L51.6265 104.896L68.4223 110.095C68.8568 108.691 69.8266 107.514 71.1182 106.826C72.4098 106.137 73.9175 105.992 75.3095 106.423C76.7015 106.854 77.8639 107.825 78.541 109.123C79.218 110.422 79.3542 111.94 78.9196 113.345L95.7154 118.544L100.795 102.123L123.489 28.761L106.693 23.5619C106.258 24.9667 105.289 26.1428 103.997 26.8315C102.706 27.5201 101.198 27.665 99.8058 27.2341Z" fill="#DAE1EF"/>
<path d="M99.8058 27.2341C98.4138 26.8032 97.2514 25.8318 96.5743 24.5338C95.8973 23.2357 95.7611 21.7172 96.1957 20.3124L79.3999 15.1133L56.706 88.4757L51.6265 104.896L68.4223 110.095C68.8568 108.691 69.8266 107.514 71.1182 106.826C72.4098 106.137 73.9175 105.992 75.3095 106.423C76.7015 106.854 77.8639 107.825 78.541 109.123C79.218 110.422 79.3542 111.94 78.9196 113.345L95.7154 118.544L100.795 102.123L123.489 28.761L106.693 23.5619C106.258 24.9667 105.289 26.1428 103.997 26.8315C102.706 27.5201 101.198 27.665 99.8058 27.2341Z" fill="#DAE1EF"/>
<path d="M56.706 88.4757L79.3999 15.1133L96.1957 20.3124C95.7611 21.7172 95.8973 23.2357 96.5743 24.5338C97.2514 25.8318 98.4138 26.8032 99.8058 27.2341C101.198 27.665 102.706 27.5201 103.997 26.8315C105.289 26.1428 106.258 24.9667 106.693 23.5619L123.489 28.761L100.795 102.123M56.706 88.4757L51.6265 104.896L68.4223 110.095C68.8568 108.691 69.8266 107.514 71.1182 106.826C72.4098 106.137 73.9175 105.992 75.3095 106.423C76.7015 106.854 77.8639 107.825 78.541 109.123C79.218 110.422 79.3542 111.94 78.9196 113.345L95.7154 118.544L100.795 102.123M56.706 88.4757L62.3484 90.2223M100.795 102.123L95.8088 100.58" stroke="#071322" stroke-width="2" stroke-linecap="round" stroke-linejoin="round"/>
<path d="M65.4773 82.4312L82.0439 28.8764L113.536 38.6248L96.9694 92.1795L65.4773 82.4312Z" fill="#D62B48" stroke="#071322" stroke-width="2" stroke-linecap="round" stroke-linejoin="round"/>
<path d="M96.2744 72.1159L90.6703 67.0111M101.634 54.7893L94.1705 55.6958M94.1705 55.6958L80.1213 57.4021L90.6703 67.0111M94.1705 55.6958L90.6703 67.0111" stroke="#B9C2D7" stroke-width="2" stroke-linecap="round" stroke-linejoin="round"/>
<path d="M83.6597 79.4297L85.1214 74.7043" stroke="#B9C2D7" stroke-width="2" stroke-linecap="round" stroke-linejoin="round"/>
<path d="M93.892 46.3518L95.3537 41.6264" stroke="#B9C2D7" stroke-width="2" stroke-linecap="round" stroke-linejoin="round"/>
<path d="M67.7649 91.7693L75.6379 94.2064" stroke="#071322" stroke-width="2" stroke-linecap="round" stroke-linejoin="round"/>
<path d="M82.7236 96.3997L90.5966 98.8367" stroke="#071322" stroke-width="2" stroke-linecap="round" stroke-linejoin="round"/>
<path opacity="0.1" d="M81.7299 98.6023L89.9812 4.98214L94.5565 5.38566C95.6568 5.4827 96.4702 6.45334 96.3732 7.55365L88.4731 97.1892C88.3762 98.2896 87.4056 99.1029 86.3053 99.0058L81.7299 98.6023Z" fill="#071322"/>
<path d="M67.3287 8.55058C65.8772 8.42256 64.5364 7.71787 63.6013 6.59152C62.6662 5.46518 62.2134 4.00945 62.3425 2.54458L44.8289 0.999964L38.0867 77.4978L36.5776 94.6201L54.0913 96.1647C54.2204 94.6999 54.9208 93.3458 56.0385 92.4005C57.1562 91.4552 58.5995 90.9961 60.0511 91.1241C61.5026 91.2521 62.8434 91.9568 63.7785 93.0832C64.7136 94.2095 65.1664 95.6652 65.0373 97.1301L82.5509 98.6747L84.06 81.5524L90.8021 5.05457L73.2885 3.50996C73.1594 4.97483 72.459 6.32885 71.3413 7.27415C70.2236 8.21945 68.7802 8.6786 67.3287 8.55058Z" fill="#DAE1EF"/>
<path d="M67.3287 8.55058C65.8772 8.42256 64.5364 7.71787 63.6013 6.59152C62.6662 5.46518 62.2134 4.00945 62.3425 2.54458L44.8289 0.999964L38.0867 77.4978L36.5776 94.6201L54.0913 96.1647C54.2204 94.6999 54.9208 93.3458 56.0385 92.4005C57.1562 91.4552 58.5995 90.9961 60.0511 91.1241C61.5026 91.2521 62.8434 91.9568 63.7785 93.0832C64.7136 94.2095 65.1664 95.6652 65.0373 97.1301L82.5509 98.6747L84.06 81.5524L90.8021 5.05457L73.2885 3.50996C73.1594 4.97483 72.459 6.32885 71.3413 7.27415C70.2236 8.21945 68.7802 8.6786 67.3287 8.55058Z" fill="#DAE1EF"/>
<path d="M38.0867 77.4978L44.8289 0.999964L62.3425 2.54458C62.2134 4.00945 62.6662 5.46518 63.6013 6.59152C64.5364 7.71787 65.8772 8.42256 67.3287 8.55058C68.7802 8.6786 70.2236 8.21945 71.3413 7.27415C72.459 6.32885 73.1594 4.97483 73.2885 3.50996L90.8021 5.05457L84.06 81.5524M38.0867 77.4978L36.5776 94.6201L54.0913 96.1647C54.2204 94.6999 54.9208 93.3458 56.0385 92.4005C57.1562 91.4552 58.5995 90.9961 60.0511 91.1241C61.5026 91.2521 62.8434 91.9568 63.7785 93.0832C64.7136 94.2095 65.1664 95.6652 65.0373 97.1301L82.5509 98.6747L84.06 81.5524M38.0867 77.4978L43.9703 78.0167M84.06 81.5524L78.8607 81.0938" stroke="#071322" stroke-width="2" stroke-linecap="round" stroke-linejoin="round"/>
<path d="M45.389 69.7412L50.3108 13.8976L83.1488 16.7937L78.2271 72.6374L45.389 69.7412Z" fill="#D62B48" stroke="#071322" stroke-width="2" stroke-linecap="round" stroke-linejoin="round"/>
<path d="M73.3242 53.1698L66.7712 49.36M74.9165 35.1028L67.8111 37.5611M67.8111 37.5611L54.4361 42.1885L66.7712 49.36M67.8111 37.5611L66.7712 49.36" stroke="#B9C2D7" stroke-width="2" stroke-linecap="round" stroke-linejoin="round"/>
<path d="M62.5319 62.9771L62.9661 58.0497" stroke="#B9C2D7" stroke-width="2" stroke-linecap="round" stroke-linejoin="round"/>
<path d="M65.5718 28.4854L66.0061 23.558" stroke="#B9C2D7" stroke-width="2" stroke-linecap="round" stroke-linejoin="round"/>
<path d="M49.5909 78.3879L57.8004 79.112" stroke="#071322" stroke-width="2" stroke-linecap="round" stroke-linejoin="round"/>
<path d="M65.189 79.7637L73.3985 80.4877" stroke="#071322" stroke-width="2" stroke-linecap="round" stroke-linejoin="round"/>
<path opacity="0.1" d="M71.9876 113.646L44.317 23.8308L48.7064 22.4776C49.762 22.1521 50.8813 22.7441 51.2065 23.7997L77.6994 109.792C78.0246 110.847 77.4326 111.967 76.377 112.292L71.9876 113.646Z" fill="#071322"/>
<path d="M24.6848 35.6855C23.2922 36.1148 21.7848 35.9683 20.4939 35.2781C19.2031 34.588 18.2347 33.4107 17.8017 32.0054L1.00001 37.1853L23.6099 110.574L28.6706 127L45.4724 121.82C45.0394 120.415 45.1773 118.896 45.8559 117.599C46.5344 116.302 47.6979 115.332 49.0904 114.903C50.4829 114.473 51.9904 114.62 53.2813 115.31C54.5721 116 55.5405 117.177 55.9734 118.583L72.7752 113.403L67.7145 96.9765L45.1046 23.5881L28.3028 28.768C28.7358 30.1733 28.5978 31.6916 27.9193 32.9889C27.2408 34.2862 26.0773 35.2562 24.6848 35.6855Z" fill="#DAE1EF"/>
<path d="M24.6848 35.6855C23.2922 36.1148 21.7848 35.9683 20.4939 35.2781C19.2031 34.588 18.2347 33.4107 17.8017 32.0054L1.00001 37.1853L23.6099 110.574L28.6706 127L45.4724 121.82C45.0394 120.415 45.1773 118.896 45.8559 117.599C46.5344 116.302 47.6979 115.332 49.0904 114.903C50.4829 114.473 51.9904 114.62 53.2813 115.31C54.5721 116 55.5405 117.177 55.9734 118.583L72.7752 113.403L67.7145 96.9765L45.1046 23.5881L28.3028 28.768C28.7358 30.1733 28.5978 31.6916 27.9193 32.9889C27.2408 34.2862 26.0773 35.2562 24.6848 35.6855Z" fill="#DAE1EF"/>
<path d="M23.6099 110.574L1.00001 37.1853L17.8017 32.0054C18.2347 33.4107 19.2031 34.588 20.4939 35.2781C21.7848 35.9683 23.2922 36.1148 24.6848 35.6855C26.0773 35.2562 27.2408 34.2862 27.9193 32.9889C28.5978 31.6916 28.7358 30.1733 28.3028 28.768L45.1046 23.5881L67.7145 96.9765M23.6099 110.574L28.6706 127L45.4724 121.82C45.0394 120.415 45.1773 118.896 45.8559 117.599C46.5344 116.302 47.6979 115.332 49.0904 114.903C50.4829 114.473 51.9904 114.62 53.2813 115.31C54.5721 116 55.5405 117.177 55.9734 118.583L72.7752 113.403L67.7145 96.9765M23.6099 110.574L29.2543 108.834M67.7145 96.9765L62.7265 98.5142" stroke="#071322" stroke-width="2" stroke-linecap="round" stroke-linejoin="round"/>
<path d="M27.4468 100.634L10.9415 47.0606L42.4448 37.3483L58.9501 90.922L27.4468 100.634Z" fill="#D62B48" stroke="#071322" stroke-width="2" stroke-linecap="round" stroke-linejoin="round"/>
<path d="M47.0667 74.7439L39.561 73.6891M41.7268 57.4113L36.0737 62.3698M36.0737 62.3698L25.4327 71.7034L39.561 73.6891M36.0737 62.3698L39.561 73.6891" stroke="#B9C2D7" stroke-width="2" stroke-linecap="round" stroke-linejoin="round"/>
<path d="M40.7712 87.8997L39.3149 83.1726" stroke="#B9C2D7" stroke-width="2" stroke-linecap="round" stroke-linejoin="round"/>
<path d="M30.5768 54.8101L29.1204 50.083" stroke="#B9C2D7" stroke-width="2" stroke-linecap="round" stroke-linejoin="round"/>
<path d="M34.5995 107.056L42.4753 104.628" stroke="#071322" stroke-width="2" stroke-linecap="round" stroke-linejoin="round"/>
<path d="M49.5636 102.443L57.4394 100.015" stroke="#071322" stroke-width="2" stroke-linecap="round" stroke-linejoin="round"/>
</svg>
