<svg width="316" height="180" viewBox="0 0 316 180" fill="none" xmlns="http://www.w3.org/2000/svg">
<path d="M158.5 19L117 33.774L123.33 88.5535L158.5 108L193.67 88.5535L200 33.774L158.5 19Z" fill="#365272"/>
<path d="M158.501 28.8347L132.558 86.9072H142.231L147.446 73.9132H169.466L174.682 86.9072H184.355L158.501 28.8347ZM166.079 65.9032H150.923L158.501 47.7027L166.079 65.9032Z" fill="#162B44"/>
<path d="M34.1292 147.569H24.0383L22.1198 153.532H16L26.3979 124.59H31.7312L42.1867 153.532H36.0668L34.1292 147.569ZM25.5922 142.739H32.5753L29.0646 131.905L25.5922 142.739Z" fill="#365272"/>
<path d="M49.7921 132.024L49.9648 134.509C51.4484 132.588 53.4371 131.627 55.9311 131.627C58.1309 131.627 59.768 132.296 60.8423 133.635C61.9166 134.973 62.4666 136.974 62.4922 139.638V153.532H56.9479V139.777C56.9479 138.558 56.6921 137.676 56.1805 137.133C55.6689 136.576 54.8184 136.298 53.629 136.298C52.0687 136.298 50.8984 136.987 50.1182 138.365V153.532H44.574V132.024H49.7921Z" fill="#365272"/>
<path d="M67.0857 142.619C67.0857 139.32 67.8403 136.663 69.3494 134.648C70.8714 132.634 72.9177 131.627 75.4884 131.627C77.765 131.627 79.5363 132.435 80.8025 134.052L81.0327 132.024H86.059V152.817C86.059 154.698 85.6433 156.335 84.812 157.726C83.9935 159.118 82.836 160.178 81.3397 160.907C79.8433 161.636 78.0911 162 76.0831 162C74.5612 162 73.0776 161.682 71.6324 161.046C70.1871 160.423 69.0936 159.615 68.3518 158.621L70.8074 155.122C72.1887 156.726 73.8641 157.528 75.8337 157.528C77.3045 157.528 78.4492 157.117 79.2677 156.295C80.0863 155.487 80.4955 154.334 80.4955 152.836V151.683C79.2166 153.181 77.5348 153.93 75.4501 153.93C72.9561 153.93 70.9353 152.923 69.3878 150.908C67.853 148.881 67.0857 146.197 67.0857 142.858V142.619ZM72.63 143.037C72.63 144.985 73.0072 146.515 73.7618 147.628C74.5164 148.728 75.5524 149.278 76.8697 149.278C78.5579 149.278 79.7665 148.622 80.4955 147.31V138.266C79.7537 136.954 78.5579 136.298 76.9081 136.298C75.5779 136.298 74.5292 136.861 73.7618 137.988C73.0072 139.114 72.63 140.797 72.63 143.037Z" fill="#365272"/>
<path d="M103.947 151.346C102.579 153.068 100.686 153.93 98.2687 153.93C96.0433 153.93 94.3423 153.267 93.1657 151.942C92.0018 150.617 91.4071 148.675 91.3815 146.118V132.024H96.9258V145.919C96.9258 148.159 97.9106 149.278 99.8802 149.278C101.76 149.278 103.052 148.602 103.755 147.251V132.024H109.319V153.532H104.101L103.947 151.346Z" fill="#365272"/>
<path d="M120.531 153.532H114.968V123H120.531V153.532Z" fill="#365272"/>
<path d="M138.323 153.532C138.068 153.015 137.882 152.373 137.767 151.604C136.424 153.154 134.678 153.93 132.53 153.93C130.496 153.93 128.808 153.32 127.465 152.101C126.135 150.882 125.47 149.345 125.47 147.489C125.47 145.21 126.282 143.461 127.906 142.242C129.543 141.022 131.903 140.406 134.985 140.393H137.537V139.161C137.537 138.167 137.287 137.372 136.789 136.775C136.303 136.179 135.529 135.881 134.467 135.881C133.534 135.881 132.798 136.113 132.261 136.576C131.737 137.04 131.475 137.676 131.475 138.485H125.93C125.93 137.239 126.301 136.086 127.043 135.026C127.785 133.966 128.833 133.138 130.189 132.541C131.545 131.932 133.067 131.627 134.755 131.627C137.313 131.627 139.34 132.296 140.837 133.635C142.346 134.96 143.1 136.828 143.1 139.24V148.563C143.113 150.603 143.388 152.147 143.925 153.194V153.532H138.323ZM133.738 149.537C134.557 149.537 135.311 149.351 136.002 148.98C136.693 148.596 137.204 148.086 137.537 147.45V143.752H135.465C132.69 143.752 131.212 144.746 131.033 146.734L131.014 147.072C131.014 147.787 131.257 148.377 131.743 148.841C132.229 149.305 132.894 149.537 133.738 149.537Z" fill="#365272"/>
<path d="M160.202 137.411C159.447 137.305 158.782 137.252 158.207 137.252C156.109 137.252 154.734 137.988 154.082 139.459V153.532H148.538V132.024H153.775L153.929 134.589C155.041 132.614 156.583 131.627 158.552 131.627C159.166 131.627 159.742 131.713 160.279 131.885L160.202 137.411Z" fill="#365272"/>
<path d="M185.715 146.356L192.046 124.59H198.453L188.727 153.532H182.722L173.034 124.59H179.422L185.715 146.356Z" fill="#365272"/>
<path d="M207.766 153.532H202.203V132.024H207.766V153.532ZM201.877 126.459C201.877 125.597 202.152 124.888 202.701 124.332C203.264 123.775 204.025 123.497 204.984 123.497C205.931 123.497 206.685 123.775 207.248 124.332C207.811 124.888 208.092 125.597 208.092 126.459C208.092 127.333 207.805 128.049 207.229 128.606C206.666 129.162 205.918 129.44 204.984 129.44C204.051 129.44 203.296 129.162 202.721 128.606C202.158 128.049 201.877 127.333 201.877 126.459Z" fill="#365272"/>
<path d="M223.084 153.93C220.04 153.93 217.559 152.962 215.64 151.028C213.735 149.093 212.782 146.515 212.782 143.295V142.739C212.782 140.578 213.185 138.65 213.99 136.954C214.796 135.245 215.934 133.933 217.405 133.018C218.889 132.091 220.577 131.627 222.47 131.627C225.309 131.627 227.541 132.555 229.165 134.41C230.802 136.265 231.621 138.896 231.621 142.301V144.647H218.403C218.582 146.051 219.119 147.178 220.014 148.026C220.922 148.874 222.067 149.298 223.448 149.298C225.584 149.298 227.253 148.496 228.455 146.893L231.18 150.054C230.348 151.273 229.223 152.227 227.803 152.916C226.383 153.592 224.81 153.93 223.084 153.93ZM222.451 136.278C221.351 136.278 220.455 136.663 219.765 137.431C219.087 138.2 218.652 139.3 218.46 140.731H226.172V140.274C226.147 139.002 225.814 138.021 225.175 137.332C224.535 136.629 223.627 136.278 222.451 136.278Z" fill="#365272"/>
<path d="M241.068 132.024L241.241 134.509C242.724 132.588 244.713 131.627 247.207 131.627C249.407 131.627 251.044 132.296 252.118 133.635C253.192 134.973 253.742 136.974 253.768 139.638V153.532H248.224V139.777C248.224 138.558 247.968 137.676 247.456 137.133C246.945 136.576 246.094 136.298 244.905 136.298C243.344 136.298 242.174 136.987 241.394 138.365V153.532H235.85V132.024H241.068Z" fill="#365272"/>
<path d="M264.27 132.024L264.443 134.509C265.927 132.588 267.915 131.627 270.409 131.627C272.609 131.627 274.246 132.296 275.32 133.635C276.395 134.973 276.945 136.974 276.97 139.638V153.532H271.426V139.777C271.426 138.558 271.17 137.676 270.659 137.133C270.147 136.576 269.297 136.298 268.107 136.298C266.547 136.298 265.377 136.987 264.596 138.365V153.532H259.052V132.024H264.27Z" fill="#365272"/>
<path d="M294.398 153.532C294.142 153.015 293.957 152.373 293.842 151.604C292.499 153.154 290.753 153.93 288.604 153.93C286.571 153.93 284.883 153.32 283.54 152.101C282.21 150.882 281.545 149.345 281.545 147.489C281.545 145.21 282.357 143.461 283.981 142.242C285.618 141.022 287.978 140.406 291.06 140.393H293.612V139.161C293.612 138.167 293.362 137.372 292.863 136.775C292.377 136.179 291.604 135.881 290.542 135.881C289.608 135.881 288.873 136.113 288.336 136.576C287.812 137.04 287.549 137.676 287.549 138.485H282.005C282.005 137.239 282.376 136.086 283.118 135.026C283.86 133.966 284.908 133.138 286.264 132.541C287.62 131.932 289.142 131.627 290.83 131.627C293.388 131.627 295.415 132.296 296.911 133.635C298.42 134.96 299.175 136.828 299.175 139.24V148.563C299.188 150.603 299.463 152.147 300 153.194V153.532H294.398ZM289.813 149.537C290.632 149.537 291.386 149.351 292.077 148.98C292.767 148.596 293.279 148.086 293.612 147.45V143.752H291.54C288.764 143.752 287.287 144.746 287.108 146.734L287.089 147.072C287.089 147.787 287.332 148.377 287.818 148.841C288.304 149.305 288.969 149.537 289.813 149.537Z" fill="#365272"/>
</svg>
