<svg width="316" height="180" viewBox="0 0 316 180" fill="none" xmlns="http://www.w3.org/2000/svg">
<path d="M70.5 32L16 51.422L24.3126 123.436L70.5 149L116.687 123.436L125 51.422L70.5 32Z" fill="#365272"/>
<path d="M70.5005 44.9287L36.4307 121.271H49.1337L55.9828 104.189H84.9011L91.7502 121.271H104.453L70.5005 44.9287ZM80.4522 93.6592H60.5488L70.5005 69.7327L80.4522 93.6592Z" fill="#162B44"/>
<path d="M158.246 59.6536H148.91L147.279 64.9588H140L150.365 36.5604H156.771L167.214 64.9588H159.896L158.246 59.6536ZM150.54 54.3679H156.616L153.568 44.5182L150.54 54.3679Z" fill="#365272"/>
<path d="M176.451 43.855L176.665 46.3321C178.114 44.4206 180.113 43.4649 182.662 43.4649C184.849 43.4649 186.48 44.1216 187.554 45.4349C188.641 46.7482 189.204 48.7246 189.243 51.3642V64.9588H182.682V51.6373C182.682 50.5711 182.468 49.7909 182.041 49.2968C181.614 48.7896 180.838 48.5361 179.712 48.5361C178.431 48.5361 177.48 49.0432 176.859 50.0574V64.9588H170.317V43.855H176.451Z" fill="#365272"/>
<path d="M194.501 54.2509C194.501 52.1184 194.85 50.233 195.549 48.5946C196.248 46.9562 197.25 45.6949 198.557 44.8107C199.864 43.9135 201.385 43.4649 203.119 43.4649C205.306 43.4649 207.014 44.2061 208.243 45.6884L208.476 43.855H214.416V64.1592C214.416 66.0186 213.983 67.6309 213.116 68.9963C212.261 70.3746 211.019 71.4278 209.389 72.156C207.758 72.8971 205.869 73.2677 203.721 73.2677C202.181 73.2677 200.686 72.9752 199.237 72.39C197.8 71.8049 196.701 71.0442 195.937 70.108L198.674 66.2461C199.89 67.6895 201.495 68.4111 203.488 68.4111C206.386 68.4111 207.836 66.9158 207.836 63.9251V63.2619C206.581 64.6533 204.995 65.3489 203.08 65.3489C200.518 65.3489 198.447 64.3672 196.869 62.4038C195.29 60.4273 194.501 57.7877 194.501 54.4849V54.2509ZM201.061 54.6605C201.061 56.3899 201.385 57.7617 202.032 58.7759C202.679 59.7772 203.585 60.2778 204.749 60.2778C206.16 60.2778 207.189 59.8032 207.836 58.8539V49.9794C207.202 49.0172 206.186 48.5361 204.788 48.5361C203.624 48.5361 202.711 49.0627 202.051 50.1159C201.391 51.1562 201.061 52.671 201.061 54.6605Z" fill="#365272"/>
<path d="M233.029 62.6768C231.644 64.4582 229.774 65.3489 227.419 65.3489C225.115 65.3489 223.369 64.6793 222.178 63.34C221 61.9877 220.412 60.0502 220.412 57.5276V43.855H226.953V57.5666C226.953 59.3741 227.827 60.2778 229.573 60.2778C231.075 60.2778 232.142 59.7381 232.776 58.6589V43.855H239.356V64.9588H233.223L233.029 62.6768Z" fill="#365272"/>
<path d="M252.243 64.9588H245.682V35H252.243V64.9588Z" fill="#365272"/>
<path d="M270.506 64.9588C270.273 64.5297 270.066 63.8991 269.885 63.0669C268.681 64.5882 266.999 65.3489 264.838 65.3489C262.858 65.3489 261.176 64.7508 259.791 63.5545C258.407 62.3452 257.714 60.8304 257.714 59.01C257.714 56.7215 258.555 54.9921 260.238 53.8218C261.92 52.6515 264.366 52.0664 267.575 52.0664H269.594V50.9546C269.594 49.0172 268.759 48.0485 267.09 48.0485C265.537 48.0485 264.76 48.8157 264.76 50.35H258.219C258.219 48.3085 259.08 46.6507 260.801 45.3764C262.535 44.1021 264.741 43.4649 267.42 43.4649C270.098 43.4649 272.214 44.1216 273.767 45.4349C275.32 46.7482 276.116 48.5491 276.155 50.8376V60.1802C276.18 62.1177 276.478 63.6 277.047 64.6273V64.9588H270.506ZM266.41 60.6679C267.226 60.6679 267.898 60.4923 268.429 60.1412C268.973 59.7902 269.361 59.3936 269.594 58.9515V55.5772H267.691C265.414 55.5772 264.275 56.6044 264.275 58.6589C264.275 59.257 264.476 59.7446 264.877 60.1217C265.278 60.4858 265.789 60.6679 266.41 60.6679Z" fill="#365272"/>
<path d="M294.884 49.8039L292.729 49.6478C290.671 49.6478 289.351 50.298 288.769 51.5983V64.9588H282.228V43.855H288.362L288.575 46.5661C289.675 44.4987 291.208 43.4649 293.175 43.4649C293.874 43.4649 294.482 43.5429 295 43.699L294.884 49.8039Z" fill="#365272"/>
<path d="M151.142 76.8859L157.45 96.6439L163.739 76.8859H172.707V105.284H165.874V98.6529L166.534 85.0778L159.702 105.284H155.199L148.347 85.0583L149.007 98.6529V105.284H142.193V76.8859H151.142Z" fill="#365272"/>
<path d="M189.301 105.674C186.079 105.674 183.471 104.712 181.478 102.788C179.486 100.85 178.489 98.3343 178.489 95.2396V94.6935C178.489 92.535 178.884 90.63 179.673 88.9787C180.475 87.3273 181.64 86.053 183.167 85.1558C184.694 84.2456 186.506 83.7905 188.602 83.7905C191.553 83.7905 193.882 84.7137 195.59 86.5601C197.298 88.3935 198.152 90.9551 198.152 94.2449V96.7999H185.147C185.38 97.9832 185.891 98.9129 186.68 99.5891C187.47 100.265 188.492 100.603 189.747 100.603C191.818 100.603 193.435 99.8751 194.6 98.4188L197.589 101.969C196.774 103.1 195.616 104.004 194.115 104.68C192.627 105.343 191.022 105.674 189.301 105.674ZM188.563 88.8616C186.648 88.8616 185.509 90.1359 185.147 92.6845H191.747V92.1774C191.773 91.1241 191.507 90.3115 190.951 89.7393C190.394 89.1542 189.599 88.8616 188.563 88.8616Z" fill="#365272"/>
<path d="M213.348 105.674C210.126 105.674 207.519 104.712 205.526 102.788C203.533 100.85 202.537 98.3343 202.537 95.2396V94.6935C202.537 92.535 202.931 90.63 203.721 88.9787C204.523 87.3273 205.688 86.053 207.215 85.1558C208.742 84.2456 210.553 83.7905 212.65 83.7905C215.6 83.7905 217.929 84.7137 219.638 86.5601C221.346 88.3935 222.2 90.9551 222.2 94.2449V96.7999H209.195C209.427 97.9832 209.939 98.9129 210.728 99.5891C211.517 100.265 212.54 100.603 213.795 100.603C215.865 100.603 217.483 99.8751 218.648 98.4188L221.637 101.969C220.822 103.1 219.663 104.004 218.162 104.68C216.674 105.343 215.07 105.674 213.348 105.674ZM212.611 88.8616C210.696 88.8616 209.557 90.1359 209.195 92.6845H215.794V92.1774C215.82 91.1241 215.555 90.3115 214.998 89.7393C214.442 89.1542 213.646 88.8616 212.611 88.8616Z" fill="#365272"/>
<path d="M234.853 78.9339V84.1806H238.308V88.7446H234.853V98.3993C234.853 99.1925 234.996 99.7451 235.28 100.057C235.565 100.369 236.128 100.525 236.969 100.525C237.616 100.525 238.159 100.486 238.599 100.408V105.109C237.422 105.486 236.193 105.674 234.911 105.674C232.66 105.674 230.997 105.141 229.923 104.075C228.849 103.009 228.312 101.39 228.312 99.2185V88.7446H225.633V84.1806H228.312V78.9339H234.853Z" fill="#365272"/>
<path d="M255.795 103.002C254.41 104.784 252.54 105.674 250.185 105.674C247.882 105.674 246.135 105.005 244.944 103.666C243.767 102.313 243.178 100.376 243.178 97.8532V84.1806H249.719V97.8922C249.719 99.6996 250.593 100.603 252.34 100.603C253.841 100.603 254.909 100.064 255.543 98.9844V84.1806H262.123V105.284H255.989L255.795 103.002Z" fill="#365272"/>
<path d="M287.607 94.8885C287.607 98.1652 286.869 100.785 285.394 102.749C283.932 104.699 281.952 105.674 279.454 105.674C277.526 105.674 275.941 104.966 274.699 103.548V113.398H268.157V84.1806H274.272L274.466 86.131C275.721 84.5706 277.371 83.7905 279.416 83.7905C282.004 83.7905 284.016 84.7527 285.452 86.6771C286.889 88.5886 287.607 91.2217 287.607 94.5764V94.8885ZM281.065 94.4789C281.065 90.7341 279.978 88.8616 277.804 88.8616C276.252 88.8616 275.216 89.4208 274.699 90.539V98.8479C275.268 100.018 276.316 100.603 277.843 100.603C279.927 100.603 281.001 98.7959 281.065 95.1811V94.4789Z" fill="#365272"/>
<path d="M142.193 145.61V117.211H152.345C155.981 117.211 158.744 117.881 160.634 119.22C162.536 120.56 163.487 122.504 163.487 125.052C163.487 126.522 163.151 127.776 162.478 128.817C161.805 129.857 160.815 130.624 159.508 131.118C160.983 131.508 162.115 132.236 162.905 133.303C163.694 134.369 164.089 135.669 164.089 137.203C164.089 139.986 163.209 142.08 161.449 143.484C159.702 144.875 157.107 145.584 153.665 145.61H142.193ZM149.007 133.537V140.344H153.471C154.7 140.344 155.645 140.064 156.305 139.505C156.965 138.933 157.295 138.133 157.295 137.106C157.295 134.739 156.124 133.55 153.782 133.537H149.007ZM149.007 129.051H152.559C154.047 129.038 155.108 128.765 155.742 128.231C156.376 127.698 156.693 126.912 156.693 125.871C156.693 124.675 156.35 123.817 155.664 123.297C154.979 122.764 153.872 122.497 152.345 122.497H149.007V129.051Z" fill="#365272"/>
<path d="M180.1 146C176.878 146 174.271 145.038 172.278 143.113C170.285 141.176 169.288 138.66 169.288 135.565V135.019C169.288 132.861 169.683 130.956 170.472 129.304C171.275 127.653 172.439 126.379 173.966 125.481C175.493 124.571 177.305 124.116 179.401 124.116C182.352 124.116 184.681 125.039 186.389 126.886C188.097 128.719 188.951 131.281 188.951 134.57V137.125H175.946C176.179 138.309 176.69 139.238 177.48 139.915C178.269 140.591 179.291 140.929 180.547 140.929C182.617 140.929 184.235 140.201 185.399 138.744L188.389 142.294C187.573 143.425 186.415 144.329 184.914 145.005C183.426 145.668 181.821 146 180.1 146ZM179.363 129.187C177.447 129.187 176.309 130.461 175.946 133.01H182.546V132.503C182.572 131.45 182.307 130.637 181.75 130.065C181.194 129.48 180.398 129.187 179.363 129.187Z" fill="#365272"/>
<path d="M206.691 130.455L204.536 130.299C202.478 130.299 201.159 130.949 200.576 132.249V145.61H194.035V124.506H200.169L200.382 127.217C201.482 125.15 203.015 124.116 204.982 124.116C205.681 124.116 206.289 124.194 206.807 124.35L206.691 130.455Z" fill="#365272"/>
<path d="M218.335 145.61H211.774V115.651H218.335V145.61Z" fill="#365272"/>
<path d="M231.667 145.61H225.107V124.506H231.667V145.61ZM224.718 119.064C224.718 118.128 225.055 117.361 225.728 116.763C226.401 116.165 227.274 115.866 228.348 115.866C229.422 115.866 230.296 116.165 230.969 116.763C231.642 117.361 231.978 118.128 231.978 119.064C231.978 120.001 231.642 120.768 230.969 121.366C230.296 121.964 229.422 122.263 228.348 122.263C227.274 122.263 226.401 121.964 225.728 121.366C225.055 120.768 224.718 120.001 224.718 119.064Z" fill="#365272"/>
<path d="M244.107 124.506L244.321 126.983C245.77 125.072 247.77 124.116 250.319 124.116C252.506 124.116 254.136 124.773 255.21 126.086C256.297 127.399 256.86 129.376 256.899 132.015V145.61H250.338V132.288C250.338 131.222 250.125 130.442 249.698 129.948C249.271 129.441 248.494 129.187 247.368 129.187C246.087 129.187 245.136 129.694 244.515 130.709V145.61H237.974V124.506H244.107Z" fill="#365272"/>
</svg>
