<svg width="316" height="180" viewBox="0 0 316 180" fill="none" xmlns="http://www.w3.org/2000/svg">
<path fill-rule="evenodd" clip-rule="evenodd" d="M111 32.6L158 16L205 32.6L197.831 94.15L158 116L118.169 94.15L111 32.6ZM187.265 49.6239C189.738 51.9981 191.543 54.8152 192.428 58.1285C194.847 67.1469 192.5 75.0845 186.669 82.2249C186.655 82.2389 186.64 82.2541 186.623 82.2705C186.515 82.3788 186.355 82.5387 186.073 82.7387C186.073 82.2603 186.073 81.8528 186.091 81.5516C186.103 81.1249 186.126 80.6982 186.148 80.2722C186.192 79.4245 186.236 78.5794 186.2 77.7422C186.109 75.5098 184.629 73.7911 182.589 73.4722C181.145 73.2419 179.917 73.7202 178.906 74.7302C178.273 75.3379 177.661 75.9661 177.006 76.6385C176.802 76.8483 176.593 77.0624 176.378 77.2815C176.361 77.2323 176.344 77.1854 176.328 77.1406C176.213 76.8141 176.135 76.596 176.072 76.3779C175.422 74.3049 174.104 73.3127 171.901 73.2241C168.435 73.0824 165.763 74.4644 163.94 77.3347C161.683 80.896 159.896 84.7054 158.542 88.6919C158.477 88.8587 158.408 89.0256 158.332 89.2131C158.237 89.4439 158.129 89.7061 158 90.0385C157.96 89.9432 157.922 89.8537 157.887 89.769C157.697 89.3184 157.565 89.0051 157.458 88.6919C156.104 84.7054 154.335 80.896 152.06 77.3347C150.237 74.4644 147.565 73.0824 144.099 73.2241C141.896 73.3127 140.578 74.3227 139.928 76.3779C139.883 76.5221 139.831 76.6732 139.763 76.8703C139.722 76.9881 139.676 77.1224 139.622 77.2815C139.228 76.8875 138.857 76.5097 138.498 76.1439C138.018 75.6544 137.559 75.1865 137.094 74.7302C136.083 73.738 134.855 73.2419 133.411 73.4722C131.371 73.7911 129.891 75.5098 129.8 77.7422C129.764 78.5912 129.808 79.4324 129.852 80.2761C129.874 80.7002 129.897 81.1249 129.909 81.5516C129.927 81.8527 129.927 82.2424 129.927 82.7384C129.602 82.508 129.421 82.3489 129.331 82.2249C123.5 75.1022 121.153 67.1469 123.572 58.1285C124.457 54.8152 126.262 51.9803 128.735 49.6239C130.375 48.0471 132.167 46.6492 133.957 45.2525C134.118 45.1269 134.279 45.0012 134.44 44.8755C134.512 44.8185 134.581 44.7652 134.645 44.7151C135.637 43.9393 135.664 43.9181 135.325 42.5367C135.268 42.3018 135.218 42.0669 135.166 41.823C135.136 41.6807 135.105 41.5352 135.072 41.385C135.821 41.1607 136.24 41.5413 136.687 41.9472C136.875 42.1183 137.068 42.2938 137.293 42.4304C137.357 42.0682 137.421 41.7199 137.485 41.3717C137.565 40.9364 137.646 40.5011 137.726 40.0385C138.972 40.6763 138.99 41.7394 139.008 42.9619C139.73 42.4835 140.362 42.0583 141.12 41.5445C141.03 42.8379 140.506 43.7238 139.585 44.2908C136.751 46.0094 136.173 48.0115 137.69 51.5551C139.856 56.6047 146.085 59.8294 151.194 58.6068C151.293 58.5803 151.392 58.5448 151.517 58.5005C151.641 58.4562 151.79 58.4031 151.988 58.3411C151.507 58.0048 151.058 57.6872 150.626 57.381C150.216 57.0903 149.82 56.81 149.425 56.5339C149.257 56.4161 149.078 56.3053 148.898 56.1937C148.672 56.0535 148.444 55.9121 148.233 55.7543C147.24 55.0278 147.222 54.7975 147.8 53.7699C148.504 52.4764 149.569 51.626 151.14 51.2185C149.533 47.728 149.804 44.4325 152.06 41.3141C151.987 42.9987 152.746 44.3564 153.518 45.7369C153.882 46.3891 154.25 47.0465 154.534 47.7458C155.689 47.356 156.845 47.1611 158 47.1611C159.155 47.1611 160.311 47.356 161.466 47.7458C161.75 47.0465 162.118 46.3891 162.482 45.7369C163.254 44.3564 164.013 42.9987 163.94 41.3141C166.196 44.4325 166.467 47.728 164.86 51.2185C166.413 51.6437 167.478 52.4942 168.2 53.7699C168.76 54.7975 168.742 55.0278 167.767 55.7543C167.532 55.9296 167.284 56.0846 167.035 56.2402C166.881 56.3362 166.727 56.4324 166.575 56.5339L166.575 56.5344C165.762 57.1012 164.95 57.668 164.012 58.3411C164.409 58.4828 164.608 58.5537 164.806 58.6068C169.915 59.8294 176.162 56.6047 178.31 51.5551C179.827 47.9938 179.249 46.0094 176.415 44.2908C175.494 43.7415 174.97 42.8556 174.88 41.5445C175.638 42.0583 176.27 42.4835 176.992 42.9619C177.01 41.7394 177.046 40.6763 178.274 40.0385C178.382 40.5937 178.475 41.1175 178.567 41.6413C178.613 41.903 178.659 42.1647 178.707 42.4304C178.932 42.2938 179.124 42.1199 179.31 41.9506C179.752 41.5488 180.166 41.1731 180.928 41.385C180.895 41.5353 180.864 41.6808 180.834 41.8232C180.782 42.0669 180.732 42.3018 180.675 42.5367C180.336 43.9181 180.363 43.9393 181.355 44.7151C181.419 44.7652 181.488 44.8185 181.56 44.8755C181.643 44.9401 181.725 45.0047 181.808 45.0694C183.676 46.5288 185.553 47.9951 187.265 49.6239Z" fill="#365272"/>
<path d="M29.1125 154.104H22.4028L21.2311 157.96H16L23.449 137.319H28.0524L35.5572 157.96H30.2983L29.1125 154.104ZM23.5746 150.262H27.9408L25.7507 143.103L23.5746 150.262Z" fill="#365272"/>
<path d="M41.0528 142.621L41.2062 144.422C42.2478 143.032 43.6846 142.338 45.5166 142.338C47.0883 142.338 48.26 142.815 49.0319 143.77C49.8131 144.724 50.2176 146.161 50.2455 148.079V157.96H45.5306V148.278C45.5306 147.503 45.3771 146.936 45.0702 146.577C44.7633 146.208 44.2054 146.024 43.3963 146.024C42.4756 146.024 41.7921 146.392 41.3457 147.129V157.96H36.6447V142.621H41.0528Z" fill="#365272"/>
<path d="M52.8814 150.177C52.8814 148.627 53.1325 147.257 53.6347 146.066C54.1369 144.875 54.8576 143.959 55.7968 143.316C56.7361 142.664 57.8288 142.338 59.075 142.338C60.6466 142.338 61.8742 142.876 62.7577 143.954L62.925 142.621H67.1936V157.379C67.1936 158.731 66.8821 159.903 66.259 160.895C65.6452 161.897 64.7524 162.662 63.5807 163.192C62.4089 163.73 61.0512 164 59.5074 164C58.4008 164 57.3266 163.787 56.2851 163.362C55.2528 162.936 54.4623 162.384 53.9137 161.703L55.8805 158.896C56.7547 159.945 57.9079 160.47 59.34 160.47C61.4231 160.47 62.4647 159.383 62.4647 157.209V156.727C61.5626 157.738 60.4234 158.244 59.0471 158.244C57.2057 158.244 55.7178 157.53 54.5832 156.103C53.4487 154.667 52.8814 152.748 52.8814 150.348V150.177ZM57.5963 150.475C57.5963 151.732 57.8288 152.729 58.2938 153.466C58.7588 154.194 59.4098 154.558 60.2467 154.558C61.2604 154.558 61.9997 154.213 62.4647 153.523V147.073C62.009 146.373 61.279 146.024 60.2746 146.024C59.4377 146.024 58.782 146.406 58.3078 147.172C57.8335 147.928 57.5963 149.029 57.5963 150.475Z" fill="#365272"/>
<path d="M79.4268 156.302C78.4317 157.597 77.0879 158.244 75.3954 158.244C73.74 158.244 72.4846 157.757 71.629 156.784C70.7827 155.801 70.3596 154.393 70.3596 152.559V142.621H75.0606V152.587C75.0606 153.901 75.6883 154.558 76.9437 154.558C78.0225 154.558 78.7897 154.166 79.2454 153.381V142.621H83.9743V157.96H79.5663L79.4268 156.302Z" fill="#365272"/>
<path d="M92.0924 157.96H87.3774V136.185H92.0924V157.96Z" fill="#365272"/>
<path d="M104.074 157.96C103.907 157.649 103.758 157.19 103.628 156.585C102.763 157.691 101.554 158.244 100.001 158.244C98.5783 158.244 97.3694 157.809 96.3743 156.94C95.3792 156.061 94.8817 154.96 94.8817 153.637C94.8817 151.973 95.4862 150.716 96.6951 149.866C97.9041 149.015 99.6617 148.59 101.968 148.59H103.419V147.782C103.419 146.373 102.819 145.669 101.619 145.669C100.503 145.669 99.9454 146.227 99.9454 147.342H95.2444C95.2444 145.858 95.8628 144.653 97.0997 143.727C98.3458 142.801 99.9314 142.338 101.856 142.338C103.782 142.338 105.302 142.815 106.418 143.77C107.534 144.724 108.106 146.033 108.134 147.697V154.487C108.152 155.895 108.366 156.973 108.775 157.719V157.96H104.074ZM101.131 154.842C101.717 154.842 102.201 154.714 102.582 154.459C102.972 154.204 103.251 153.915 103.419 153.594V151.141H102.052C100.415 151.141 99.5966 151.888 99.5966 153.381C99.5966 153.816 99.7408 154.171 100.029 154.445C100.317 154.709 100.685 154.842 101.131 154.842Z" fill="#365272"/>
<path d="M120.451 146.945L118.902 146.832C117.424 146.832 116.475 147.304 116.057 148.249V157.96H111.356V142.621H115.764L115.917 144.592C116.707 143.089 117.81 142.338 119.223 142.338C119.725 142.338 120.162 142.394 120.534 142.508L120.451 146.945Z" fill="#365272"/>
<path d="M131.024 137.319H135.906V151.482C135.906 152.795 135.604 153.967 134.999 154.997C134.404 156.028 133.567 156.826 132.488 157.393C131.419 157.96 130.224 158.244 128.903 158.244C126.69 158.244 124.97 157.677 123.742 156.543C122.515 155.409 121.901 153.802 121.901 151.723H126.811C126.811 152.668 126.969 153.353 127.285 153.778C127.611 154.204 128.15 154.416 128.903 154.416C129.582 154.416 130.103 154.161 130.466 153.651C130.838 153.131 131.024 152.408 131.024 151.482V137.319Z" fill="#365272"/>
<path d="M150.05 152.474C150.05 151.746 149.795 151.179 149.283 150.773C148.781 150.366 147.893 149.946 146.619 149.511C145.345 149.076 144.303 148.656 143.494 148.249C140.862 146.936 139.546 145.131 139.546 142.834C139.546 141.69 139.872 140.684 140.523 139.814C141.183 138.935 142.113 138.255 143.313 137.773C144.512 137.281 145.861 137.036 147.358 137.036C148.818 137.036 150.125 137.3 151.278 137.83C152.44 138.359 153.342 139.115 153.984 140.098C154.626 141.071 154.947 142.187 154.947 143.444H150.064C150.064 142.602 149.809 141.95 149.297 141.487C148.795 141.024 148.111 140.792 147.247 140.792C146.372 140.792 145.68 140.991 145.168 141.388C144.666 141.775 144.415 142.272 144.415 142.876C144.415 143.406 144.694 143.888 145.252 144.322C145.81 144.748 146.791 145.192 148.195 145.655C149.599 146.109 150.752 146.6 151.655 147.129C153.849 148.415 154.947 150.187 154.947 152.446C154.947 154.251 154.277 155.669 152.938 156.699C151.599 157.729 149.762 158.244 147.428 158.244C145.782 158.244 144.289 157.946 142.95 157.351C141.62 156.746 140.616 155.924 139.937 154.884C139.267 153.835 138.933 152.63 138.933 151.269H143.843C143.843 152.375 144.122 153.192 144.68 153.722C145.247 154.241 146.163 154.501 147.428 154.501C148.237 154.501 148.874 154.326 149.339 153.977C149.813 153.618 150.05 153.117 150.05 152.474Z" fill="#365272"/>
<path d="M165.715 157.96V137.319H173.01C175.623 137.319 177.609 137.806 178.967 138.779C180.334 139.753 181.017 141.166 181.017 143.018C181.017 144.086 180.775 144.998 180.292 145.754C179.808 146.51 179.097 147.068 178.158 147.427C179.218 147.711 180.031 148.24 180.599 149.015C181.166 149.79 181.45 150.735 181.45 151.85C181.45 153.873 180.817 155.394 179.552 156.415C178.297 157.426 176.432 157.942 173.959 157.96H165.715ZM170.611 149.185V154.133H173.819C174.703 154.133 175.382 153.93 175.856 153.523C176.33 153.107 176.567 152.526 176.567 151.779C176.567 150.059 175.726 149.195 174.042 149.185H170.611ZM170.611 145.924H173.164C174.233 145.915 174.996 145.717 175.451 145.329C175.907 144.942 176.135 144.37 176.135 143.614C176.135 142.744 175.888 142.12 175.396 141.742C174.903 141.355 174.108 141.161 173.01 141.161H170.611V145.924Z" fill="#365272"/>
<path d="M193.501 156.302C192.506 157.597 191.163 158.244 189.47 158.244C187.815 158.244 186.559 157.757 185.704 156.784C184.857 155.801 184.434 154.393 184.434 152.559V142.621H189.135V152.587C189.135 153.901 189.763 154.558 191.018 154.558C192.097 154.558 192.864 154.166 193.32 153.381V142.621H198.049V157.96H193.641L193.501 156.302Z" fill="#365272"/>
<path d="M207.59 154.558C208.25 154.558 208.762 154.378 209.124 154.019C209.487 153.651 209.664 153.14 209.654 152.488H214.062C214.062 154.171 213.467 155.55 212.277 156.628C211.096 157.705 209.571 158.244 207.701 158.244C205.507 158.244 203.777 157.545 202.512 156.146C201.247 154.747 200.615 152.81 200.615 150.333V150.135C200.615 148.585 200.894 147.219 201.452 146.038C202.019 144.847 202.833 143.935 203.893 143.302C204.953 142.659 206.209 142.338 207.66 142.338C209.622 142.338 211.18 142.891 212.333 143.996C213.486 145.102 214.062 146.6 214.062 148.49H209.654C209.654 147.697 209.464 147.087 209.082 146.662C208.701 146.236 208.19 146.024 207.548 146.024C206.33 146.024 205.618 146.813 205.414 148.391C205.349 148.892 205.316 149.582 205.316 150.461C205.316 152.001 205.497 153.069 205.86 153.665C206.223 154.26 206.799 154.558 207.59 154.558Z" fill="#365272"/>
<path d="M221.218 144.266C222.222 142.98 223.506 142.338 225.068 142.338C226.733 142.338 227.988 142.839 228.834 143.84C229.681 144.842 230.113 146.321 230.132 148.278V157.96H225.417V148.391C225.417 147.578 225.254 146.983 224.929 146.605C224.603 146.217 224.05 146.024 223.269 146.024C222.301 146.024 221.618 146.336 221.218 146.959V157.96H216.517V136.185H221.218V144.266Z" fill="#365272"/>
<path d="M241.821 157.96C241.653 157.649 241.505 157.19 241.374 156.585C240.51 157.691 239.301 158.244 237.748 158.244C236.325 158.244 235.116 157.809 234.121 156.94C233.126 156.061 232.628 154.96 232.628 153.637C232.628 151.973 233.233 150.716 234.442 149.866C235.651 149.015 237.408 148.59 239.714 148.59H241.165V147.782C241.165 146.373 240.565 145.669 239.366 145.669C238.25 145.669 237.692 146.227 237.692 147.342H232.991C232.991 145.858 233.609 144.653 234.846 143.727C236.092 142.801 237.678 142.338 239.603 142.338C241.528 142.338 243.048 142.815 244.164 143.77C245.28 144.724 245.852 146.033 245.88 147.697V154.487C245.899 155.895 246.113 156.973 246.522 157.719V157.96H241.821ZM238.878 154.842C239.463 154.842 239.947 154.714 240.328 154.459C240.719 154.204 240.998 153.915 241.165 153.594V151.141H239.798C238.161 151.141 237.343 151.888 237.343 153.381C237.343 153.816 237.487 154.171 237.775 154.445C238.064 154.709 238.431 154.842 238.878 154.842Z" fill="#365272"/>
<path d="M258.197 146.945L256.649 146.832C255.17 146.832 254.221 147.304 253.803 148.249V157.96H249.102V142.621H253.51L253.663 144.592C254.454 143.089 255.556 142.338 256.969 142.338C257.472 142.338 257.909 142.394 258.281 142.508L258.197 146.945Z" fill="#365272"/>
<path d="M267.487 158.244C265.171 158.244 263.297 157.545 261.865 156.146C260.433 154.738 259.717 152.909 259.717 150.659V150.262C259.717 148.694 260.001 147.309 260.568 146.109C261.144 144.908 261.981 143.982 263.079 143.33C264.176 142.669 265.478 142.338 266.985 142.338C269.105 142.338 270.779 143.009 272.007 144.351C273.234 145.683 273.848 147.545 273.848 149.936V151.794H264.502C264.669 152.654 265.036 153.329 265.604 153.821C266.171 154.312 266.906 154.558 267.808 154.558C269.296 154.558 270.458 154.029 271.295 152.97L273.443 155.55C272.857 156.373 272.025 157.029 270.946 157.521C269.877 158.003 268.724 158.244 267.487 158.244ZM266.957 146.024C265.58 146.024 264.762 146.95 264.502 148.802H269.244V148.434C269.263 147.668 269.072 147.077 268.673 146.662C268.273 146.236 267.701 146.024 266.957 146.024Z" fill="#365272"/>
<path d="M284.226 153.651C284.226 153.244 284.016 152.918 283.598 152.673C283.179 152.427 282.384 152.172 281.213 151.907C280.041 151.642 279.074 151.297 278.311 150.872C277.549 150.437 276.967 149.913 276.567 149.298C276.168 148.684 275.968 147.98 275.968 147.186C275.968 145.778 276.54 144.62 277.683 143.713C278.827 142.796 280.324 142.338 282.175 142.338C284.165 142.338 285.765 142.796 286.974 143.713C288.183 144.63 288.787 145.835 288.787 147.328H284.072C284.072 146.099 283.435 145.485 282.161 145.485C281.668 145.485 281.254 145.627 280.92 145.91C280.585 146.184 280.417 146.529 280.417 146.945C280.417 147.37 280.622 147.715 281.031 147.98C281.44 148.245 282.091 148.462 282.984 148.632C283.886 148.802 284.677 149.005 285.356 149.242C287.625 150.036 288.759 151.458 288.759 153.509C288.759 154.908 288.146 156.047 286.918 156.926C285.7 157.804 284.119 158.244 282.175 158.244C280.882 158.244 279.729 158.008 278.716 157.535C277.702 157.063 276.911 156.42 276.344 155.607C275.777 154.794 275.493 153.939 275.493 153.041H279.887C279.906 153.75 280.138 154.27 280.585 154.601C281.031 154.922 281.603 155.083 282.301 155.083C282.942 155.083 283.421 154.95 283.737 154.686C284.063 154.421 284.226 154.076 284.226 153.651Z" fill="#365272"/>
<path d="M297.017 138.808V142.621H299.5V145.939H297.017V152.956C297.017 153.533 297.119 153.934 297.324 154.161C297.528 154.388 297.933 154.501 298.537 154.501C299.002 154.501 299.393 154.473 299.709 154.416V157.833C298.863 158.107 297.979 158.244 297.059 158.244C295.441 158.244 294.246 157.856 293.474 157.081C292.702 156.306 292.316 155.13 292.316 153.551V145.939H290.391V142.621H292.316V138.808H297.017Z" fill="#365272"/>
</svg>
