<svg width="316" height="180" viewBox="0 0 316 180" fill="none" xmlns="http://www.w3.org/2000/svg">
<path d="M31.125 103.822C33.9676 103.375 36.7299 102.951 39.4922 102.516C43.0453 101.965 46.61 101.415 50.1632 100.865C53.7163 100.315 57.281 99.7533 60.8341 99.2031C62.6451 98.9166 64.4446 98.5842 66.2556 98.4008C67.0465 98.3206 67.8717 98.5154 68.6741 98.6529C74.1757 99.5928 79.6774 100.544 85.1791 101.495C90.2796 102.378 95.3916 103.261 100.492 104.143C100.618 104.166 100.744 104.223 100.905 104.281C100.71 106.011 100.515 107.742 100.32 109.461C100.034 111.995 99.7242 114.539 99.4606 117.072C99.3918 117.691 99.2199 118.081 98.6239 118.402C87.9987 124.179 77.3736 130.001 66.7599 135.835C66.3588 136.053 66.0608 136.053 65.6596 135.847C55.023 130.253 44.3749 124.683 33.7269 119.112C33.2913 118.883 33.0506 118.665 32.9818 118.115C32.5348 114.39 32.019 110.665 31.5262 106.951C31.4001 105.908 31.2626 104.877 31.125 103.822ZM59.3785 114.367C61.6938 116.831 63.9174 119.181 66.1754 121.588C69.3503 117.737 72.4794 113.955 75.6085 110.161C75.5741 110.126 75.5397 110.08 75.5053 110.046C70.187 111.467 64.8573 112.889 59.3785 114.367Z" fill="#365272"/>
<path d="M16.1673 45.0688C16.5226 45.5731 16.8206 45.9857 17.1186 46.3983C20.5343 51.1665 24.4084 55.4761 29.2109 58.8918C32.5692 61.2873 36.1912 63.0983 40.2716 63.935C40.8332 64.0496 41.3948 64.1986 41.9565 64.1986C42.5754 64.1986 43.2173 64.1413 43.7904 63.935C51.0916 61.3675 58.3698 58.7771 65.6711 56.1982C65.9805 56.0951 66.3931 56.0836 66.6912 56.1982C74.084 58.8001 81.4655 61.4134 88.8355 64.0381C89.867 64.4049 90.8757 64.2101 91.8843 64.0381C97.4089 63.0868 102.074 60.3933 106.315 56.863C110.223 53.6079 113.467 49.7681 116.367 45.6189C116.481 45.4585 116.608 45.2865 116.814 45C116.871 45.8711 116.94 46.5932 116.951 47.3038C117.089 53.5964 115.954 59.6024 112.756 65.1041C110.315 69.3106 107.037 72.7148 102.865 75.2478C102.383 75.5344 101.913 75.6719 101.386 75.7063C97.5923 75.947 93.8099 76.1763 90.016 76.4284C85.9356 76.692 81.8666 76.9557 77.7977 77.2307C74.107 77.4829 70.4163 77.7809 66.7141 77.9643C65.4074 78.0331 64.0893 77.8382 62.7712 77.7465C60.6966 77.609 58.622 77.46 56.5474 77.3224C53.831 77.139 51.103 76.9557 48.3866 76.7837C46.4037 76.6576 44.4208 76.5316 42.4493 76.4055C39.7443 76.2336 37.0393 76.0502 34.3458 75.8668C33.1423 75.7865 31.9503 75.7178 30.7468 75.6146C30.4946 75.5917 30.2195 75.5115 30.0018 75.3854C25.1648 72.5428 21.6575 68.4739 19.2047 63.465C17.6344 60.2672 16.7289 56.8859 16.2934 53.3557C15.9724 50.7309 15.9266 48.1062 16.0985 45.4699C16.0871 45.3897 16.1214 45.2865 16.1673 45.0688Z" fill="#365272"/>
<path d="M99.025 102.149C96.0793 101.656 93.2368 101.175 90.3943 100.693C85.076 99.7991 79.7462 98.8937 74.4279 97.9996C71.8605 97.5641 69.2815 97.0941 66.7026 96.7274C65.992 96.6242 65.224 96.7732 64.5019 96.8878C57.9343 97.8965 51.3781 98.928 44.8219 99.9596C41.2802 100.521 37.7385 101.083 34.1968 101.633C33.979 101.667 33.7498 101.679 33.4518 101.702C32.5348 93.5639 31.6179 85.4604 30.7009 77.2995C32.0305 77.3797 33.2798 77.46 34.5292 77.5402C37.727 77.758 40.9249 77.9758 44.1342 78.1821C47.9052 78.4342 51.6761 78.6864 55.4471 78.9386C58.5303 79.1449 61.6136 79.4429 64.7083 79.5231C67.1038 79.5804 69.5108 79.4085 71.9063 79.271C75.0927 79.0876 78.2676 78.8469 81.454 78.6405C85.2479 78.3884 89.0303 78.1248 92.8242 77.8726C95.7813 77.6777 98.727 77.4829 101.787 77.2881C100.87 85.5864 99.9535 93.8275 99.025 102.149ZM44.1457 91.9822C49.3035 88.8072 54.3811 85.6667 59.4587 82.5376C59.4473 82.5032 59.4243 82.4688 59.4129 82.4344C53.9456 82.4344 48.4783 82.4344 42.9537 82.4344C43.3434 85.6094 43.7331 88.7384 44.1457 91.9822ZM87.6549 91.9707C88.0561 88.7155 88.4458 85.5864 88.8469 82.4459C83.3108 82.4459 77.855 82.4459 72.3877 82.4459C72.3762 82.4803 72.3648 82.5147 72.3533 82.5376C77.4194 85.6667 82.4856 88.7843 87.6549 91.9707Z" fill="#365272"/>
<path d="M146.431 103.902C145.847 103.513 145.297 103.18 144.769 102.802C143.692 102.023 143.509 101.484 144.185 100.326C144.907 99.077 145.755 97.8965 146.58 96.7044C146.787 96.4064 146.798 96.2001 146.638 95.8906C145.044 92.9106 144.322 89.7356 144.574 86.3544C144.735 84.3142 145.239 82.3771 146.282 80.6005C147.646 78.2852 149.686 76.9786 152.346 76.7379C153.366 76.6462 154.409 76.6691 155.417 76.7952C156.839 76.99 157.194 77.2307 158.902 78.4686C160.69 76.7264 162.959 76.6118 165.378 76.6233C165.32 77.2422 165.286 77.8153 165.229 78.3884C165.114 79.4314 164.988 80.4744 164.873 81.506C164.828 81.8613 164.736 82.0676 164.289 82.0906C163.429 82.1364 162.57 82.274 161.87 82.8356C161.733 82.9387 161.607 83.2368 161.664 83.3743C162.421 85.1165 162.535 86.9619 162.466 88.8187C162.386 91.1913 161.733 93.4149 160.231 95.3061C158.18 97.8735 155.429 98.7332 152.231 98.3893C152.036 98.3664 151.853 98.3435 151.669 98.3091C150.787 98.1372 150.798 98.1372 150.454 98.9395C150.191 99.5584 150.271 99.9596 150.878 100.212C151.692 100.556 152.563 100.819 153.423 101.014C155.589 101.507 157.79 101.874 159.945 102.424C160.953 102.688 161.951 103.169 162.833 103.742C164.151 104.59 164.667 105.897 164.598 107.479C164.518 109.175 164.151 110.768 163.074 112.121C161.882 113.611 160.197 114.218 158.42 114.596C156.3 115.055 154.134 115.009 151.979 114.883C150.317 114.78 148.678 114.573 147.096 114.035C146.936 113.977 146.775 113.92 146.615 113.863C143.268 112.545 142.706 109.828 143.967 106.974C144.448 105.897 145.159 104.98 146.065 104.223C146.179 104.132 146.294 104.029 146.431 103.902ZM151.44 87.2599C151.474 87.2713 151.52 87.2828 151.555 87.2828C151.612 88.1997 151.624 89.1167 151.738 90.0222C151.807 90.6067 151.979 91.1798 152.174 91.73C152.369 92.2802 152.758 92.7042 153.377 92.7272C153.996 92.7386 154.397 92.3489 154.638 91.8102C154.776 91.5008 154.913 91.1798 154.982 90.8474C155.44 88.8072 155.417 86.7555 155.154 84.7039C155.051 83.9589 154.833 83.2024 154.5 82.5376C154.053 81.6665 152.942 81.6779 152.391 82.4917C152.254 82.698 152.116 82.9273 152.082 83.1565C151.841 84.5319 151.646 85.8959 151.44 87.2599ZM154.042 109.725C154.042 109.679 154.053 109.645 154.053 109.599C154.512 109.599 154.97 109.61 155.429 109.599C155.635 109.588 155.841 109.53 156.048 109.484C157.263 109.163 157.698 107.994 156.953 106.986C156.713 106.665 156.334 106.424 155.968 106.241C154.753 105.599 153.423 105.507 152.082 105.404C150.202 105.266 150.5 105.014 149.652 106.917C149.595 107.054 149.56 107.203 149.526 107.352C149.228 108.487 149.457 109.003 150.592 109.244C151.727 109.484 152.896 109.565 154.042 109.725Z" fill="#365272"/>
<path d="M274.758 78.503C276.615 76.715 278.873 76.6003 281.28 76.6233C281.223 77.311 281.177 77.9299 281.108 78.5489C281.005 79.5002 280.879 80.4401 280.776 81.3914C280.73 81.8269 280.627 82.0447 280.077 82.125C279.286 82.2281 278.518 82.5605 277.761 82.8471C277.635 82.8929 277.486 83.2368 277.543 83.3743C278.38 85.426 278.483 87.5579 278.277 89.7242C278.071 91.7988 277.406 93.7129 276.088 95.3405C274.036 97.8735 271.308 98.7332 268.133 98.3893C267.835 98.3549 267.526 98.2976 267.239 98.2289C266.872 98.1372 266.655 98.2518 266.483 98.6186C266.013 99.6043 266.116 100.109 267.159 100.418C268.5 100.831 269.887 101.106 271.262 101.369C273.452 101.782 275.652 102.172 277.692 103.112C279.034 103.731 280.157 104.659 280.386 106.172C280.799 108.911 280.054 112.613 276.248 114.046C274.896 114.551 273.509 114.849 272.076 114.917C269.016 115.055 265.978 115.009 263.021 114.058C262.838 114 262.666 113.932 262.483 113.863C259.239 112.568 258.62 109.977 259.812 107.112C260.282 105.989 261.015 105.037 261.955 104.258C262.07 104.166 262.173 104.051 262.322 103.914C261.76 103.536 261.21 103.203 260.683 102.825C259.594 102.034 259.411 101.507 260.076 100.349C260.786 99.1 261.646 97.9194 262.46 96.7274C262.654 96.4408 262.712 96.2345 262.54 95.9136C260.947 92.9335 260.213 89.7586 260.465 86.3773C260.626 84.2454 261.164 82.2052 262.322 80.3713C263.686 78.1935 265.68 76.9671 268.236 76.7379C269.257 76.6462 270.3 76.6691 271.308 76.7952C272.592 76.9327 273.772 77.4944 274.758 78.503ZM267.319 87.2943C267.354 87.3057 267.4 87.3172 267.434 87.3172C267.491 88.2341 267.503 89.1511 267.617 90.0566C267.686 90.6297 267.87 91.2142 268.064 91.7644C268.259 92.3145 268.672 92.7272 269.291 92.7272C269.875 92.7272 270.277 92.3489 270.517 91.8331C270.655 91.5237 270.792 91.2027 270.861 90.8704C271.32 88.7958 271.32 86.6982 271.01 84.6122C270.907 83.9245 270.724 83.2253 270.414 82.6063C269.933 81.6321 268.718 81.6665 268.179 82.6178C268.076 82.8012 267.973 82.9961 267.938 83.1909C267.721 84.5549 267.526 85.9303 267.319 87.2943ZM269.669 109.691C270.575 109.61 271.228 109.599 271.87 109.484C272.477 109.381 273.005 109.049 273.142 108.396C273.291 107.696 273.085 107.066 272.5 106.607C272.294 106.447 272.053 106.321 271.813 106.206C270.609 105.599 269.291 105.496 267.984 105.404C266.105 105.266 266.391 104.991 265.531 106.963C265.474 107.089 265.451 107.215 265.417 107.341C265.119 108.476 265.348 108.992 266.483 109.232C267.606 109.484 268.764 109.565 269.669 109.691Z" fill="#365272"/>
<path d="M165.332 65.9523C165.894 65.9523 166.421 65.9523 166.948 65.9523C168.816 65.9523 170.696 65.9637 172.564 65.9408C172.988 65.9408 173.103 66.0784 173.16 66.4795C173.665 70.0442 174.203 73.5973 174.719 77.162C175.189 80.4057 175.659 83.6494 176.129 86.8931C176.289 88.0278 176.45 89.1511 176.61 90.2858C176.633 90.4119 176.702 90.5265 176.805 90.8016C177.034 89.3918 177.241 88.1424 177.447 86.8931C178.089 82.9502 178.731 78.9959 179.361 75.053C179.831 72.1531 180.29 69.2647 180.771 66.3764C180.794 66.2274 180.977 65.9752 181.092 65.9752C183.533 65.9523 185.975 65.9523 188.508 65.9523C188.37 66.6858 188.256 67.3621 188.118 68.0498C186.594 75.7407 185.081 83.4431 183.556 91.134C182.525 96.3262 181.493 101.518 180.473 106.699C180.416 107.009 180.301 107.158 179.957 107.146C177.722 107.135 175.487 107.135 173.252 107.146C172.943 107.146 172.782 107.077 172.725 106.722C171.785 101.518 170.822 96.3147 169.859 91.111C168.839 85.6094 167.831 80.1077 166.81 74.5945C166.306 71.8781 165.813 69.1616 165.32 66.4451C165.309 66.3076 165.332 66.1586 165.332 65.9523Z" fill="#365272"/>
<path d="M211.145 87.4547C211.798 86.0334 212.44 84.6122 213.093 83.1909C213.919 81.3914 214.732 79.5804 215.546 77.7695C215.661 77.5058 215.753 77.2766 216.142 77.2766C218.641 77.2995 221.151 77.2881 223.65 77.2881C223.719 77.2881 223.787 77.311 223.925 77.3339C223.799 77.5517 223.707 77.7351 223.604 77.9185C221.392 81.7238 219.18 85.5406 216.945 89.3345C216.704 89.7471 216.704 90.0795 216.887 90.5036C219.168 95.8333 221.426 101.163 223.684 106.504C223.764 106.688 223.822 106.883 223.925 107.146C223.054 107.146 222.263 107.146 221.461 107.146C219.833 107.146 218.217 107.123 216.589 107.158C216.131 107.169 215.97 106.997 215.856 106.585C214.652 102.458 213.426 98.332 212.199 94.2057C212.176 94.1255 212.142 94.0453 212.062 93.816C211.626 94.6642 210.973 95.2373 210.984 96.1886C211.007 99.5928 210.996 102.986 210.996 106.39C210.996 106.619 210.996 106.837 210.996 107.112C208.451 107.112 205.964 107.112 203.42 107.112C203.42 93.4263 203.42 79.7294 203.42 65.9981C205.93 65.9981 208.417 65.9981 210.984 65.9981C210.984 73.1503 210.984 80.3025 210.984 87.4433C211.03 87.4433 211.088 87.4547 211.145 87.4547Z" fill="#365272"/>
<path d="M122.006 107.112C122.006 97.1744 122.006 87.2713 122.006 77.3339C124.528 77.3339 127.026 77.3339 129.594 77.3339C129.594 77.9872 129.594 78.6176 129.594 79.397C129.857 79.1563 130.006 79.0188 130.155 78.8812C131.451 77.6892 132.929 76.864 134.717 76.7035C137.25 76.4857 139.142 77.6434 140.15 80.016C140.597 81.0475 140.769 82.1364 140.769 83.2482C140.769 90.985 140.758 98.7217 140.781 106.447C140.781 106.997 140.632 107.158 140.081 107.146C137.789 107.112 135.497 107.135 133.113 107.135C133.113 106.871 133.113 106.63 133.113 106.401C133.113 99.0656 133.113 91.73 133.101 84.3944C133.101 83.9474 133.021 83.4774 132.86 83.0648C132.631 82.4688 132.058 82.2625 131.439 82.4573C130.35 82.8127 129.605 83.8213 129.605 84.956C129.605 92.0853 129.605 99.2031 129.605 106.332C129.605 106.573 129.605 106.825 129.605 107.1C127.061 107.112 124.562 107.112 122.006 107.112Z" fill="#365272"/>
<path d="M237.908 77.3224C240.441 77.3224 242.917 77.3224 245.473 77.3224C245.473 77.9758 245.473 78.6062 245.473 79.397C245.737 79.1563 245.886 79.0188 246.035 78.8812C247.33 77.6892 248.809 76.864 250.597 76.7035C253.13 76.4857 255.021 77.6434 256.03 80.0045C256.477 81.0361 256.648 82.125 256.648 83.2367C256.648 90.9735 256.637 98.7103 256.66 106.436C256.66 106.986 256.522 107.146 255.961 107.146C253.84 107.112 251.72 107.135 249.599 107.135C249.416 107.135 249.233 107.123 248.981 107.112C248.981 106.86 248.981 106.63 248.981 106.413C248.981 99.077 248.98 91.7414 248.969 84.4059C248.969 83.9818 248.9 83.5233 248.763 83.1221C248.522 82.4573 247.88 82.1479 247.284 82.5032C246.642 82.8814 246.104 83.4316 245.553 83.9474C245.427 84.062 245.473 84.3829 245.473 84.6122C245.473 91.8561 245.473 99.0885 245.473 106.332C245.473 106.573 245.473 106.825 245.473 107.112C242.929 107.112 240.441 107.112 237.908 107.112C237.908 97.1858 237.908 87.2599 237.908 77.3224Z" fill="#365272"/>
<path d="M294.667 86.7555C294.22 85.873 293.854 84.956 293.326 84.1537C292.937 83.5691 292.398 83.0419 291.836 82.6178C291.126 82.0906 290.278 82.1593 289.704 82.6063C289.097 83.0877 288.753 84.062 289.131 84.8299C289.475 85.552 289.934 86.2741 290.507 86.8358C291.745 88.0737 293.074 89.2313 294.381 90.4004C295.882 91.7414 297.281 93.1742 298.427 94.8247C300.662 98.0684 300.479 102.195 297.911 104.957C295.94 107.077 293.464 107.914 290.587 107.765C286.128 107.536 282.976 104.097 281.842 100.326C281.75 100.017 281.842 99.9252 282.105 99.8335C283.905 99.2031 285.693 98.5613 287.55 97.8965C287.664 98.183 287.756 98.4696 287.882 98.7332C288.272 99.5355 288.593 100.384 289.086 101.129C289.567 101.839 290.266 102.309 291.229 102.183C291.802 102.103 292.169 101.782 292.318 101.232C292.673 99.9252 292.157 98.8019 291.355 97.9079C290.243 96.6586 288.994 95.5239 287.722 94.4235C285.922 92.8533 284.134 91.2715 282.759 89.3001C280.569 86.1595 280.879 81.7811 283.527 79.2709C284.982 77.8955 286.793 77.1849 288.742 76.8296C293.957 75.8782 297.166 78.6291 299.229 82.6178C299.539 83.2253 299.768 83.8786 299.986 84.5319C300.032 84.6695 299.906 84.9904 299.791 85.0363C298.14 85.6323 296.478 86.1824 294.828 86.7555C294.759 86.7785 294.702 86.7555 294.667 86.7555Z" fill="#365272"/>
<path d="M191.133 77.2995C191.602 77.2995 192.038 77.2995 192.474 77.2995C194.388 77.2995 196.29 77.311 198.204 77.2881C198.64 77.2881 198.812 77.4141 198.755 77.8382C198.743 77.9299 198.755 78.0331 198.755 78.1248C198.755 87.5235 198.755 96.9222 198.755 106.309C198.755 107.341 198.732 107.135 197.918 107.135C195.878 107.146 193.826 107.135 191.786 107.135C191.58 107.135 191.373 107.135 191.133 107.135C191.133 97.1973 191.133 87.2942 191.133 77.2995Z" fill="#365272"/>
<path d="M225.736 107.146C225.736 97.1744 225.736 87.2943 225.736 77.3454C225.896 77.3339 226.057 77.311 226.217 77.311C228.418 77.311 230.607 77.3224 232.808 77.2995C233.289 77.2995 233.381 77.4714 233.381 77.8955C233.369 87.4433 233.369 96.991 233.381 106.539C233.381 106.997 233.278 107.169 232.773 107.169C230.458 107.135 228.131 107.146 225.736 107.146Z" fill="#365272"/>
<path d="M191.098 74.6174C191.098 72.8752 191.098 71.2133 191.098 69.5628C191.098 69.047 191.121 68.5312 191.087 68.0154C191.064 67.6028 191.236 67.4996 191.614 67.4996C193.803 67.5111 196.004 67.5111 198.193 67.4996C198.606 67.4996 198.766 67.6372 198.766 68.0613C198.755 70.0785 198.755 72.1073 198.755 74.1246C198.755 74.3882 198.743 74.6174 198.376 74.6174C195.981 74.606 193.585 74.6174 191.098 74.6174Z" fill="#365272"/>
<path d="M225.713 74.5257C225.713 72.2907 225.713 70.0556 225.713 67.832C225.713 67.4309 226.011 67.4996 226.24 67.4996C227.822 67.4882 229.404 67.4996 230.985 67.4996C231.616 67.4996 232.246 67.5111 232.877 67.4996C233.243 67.4882 233.381 67.6486 233.381 68.0039C233.369 70.0442 233.381 72.0844 233.381 74.1246C233.381 74.3882 233.358 74.6174 232.991 74.6174C230.63 74.606 228.257 74.606 225.896 74.5945C225.862 74.5945 225.828 74.5716 225.713 74.5257Z" fill="#365272"/>
</svg>
