<svg width="316" height="180" viewBox="0 0 316 180" fill="none" xmlns="http://www.w3.org/2000/svg">
<path d="M61.4791 142.435L61.635 144.235C62.6933 142.846 64.1533 142.152 66.0149 142.152C67.6118 142.152 68.8025 142.629 69.5868 143.583C70.3806 144.538 70.7916 145.974 70.82 147.892V157.772H66.029V148.091C66.029 147.316 65.8731 146.749 65.5613 146.39C65.2494 146.021 64.6825 145.837 63.8604 145.837C62.9249 145.837 62.2303 146.206 61.7767 146.943V157.772H57V142.435H61.4791Z" fill="#365272"/>
<path d="M73.4983 149.99C73.4983 148.44 73.7535 147.07 74.2637 145.879C74.774 144.689 75.5064 143.772 76.4608 143.13C77.4152 142.478 78.5255 142.152 79.7917 142.152C81.3887 142.152 82.636 142.69 83.5337 143.768L83.7038 142.435H88.0412V157.191C88.0412 158.542 87.7246 159.714 87.0915 160.706C86.4678 161.707 85.5607 162.473 84.37 163.002C83.1794 163.541 81.7998 163.81 80.2311 163.81C79.1066 163.81 78.0152 163.597 76.9569 163.172C75.908 162.747 75.1048 162.194 74.5472 161.514L76.5458 158.707C77.4341 159.756 78.6058 160.281 80.061 160.281C82.1777 160.281 83.2361 159.194 83.2361 157.021V156.539C82.3195 157.55 81.1619 158.055 79.7634 158.055C77.8924 158.055 76.3804 157.342 75.2276 155.915C74.0748 154.479 73.4983 152.56 73.4983 150.16V149.99ZM78.2892 150.288C78.2892 151.544 78.5255 152.541 78.998 153.278C79.4704 154.006 80.1319 154.37 80.9824 154.37C82.0124 154.37 82.7636 154.025 83.2361 153.335V146.886C82.7731 146.187 82.0313 145.837 81.0107 145.837C80.1603 145.837 79.4941 146.22 79.0121 146.985C78.5302 147.741 78.2892 148.842 78.2892 150.288Z" fill="#365272"/>
<path d="M108.253 150.784C108.187 152.22 107.8 153.491 107.091 154.597C106.382 155.693 105.385 156.543 104.1 157.148C102.824 157.753 101.364 158.055 99.7202 158.055C97.0082 158.055 94.8726 157.172 93.3134 155.405C91.7543 153.638 90.9747 151.143 90.9747 147.921V146.9C90.9747 144.878 91.3243 143.111 92.0236 141.599C92.7323 140.077 93.7481 138.906 95.0711 138.084C96.394 137.252 97.9248 136.836 99.6635 136.836C102.168 136.836 104.18 137.498 105.702 138.821C107.223 140.134 108.088 141.948 108.296 144.264H103.335C103.297 143.007 102.98 142.104 102.385 141.556C101.79 141.008 100.883 140.734 99.6635 140.734C98.4257 140.734 97.5185 141.197 96.9421 142.123C96.3657 143.049 96.0633 144.528 96.0349 146.56V148.02C96.0349 150.222 96.309 151.795 96.857 152.74C97.4146 153.685 98.369 154.157 99.7202 154.157C100.864 154.157 101.738 153.888 102.342 153.349C102.947 152.811 103.269 151.956 103.306 150.784H108.253Z" fill="#365272"/>
<path d="M110.365 149.962C110.365 148.431 110.662 147.07 111.258 145.879C111.853 144.679 112.708 143.758 113.823 143.116C114.938 142.473 116.247 142.152 117.749 142.152C120.046 142.152 121.855 142.865 123.178 144.292C124.501 145.709 125.163 147.642 125.163 150.089V150.259C125.163 152.65 124.496 154.549 123.164 155.957C121.841 157.356 120.046 158.055 117.778 158.055C115.595 158.055 113.842 157.403 112.519 156.099C111.196 154.786 110.483 153.009 110.379 150.77L110.365 149.962ZM115.141 150.259C115.141 151.677 115.363 152.716 115.808 153.378C116.252 154.039 116.908 154.37 117.778 154.37C119.479 154.37 120.348 153.061 120.386 150.444V149.962C120.386 147.212 119.507 145.837 117.749 145.837C116.152 145.837 115.288 147.023 115.155 149.395L115.141 150.259Z" fill="#365272"/>
<path d="M142.086 150.217C142.086 152.598 141.548 154.502 140.47 155.929C139.402 157.347 137.957 158.055 136.133 158.055C134.725 158.055 133.567 157.54 132.66 156.51V163.668H127.883V142.435H132.348L132.49 143.853C133.407 142.719 134.612 142.152 136.105 142.152C137.994 142.152 139.464 142.851 140.513 144.249C141.562 145.639 142.086 147.552 142.086 149.99V150.217ZM137.309 149.919C137.309 147.198 136.516 145.837 134.928 145.837C133.794 145.837 133.038 146.243 132.66 147.056V153.094C133.076 153.945 133.841 154.37 134.956 154.37C136.478 154.37 137.262 153.056 137.309 150.429V149.919Z" fill="#365272"/>
<path d="M152.206 158.055C149.853 158.055 147.949 157.356 146.494 155.957C145.039 154.549 144.311 152.721 144.311 150.472V150.075C144.311 148.506 144.599 147.122 145.176 145.922C145.761 144.722 146.612 143.796 147.727 143.144C148.842 142.482 150.165 142.152 151.696 142.152C153.85 142.152 155.551 142.823 156.798 144.164C158.046 145.497 158.67 147.358 158.67 149.749V151.606H149.173C149.343 152.466 149.716 153.141 150.292 153.633C150.869 154.124 151.615 154.37 152.532 154.37C154.044 154.37 155.225 153.841 156.076 152.782L158.258 155.362C157.663 156.184 156.817 156.841 155.721 157.332C154.635 157.814 153.463 158.055 152.206 158.055ZM151.667 145.837C150.269 145.837 149.437 146.763 149.173 148.615H153.992V148.247C154.011 147.481 153.817 146.891 153.411 146.475C153.005 146.05 152.423 145.837 151.667 145.837Z" fill="#365272"/>
<path d="M165.572 142.435L165.728 144.235C166.786 142.846 168.246 142.152 170.108 142.152C171.705 142.152 172.895 142.629 173.68 143.583C174.473 144.538 174.884 145.974 174.913 147.892V157.772H170.122V148.091C170.122 147.316 169.966 146.749 169.654 146.39C169.342 146.021 168.775 145.837 167.953 145.837C167.018 145.837 166.323 146.206 165.869 146.943V157.772H161.093V142.435H165.572Z" fill="#365272"/>
<path d="M182.821 144.079C183.842 142.794 185.146 142.152 186.734 142.152C188.425 142.152 189.701 142.652 190.561 143.654C191.42 144.656 191.86 146.135 191.879 148.091V157.772H187.088V148.204C187.088 147.391 186.922 146.796 186.592 146.418C186.261 146.031 185.699 145.837 184.905 145.837C183.922 145.837 183.228 146.149 182.821 146.772V157.772H178.045V136H182.821V144.079Z" fill="#365272"/>
<path d="M203.756 157.772C203.586 157.46 203.435 157.002 203.303 156.397C202.424 157.502 201.195 158.055 199.617 158.055C198.172 158.055 196.943 157.621 195.932 156.751C194.921 155.872 194.415 154.772 194.415 153.449C194.415 151.785 195.03 150.529 196.258 149.678C197.487 148.828 199.272 148.403 201.616 148.403H203.09V147.595C203.09 146.187 202.481 145.483 201.262 145.483C200.128 145.483 199.561 146.04 199.561 147.155H194.784C194.784 145.672 195.412 144.467 196.669 143.541C197.935 142.615 199.547 142.152 201.503 142.152C203.459 142.152 205.004 142.629 206.138 143.583C207.272 144.538 207.853 145.846 207.881 147.51V154.299C207.9 155.707 208.117 156.784 208.533 157.531V157.772H203.756ZM200.766 154.653C201.361 154.653 201.852 154.526 202.24 154.271C202.637 154.016 202.92 153.727 203.09 153.406V150.954H201.701C200.038 150.954 199.206 151.7 199.206 153.193C199.206 153.628 199.353 153.982 199.646 154.257C199.939 154.521 200.312 154.653 200.766 154.653Z" fill="#365272"/>
<path d="M210.559 149.99C210.559 148.44 210.815 147.07 211.325 145.879C211.835 144.689 212.567 143.772 213.522 143.13C214.476 142.478 215.587 142.152 216.853 142.152C218.45 142.152 219.697 142.69 220.595 143.768L220.765 142.435H225.102V157.191C225.102 158.542 224.786 159.714 224.153 160.706C223.529 161.707 222.622 162.473 221.431 163.002C220.24 163.541 218.861 163.81 217.292 163.81C216.168 163.81 215.076 163.597 214.018 163.172C212.969 162.747 212.166 162.194 211.608 161.514L213.607 158.707C214.495 159.756 215.667 160.281 217.122 160.281C219.239 160.281 220.297 159.194 220.297 157.021V156.539C219.381 157.55 218.223 158.055 216.824 158.055C214.953 158.055 213.441 157.342 212.289 155.915C211.136 154.479 210.559 152.56 210.559 150.16V149.99ZM215.35 150.288C215.35 151.544 215.587 152.541 216.059 153.278C216.531 154.006 217.193 154.37 218.043 154.37C219.073 154.37 219.825 154.025 220.297 153.335V146.886C219.834 146.187 219.092 145.837 218.072 145.837C217.221 145.837 216.555 146.22 216.073 146.985C215.591 147.741 215.35 148.842 215.35 150.288Z" fill="#365272"/>
<path d="M235.817 158.055C233.465 158.055 231.56 157.356 230.105 155.957C228.65 154.549 227.922 152.721 227.922 150.472V150.075C227.922 148.506 228.211 147.122 228.787 145.922C229.373 144.722 230.223 143.796 231.338 143.144C232.453 142.482 233.776 142.152 235.307 142.152C237.462 142.152 239.163 142.823 240.41 144.164C241.657 145.497 242.281 147.358 242.281 149.749V151.606H232.784C232.954 152.466 233.327 153.141 233.904 153.633C234.48 154.124 235.227 154.37 236.143 154.37C237.655 154.37 238.837 153.841 239.687 152.782L241.87 155.362C241.275 156.184 240.429 156.841 239.333 157.332C238.246 157.814 237.074 158.055 235.817 158.055ZM235.279 145.837C233.88 145.837 233.049 146.763 232.784 148.615H237.603V148.247C237.622 147.481 237.429 146.891 237.022 146.475C236.616 146.05 236.035 145.837 235.279 145.837Z" fill="#365272"/>
<path d="M249.183 142.435L249.339 144.235C250.398 142.846 251.857 142.152 253.719 142.152C255.316 142.152 256.507 142.629 257.291 143.583C258.085 144.538 258.496 145.974 258.524 147.892V157.772H253.733V148.091C253.733 147.316 253.577 146.749 253.265 146.39C252.954 146.021 252.387 145.837 251.565 145.837C250.629 145.837 249.934 146.206 249.481 146.943V157.772H244.704V142.435H249.183Z" fill="#365272"/>
<path fill-rule="evenodd" clip-rule="evenodd" d="M111 32.6L157.602 16L204.204 32.6L197.096 94.15L157.602 116L118.108 94.15L111 32.6ZM132.834 85.9029H157.612L157.589 85.8813H181.796C182.208 85.89 182.619 85.8661 183.026 85.8098C184.164 85.627 184.64 85.0654 184.64 83.9023C184.642 83.213 184.647 82.5237 184.652 81.8344C184.665 79.8651 184.679 77.8959 184.62 75.9266C184.559 74.4094 184.394 72.8982 184.126 71.4038C183.881 70.0705 183.566 68.7511 183.184 67.4508C183.008 66.8211 183.133 66.4539 183.614 65.9554C183.84 65.7234 184.068 65.4922 184.296 65.2606C185.501 64.0387 186.718 62.8046 187.636 61.3827C191.628 55.1998 192.349 48.3923 190.882 41.2906C190.538 39.5917 189.691 38.0382 188.453 36.8359C187.679 36.0815 187.045 36.2942 186.855 37.3726C186.761 38.0017 186.716 38.6372 186.72 39.2734C186.63 43.5122 185.506 47.4103 182.946 50.8232C181.492 52.7689 179.716 54.3474 177.511 55.4059C176.798 55.7482 176.243 55.7498 175.585 55.16C174.726 54.3795 173.809 53.6628 172.892 52.9465C172.572 52.696 172.252 52.4455 171.934 52.1924C167.25 48.4687 162.012 46.5396 155.971 47.0015C152.625 47.2574 149.462 48.0384 146.662 49.9409C144.482 51.423 142.359 52.9966 140.276 54.6166C138.657 55.8811 138.56 55.9459 136.772 54.8841C136.676 54.8276 136.585 54.7678 136.493 54.7064C132.221 51.8999 129.819 47.8456 128.918 42.8608C128.741 41.8788 128.687 40.8808 128.633 39.8819C128.602 39.3056 128.571 38.7291 128.516 38.1552C128.505 38.0515 128.498 37.9426 128.491 37.832C128.453 37.2583 128.412 36.6373 127.788 36.4437C127.044 36.2128 126.537 36.8807 126.24 37.4407C126.113 37.681 125.982 37.9212 125.851 38.1619C125.231 39.3024 124.605 40.4545 124.282 41.6894C123.451 44.8514 123.49 48.1098 123.928 51.34C124.712 57.1107 127.047 62.0822 131.522 65.9039C132.101 66.3974 132.217 66.8244 132.016 67.5306C130.986 71.1396 130.375 74.8034 130.583 78.5868C130.648 79.7503 130.632 80.9186 130.615 82.0872C130.608 82.6092 130.601 83.1313 130.601 83.6531C130.603 85.2565 131.202 85.9029 132.834 85.9029Z" fill="#365272"/>
</svg>
