<svg width="316" height="180" viewBox="0 0 316 180" fill="none" xmlns="http://www.w3.org/2000/svg">
<path d="M44 64.2969H50.5234L56.7023 90.5344V64.2969H62.7441V109.542H56.2207L50.2703 84.127V109.542H44V64.2969Z" fill="#365272"/>
<path d="M78.6096 77.6915V73.0801C78.6096 71.0509 77.6641 70.0293 75.7732 70.0153H75.7275C73.8529 70.0153 72.9157 71.0369 72.9157 73.0801V100.755C72.9157 102.798 73.8611 103.82 75.7521 103.82C77.643 103.82 78.5955 102.798 78.6096 100.755V96.0911H75.9559V89.6346H85.1224V100.755C85.1224 107.082 81.9942 110.256 75.738 110.277C69.4818 110.298 66.3654 107.124 66.3888 100.755V73.0801C66.3888 66.7536 69.5087 63.5903 75.7486 63.5903C81.9884 63.5903 85.1165 66.7536 85.1329 73.0801V77.6915H78.6096Z" fill="#365272"/>
<path d="M223.518 74.6721L218.907 109.542H212.334L219.065 64.3071H228.01L234.723 109.542H228.13L223.518 74.6721Z" fill="#365272"/>
<path d="M252.571 64.2969V70.7288H246.449V109.542H239.936V70.7288H233.827V64.2969H252.571Z" fill="#365272"/>
<path d="M254.832 109.542V64.2969H261.355V103.1H271.756V109.542H254.832Z" fill="#365272"/>
<path d="M135.182 62.7956C135.182 61.3312 135.905 60.0834 137.351 59.0524C138.646 58.1152 139.297 57.356 139.301 56.7749V53.7909C139.301 53.2847 139.076 53.0305 138.627 53.0282C138.17 53.0282 137.941 53.2824 137.941 53.7909V56.1176H135.2V53.7909C135.2 51.4711 136.342 50.3113 138.627 50.3113C140.911 50.3113 142.056 51.4711 142.06 53.7909V56.8206C142.06 58.3132 141.335 59.5773 139.885 60.613C138.589 61.5502 137.941 62.3375 137.941 62.9749V63.6181H142.057V66.3315H135.182V62.7956Z" fill="#365272"/>
<path d="M150.208 63.1155C150.208 65.4305 149.063 66.588 146.774 66.588C144.485 66.588 143.342 65.4305 143.347 63.1155V53.7909C143.347 51.4711 144.489 50.3113 146.774 50.3113C149.059 50.3113 150.203 51.4711 150.208 53.7909V63.1155ZM147.466 53.7944C147.466 53.2883 147.238 53.034 146.781 53.0317C146.331 53.0317 146.106 53.2859 146.106 53.7944V63.1155C146.106 63.6239 146.335 63.8782 146.792 63.8782C147.249 63.8782 147.483 63.6239 147.495 63.1155L147.466 53.7944Z" fill="#365272"/>
<path d="M156.313 50.5613V63.6361H158.373V66.3495H151.512V63.6361H153.572V53.2711H151.512V50.5613H156.313Z" fill="#365272"/>
<path d="M166.615 56.0935V53.7913C166.615 52.1277 166.087 51.0733 165.03 50.6281C164.441 50.3511 163.8 50.2015 163.149 50.1887C162.466 50.191 161.794 50.3611 161.192 50.6843C160.238 51.1764 159.761 52.212 159.761 53.7913V56.09C159.761 57.1983 160.134 57.8919 160.879 58.1707C160.134 58.5011 159.761 59.2204 159.761 60.3287V63.1019C159.761 64.6296 160.206 65.6477 161.097 66.1562C161.722 66.4721 162.418 66.6199 163.118 66.585H163.304C164.066 66.6181 164.821 66.4314 165.48 66.0472C166.241 65.5036 166.622 64.5218 166.622 63.1019V60.3358C166.622 59.2275 166.241 58.5245 165.48 58.2269C166.237 57.9129 166.615 57.2018 166.615 56.0935ZM163.877 63.1476C163.877 63.656 163.643 63.9103 163.174 63.9103C162.705 63.9103 162.48 63.656 162.499 63.1476V60.8173C162.499 60.3112 162.724 60.0569 163.174 60.0546C163.629 60.0546 163.857 60.3088 163.859 60.8173L163.877 63.1476ZM163.877 56.1181C163.877 56.6266 163.643 56.8808 163.174 56.8808C162.705 56.8808 162.48 56.6266 162.499 56.1181V53.7773C162.499 53.2711 162.724 53.0169 163.174 53.0146C163.629 53.0146 163.857 53.2688 163.859 53.7773L163.877 56.1181Z" fill="#365272"/>
<path d="M150.904 28L93.1079 48.621L102.875 125.137L150.904 152L198.93 125.14L208.697 48.6245L150.904 28ZM197.102 123.907L150.904 149.747L104.703 123.907L95.2589 49.9425L150.904 30.0878L206.546 49.9425L197.102 123.907Z" fill="#365272"/>
<path d="M150.904 32.9204L97.6948 51.9L106.689 122.346L111.61 125.094L112.425 125.548L119.852 129.702L120.326 129.969L124.839 132.504L125.507 132.876L130.048 135.414L130.544 135.691L134.832 138.088L135.503 138.465L142.532 142.39L142.652 142.457L145.731 144.179L146.631 144.689L150.89 147.072L151.867 146.527L152.774 146.021L161.937 140.897L163.74 139.888L167.649 137.702L169.452 136.693L173.36 134.507L175.163 133.498L177.304 132.3L178.92 131.396L181.325 130.05L182.527 129.379L188.389 126.1L190.192 125.091L195.113 122.339L204.111 51.9L150.904 32.9204ZM118.513 123.706L113.402 120.849V108.333L118.513 106.224V123.706ZM123.697 126.606L120.316 124.715V105.482L123.697 104.076V126.606ZM128.733 108.768H125.503V103.342L128.733 102.01V108.768ZM128.733 110.572V112.459H125.503V110.572H128.733ZM128.733 114.262V116.149H125.503V114.262H128.733ZM128.733 117.952V129.421L125.503 127.615V117.956L128.733 117.952ZM125.503 101.388V97.0574H140.831V103.672H133.696V132.201L130.533 130.444V99.3138L125.503 101.388ZM137.225 89.3882V95.2508H129.113V89.3917L137.225 89.3882ZM132.065 87.5851L133.166 85.0651L134.266 87.5851H132.065ZM135.496 105.468H140.831V114.606H137.601V116.41H140.831V118.297H137.601V120.086H140.831V121.973H137.601V123.776H140.831V136.176L135.496 133.192V105.468ZM142.634 137.196V105.472H145.713V138.921L142.634 137.196ZM150.901 141.818L147.52 139.927V127.467H151.878V141.262L150.901 141.818ZM147.52 98.9378V97.0503H152.089V95.2473H147.52V93.3599H152.089V91.5568H147.52V89.6694H152.089V87.8663H147.52V85.9789H152.089V84.1758H147.52V82.183H161.93V96.2419L156.222 92.3336V138.837L153.667 140.268V103.669H147.52V100.755H152.089V98.9518L147.52 98.9378ZM152.479 80.3694V77.2061H156.988V80.3694H152.479ZM161.948 120.086V121.513H158.043V120.086H161.948ZM158.043 118.283V95.7604L161.948 98.4316V118.29L158.043 118.283ZM161.948 123.316V124.743H158.043V123.316H161.948ZM161.948 126.546V127.973H158.043V126.546H161.948ZM161.948 129.776V131.203H158.043V129.787L161.948 129.776ZM151.878 105.461V118.293H147.52V105.472L151.878 105.461ZM151.878 120.086V121.973H147.52V120.086H151.878ZM151.878 123.776V125.664H147.52V123.776H151.878ZM158.039 137.818V133.017H161.944V135.646L158.039 137.818ZM163.747 134.623V99.6688L167.656 102.344V132.451L163.747 134.623ZM169.476 131.442V103.567L173.385 106.241V129.249L169.476 131.442ZM169.476 101.391V93.2228H180.724V94.7517H172.619V96.5548H180.724V97.5916H172.619V99.3947H180.724V100.403H172.619V102.206H180.724V106.667H177.128V127.147L175.174 128.24V105.299L169.476 101.391ZM180.724 118.132V119.158H178.931V118.132H180.724ZM178.92 116.329V108.487H180.724V116.336L178.92 116.329ZM180.724 120.961V121.987H178.931V120.961H180.724ZM178.92 123.773H180.724V125.123L178.92 126.131V123.773ZM182.527 124.124V108.487H188.389V112.469H184.34V114.273H188.4V120.859L182.527 124.124ZM190.846 119.471L190.189 119.822V106.674H187.025V103.215H185.222V106.674H182.516V91.4197H173.972V83.9439H172.169V91.4197H167.659V100.157L163.751 97.4827V80.3694H158.792V75.4136H150.676V80.3694H145.717V103.665H142.638V95.2543H139.032V87.5887H136.237L134.072 82.6329V77.2061H132.269V82.6188L130.111 87.5887H127.299V95.2543H123.7V102.136L120.319 103.542V100.674H118.513V104.27L111.599 107.12V119.84L110.942 119.488L102.714 54.9859L150.901 37.7918L199.088 54.9859L190.846 119.471Z" fill="#365272"/>
</svg>
