<svg width="316" height="180" viewBox="0 0 316 180" fill="none" xmlns="http://www.w3.org/2000/svg">
<path opacity="0.65" fill-rule="evenodd" clip-rule="evenodd" d="M162.664 40.491L162.787 152.815L210.24 126.027L214.811 60.0709L162.664 40.491Z" fill="#365272"/>
<path fill-rule="evenodd" clip-rule="evenodd" d="M154.331 150.194V129.302C145.104 119.283 138.696 121.036 131.058 123.299L130.626 123.429C124.321 125.301 117.15 127.374 106.879 123.406L154.331 150.194ZM154.331 114.811V69.4615L136.213 111.374C144.456 109.893 150.648 112.464 154.331 114.809V114.811ZM154.331 42.9203V28.9543L98 49.6554L106.879 123.406C113.996 124.611 122.352 116.897 124.981 110.816L154.331 42.9182V42.9203Z" fill="#365272"/>
<path fill-rule="evenodd" clip-rule="evenodd" d="M154.331 18L221.84 42.8091L211.369 129.802L154.331 162V150.194L201.785 123.406C194.667 124.611 186.311 116.897 183.682 110.816L154.331 42.9182V69.4553L172.448 111.374C164.207 109.893 158.013 112.464 154.331 114.809V129.302C163.559 119.283 169.977 121.036 177.603 123.299L178.035 123.429C184.34 125.301 191.514 127.374 201.785 123.406L210.664 49.6553L154.331 28.9543V18Z" fill="#365272"/>
</svg>
