<svg width="316" height="180" viewBox="0 0 316 180" fill="none" xmlns="http://www.w3.org/2000/svg">
<mask id="mask0" mask-type="alpha" maskUnits="userSpaceOnUse" x="114" y="16" width="95" height="105">
<path d="M161.728 16L114.844 33.2685L122.254 97.5581L161.728 120.297L201.522 97.2519L208.93 32.9645L161.728 16Z" fill="white"/>
</mask>
<g mask="url(#mask0)">
<path fill-rule="evenodd" clip-rule="evenodd" d="M114.844 33.2685L161.728 16L208.93 32.9645L201.522 97.2519L161.728 120.297L122.254 97.5581L114.844 33.2685ZM167.448 60.4901H152.039V45.1738H167.448C170.016 45.1738 171.98 45.7439 173.339 46.8842C174.699 48.0245 175.379 49.9941 175.379 52.793C175.379 55.281 174.623 57.1858 173.113 58.5075C171.602 59.8292 169.714 60.4901 167.448 60.4901ZM167.951 37.151H141.829V91.8519H166.52C169.983 91.8519 172.969 91.4561 175.478 90.6644C177.988 89.8728 180.045 88.8002 181.651 87.4467C183.257 86.0933 184.437 84.4844 185.19 82.6202C185.942 80.756 186.319 78.7513 186.319 76.6061C186.319 72.8777 185.466 69.7749 183.759 67.2978C182.053 64.8207 179.544 63.2246 176.231 62.5095V62.3563C178.69 61.2837 180.585 59.7643 181.915 57.7979C183.245 55.8315 183.91 53.4693 183.91 50.7113C183.91 46.1656 182.454 42.7692 179.544 40.5219C176.633 38.2746 172.768 37.151 167.951 37.151ZM168.583 83.8291H152.039V67.0542H168.583C171.428 67.0542 173.636 67.7688 175.208 69.198C176.781 70.6273 177.567 72.6709 177.567 75.3288C177.567 78.0369 176.781 80.1306 175.208 81.61C173.636 83.0894 171.428 83.8291 168.583 83.8291Z" fill="#365272"/>
</g>
<path fill-rule="evenodd" clip-rule="evenodd" d="M74 143.99H76.9932V146.096L77.0487 146.151C77.5291 145.357 78.1573 144.733 78.9333 144.281C79.7093 143.828 80.5685 143.602 81.5108 143.602C83.0813 143.602 84.3193 144.008 85.2246 144.821C86.13 145.634 86.5827 146.854 86.5827 148.48V158.318H83.4232V149.311C83.3862 148.184 83.146 147.366 82.7026 146.858C82.2591 146.35 81.5662 146.096 80.6239 146.096C80.0881 146.096 79.6077 146.193 79.1827 146.387C78.7578 146.581 78.3975 146.849 78.1018 147.191C77.8062 147.533 77.5753 147.934 77.409 148.396C77.2427 148.858 77.1595 149.348 77.1595 149.865V158.318H74V143.99ZM102.868 157.57C102.868 159.732 102.263 161.344 101.052 162.406C99.8421 163.469 98.1006 164 95.828 164C95.1074 164 94.3822 163.926 93.6524 163.778C92.9225 163.63 92.2574 163.381 91.6569 163.03C91.0564 162.679 90.5529 162.217 90.1464 161.644C89.7399 161.071 89.4997 160.369 89.4258 159.538H92.5853C92.6777 159.981 92.8348 160.342 93.0565 160.619C93.2782 160.896 93.5415 161.113 93.8464 161.27C94.1512 161.427 94.4884 161.529 94.858 161.575C95.2275 161.621 95.6155 161.644 96.022 161.644C97.2969 161.644 98.23 161.33 98.8212 160.702C99.4125 160.074 99.7081 159.168 99.7081 157.986V155.796H99.6527C99.2092 156.591 98.6041 157.21 97.8373 157.653C97.0706 158.097 96.2437 158.318 95.3568 158.318C94.2113 158.318 93.2366 158.12 92.4329 157.723C91.6291 157.325 90.964 156.78 90.4374 156.087C89.9108 155.394 89.5274 154.595 89.2872 153.69C89.047 152.785 88.9269 151.815 88.9269 150.78C88.9269 149.819 89.0747 148.904 89.3704 148.036C89.666 147.168 90.091 146.406 90.6453 145.75C91.1996 145.094 91.8786 144.572 92.6823 144.184C93.4861 143.796 94.396 143.602 95.4123 143.602C96.3176 143.602 97.1491 143.791 97.9066 144.17C98.6642 144.549 99.2462 145.144 99.6527 145.957H99.7081V143.99H102.868V157.57ZM95.8557 155.824C96.5578 155.824 97.1537 155.681 97.6433 155.394C98.133 155.108 98.5302 154.729 98.8351 154.258C99.14 153.787 99.3617 153.251 99.5003 152.651C99.6388 152.05 99.7081 151.445 99.7081 150.835C99.7081 150.226 99.6342 149.634 99.4864 149.062C99.3386 148.489 99.1122 147.981 98.8074 147.537C98.5025 147.094 98.1053 146.743 97.6156 146.484C97.126 146.225 96.5394 146.096 95.8557 146.096C95.1536 146.096 94.5623 146.244 94.0819 146.539C93.6015 146.835 93.2135 147.218 92.9179 147.69C92.6223 148.161 92.4098 148.697 92.2805 149.297C92.1511 149.898 92.0864 150.493 92.0864 151.085C92.0864 151.676 92.1604 152.253 92.3082 152.817C92.456 153.38 92.6823 153.884 92.9872 154.327C93.2921 154.771 93.6801 155.131 94.1512 155.408C94.6224 155.685 95.1905 155.824 95.8557 155.824ZM109.619 150.78L104.658 143.99H108.482L111.476 148.396L114.607 143.99H118.266L113.388 150.614L118.875 158.318H115.078L111.448 153.025L107.928 158.318H104.214L109.619 150.78ZM120.056 149.283H128.121V152.277H120.056V149.283ZM130.936 138.53H134.096V145.847H134.151C134.373 145.496 134.641 145.181 134.955 144.904C135.269 144.627 135.615 144.392 135.994 144.198C136.373 144.004 136.77 143.856 137.186 143.754C137.602 143.652 138.013 143.602 138.419 143.602C139.546 143.602 140.53 143.8 141.371 144.198C142.212 144.595 142.909 145.14 143.463 145.833C144.018 146.526 144.433 147.334 144.711 148.258C144.988 149.182 145.126 150.17 145.126 151.223C145.126 152.184 145.002 153.117 144.752 154.023C144.503 154.928 144.124 155.727 143.616 156.42C143.108 157.113 142.466 157.667 141.69 158.083C140.914 158.499 139.999 158.706 138.946 158.706C138.465 158.706 137.98 158.674 137.491 158.609C137.001 158.545 136.535 158.42 136.091 158.235C135.648 158.05 135.246 157.81 134.886 157.515C134.525 157.219 134.225 156.831 133.985 156.351H133.929V158.318H130.936V138.53ZM141.967 151.168C141.967 150.521 141.884 149.893 141.717 149.283C141.551 148.674 141.302 148.133 140.969 147.662C140.636 147.191 140.221 146.812 139.722 146.526C139.223 146.239 138.65 146.096 138.004 146.096C136.673 146.096 135.671 146.558 134.996 147.482C134.322 148.406 133.985 149.634 133.985 151.168C133.985 151.888 134.073 152.558 134.248 153.177C134.424 153.796 134.687 154.327 135.038 154.771C135.389 155.214 135.809 155.565 136.299 155.824C136.789 156.083 137.357 156.212 138.004 156.212C138.724 156.212 139.334 156.064 139.833 155.769C140.332 155.473 140.743 155.09 141.066 154.618C141.389 154.147 141.62 153.611 141.759 153.011C141.898 152.41 141.967 151.796 141.967 151.168ZM154.067 158.706C152.921 158.706 151.9 158.517 151.004 158.138C150.108 157.759 149.351 157.238 148.732 156.572C148.113 155.907 147.641 155.113 147.318 154.189C146.995 153.265 146.833 152.249 146.833 151.14C146.833 150.05 146.995 149.043 147.318 148.119C147.641 147.195 148.113 146.401 148.732 145.736C149.351 145.071 150.108 144.549 151.004 144.17C151.9 143.791 152.921 143.602 154.067 143.602C155.212 143.602 156.233 143.791 157.129 144.17C158.025 144.549 158.783 145.071 159.402 145.736C160.021 146.401 160.492 147.195 160.815 148.119C161.139 149.043 161.3 150.05 161.3 151.14C161.3 152.249 161.139 153.265 160.815 154.189C160.492 155.113 160.021 155.907 159.402 156.572C158.783 157.238 158.025 157.759 157.129 158.138C156.233 158.517 155.212 158.706 154.067 158.706ZM154.067 156.212C154.769 156.212 155.379 156.064 155.896 155.769C156.413 155.473 156.838 155.085 157.171 154.605C157.503 154.124 157.748 153.584 157.905 152.983C158.062 152.383 158.141 151.768 158.141 151.14C158.141 150.53 158.062 149.921 157.905 149.311C157.748 148.701 157.503 148.161 157.171 147.69C156.838 147.218 156.413 146.835 155.896 146.539C155.379 146.244 154.769 146.096 154.067 146.096C153.365 146.096 152.755 146.244 152.238 146.539C151.72 146.835 151.295 147.218 150.963 147.69C150.63 148.161 150.385 148.701 150.228 149.311C150.071 149.921 149.993 150.53 149.993 151.14C149.993 151.768 150.071 152.383 150.228 152.983C150.385 153.584 150.63 154.124 150.963 154.605C151.295 155.085 151.72 155.473 152.238 155.769C152.755 156.064 153.365 156.212 154.067 156.212ZM170.213 158.706C169.068 158.706 168.047 158.517 167.151 158.138C166.255 157.759 165.497 157.238 164.878 156.572C164.259 155.907 163.788 155.113 163.465 154.189C163.141 153.265 162.98 152.249 162.98 151.14C162.98 150.05 163.141 149.043 163.465 148.119C163.788 147.195 164.259 146.401 164.878 145.736C165.497 145.071 166.255 144.549 167.151 144.17C168.047 143.791 169.068 143.602 170.213 143.602C171.359 143.602 172.38 143.791 173.276 144.17C174.172 144.549 174.929 145.071 175.548 145.736C176.167 146.401 176.638 147.195 176.962 148.119C177.285 149.043 177.447 150.05 177.447 151.14C177.447 152.249 177.285 153.265 176.962 154.189C176.638 155.113 176.167 155.907 175.548 156.572C174.929 157.238 174.172 157.759 173.276 158.138C172.38 158.517 171.359 158.706 170.213 158.706ZM170.213 156.212C170.915 156.212 171.525 156.064 172.042 155.769C172.56 155.473 172.985 155.085 173.317 154.605C173.65 154.124 173.895 153.584 174.052 152.983C174.209 152.383 174.287 151.768 174.287 151.14C174.287 150.53 174.209 149.921 174.052 149.311C173.895 148.701 173.65 148.161 173.317 147.69C172.985 147.218 172.56 146.835 172.042 146.539C171.525 146.244 170.915 146.096 170.213 146.096C169.511 146.096 168.901 146.244 168.384 146.539C167.867 146.835 167.442 147.218 167.109 147.69C166.776 148.161 166.532 148.701 166.375 149.311C166.218 149.921 166.139 150.53 166.139 151.14C166.139 151.768 166.218 152.383 166.375 152.983C166.532 153.584 166.776 154.124 167.109 154.605C167.442 155.085 167.867 155.473 168.384 155.769C168.901 156.064 169.511 156.212 170.213 156.212ZM178.35 143.99H180.733V139.694H183.893V143.99H186.748V146.345H183.893V153.995C183.893 154.327 183.907 154.614 183.934 154.854C183.962 155.094 184.027 155.297 184.128 155.464C184.23 155.63 184.383 155.755 184.586 155.838C184.789 155.921 185.066 155.963 185.417 155.963C185.639 155.963 185.861 155.958 186.082 155.949C186.304 155.94 186.526 155.907 186.748 155.852V158.291C186.397 158.328 186.055 158.365 185.722 158.402C185.39 158.439 185.048 158.457 184.697 158.457C183.865 158.457 183.195 158.378 182.687 158.221C182.179 158.064 181.782 157.833 181.496 157.529C181.209 157.224 181.015 156.84 180.914 156.378C180.812 155.916 180.752 155.39 180.733 154.799V146.345H178.35V143.99ZM191.115 153.718C191.207 154.642 191.558 155.288 192.168 155.658C192.778 156.027 193.508 156.212 194.358 156.212C194.653 156.212 194.991 156.189 195.369 156.143C195.748 156.097 196.104 156.009 196.436 155.879C196.769 155.75 197.041 155.561 197.254 155.311C197.466 155.062 197.563 154.734 197.545 154.327C197.526 153.921 197.379 153.588 197.101 153.33C196.824 153.071 196.469 152.863 196.034 152.706C195.6 152.549 195.106 152.415 194.552 152.304C193.997 152.193 193.434 152.073 192.861 151.944C192.27 151.815 191.702 151.658 191.157 151.473C190.612 151.288 190.122 151.039 189.688 150.724C189.253 150.41 188.907 150.008 188.648 149.519C188.39 149.029 188.26 148.424 188.26 147.704C188.26 146.927 188.45 146.276 188.829 145.75C189.207 145.223 189.688 144.798 190.27 144.475C190.852 144.151 191.498 143.925 192.21 143.796C192.921 143.666 193.6 143.602 194.247 143.602C194.986 143.602 195.693 143.68 196.367 143.837C197.041 143.994 197.651 144.248 198.196 144.599C198.741 144.95 199.194 145.408 199.554 145.971C199.915 146.535 200.141 147.214 200.233 148.008H196.935C196.787 147.251 196.441 146.743 195.896 146.484C195.351 146.225 194.727 146.096 194.025 146.096C193.803 146.096 193.54 146.114 193.235 146.151C192.93 146.188 192.644 146.258 192.376 146.359C192.108 146.461 191.882 146.609 191.697 146.803C191.512 146.997 191.42 147.251 191.42 147.565C191.42 147.953 191.554 148.267 191.822 148.507C192.09 148.747 192.441 148.946 192.875 149.103C193.309 149.26 193.803 149.394 194.358 149.505C194.912 149.616 195.485 149.736 196.076 149.865C196.649 149.995 197.212 150.152 197.767 150.336C198.321 150.521 198.815 150.771 199.249 151.085C199.684 151.399 200.035 151.796 200.303 152.277C200.571 152.757 200.704 153.348 200.704 154.05C200.704 154.9 200.51 155.621 200.122 156.212C199.734 156.803 199.231 157.284 198.612 157.653C197.993 158.023 197.305 158.291 196.547 158.457C195.79 158.623 195.041 158.706 194.302 158.706C193.397 158.706 192.561 158.605 191.794 158.402C191.027 158.198 190.362 157.889 189.799 157.473C189.235 157.057 188.792 156.54 188.468 155.921C188.145 155.302 187.974 154.568 187.955 153.718H191.115ZM201.386 143.99H203.769V139.694H206.929V143.99H209.783V146.345H206.929V153.995C206.929 154.327 206.943 154.614 206.97 154.854C206.998 155.094 207.063 155.297 207.164 155.464C207.266 155.63 207.418 155.755 207.622 155.838C207.825 155.921 208.102 155.963 208.453 155.963C208.675 155.963 208.897 155.958 209.118 155.949C209.34 155.94 209.562 155.907 209.783 155.852V158.291C209.432 158.328 209.091 158.365 208.758 158.402C208.425 158.439 208.084 158.457 207.733 158.457C206.901 158.457 206.231 158.378 205.723 158.221C205.215 158.064 204.818 157.833 204.531 157.529C204.245 157.224 204.051 156.84 203.949 156.378C203.848 155.916 203.788 155.39 203.769 154.799V146.345H201.386V143.99ZM211.767 143.99H214.733V146.761H214.788C214.881 146.373 215.061 145.994 215.329 145.625C215.597 145.255 215.92 144.918 216.299 144.613C216.678 144.308 217.098 144.064 217.56 143.879C218.022 143.694 218.493 143.602 218.973 143.602C219.343 143.602 219.597 143.611 219.736 143.629C219.874 143.648 220.017 143.666 220.165 143.685V146.733C219.943 146.697 219.717 146.664 219.486 146.636C219.255 146.609 219.029 146.595 218.807 146.595C218.271 146.595 217.768 146.701 217.297 146.914C216.825 147.126 216.414 147.44 216.063 147.856C215.712 148.272 215.435 148.784 215.232 149.394C215.029 150.004 214.927 150.706 214.927 151.5V158.318H211.767V143.99ZM233.235 155.131C233.235 155.519 233.286 155.796 233.388 155.963C233.489 156.129 233.688 156.212 233.983 156.212H234.316C234.445 156.212 234.593 156.194 234.759 156.157V158.346C234.649 158.383 234.505 158.425 234.33 158.471C234.154 158.517 233.974 158.559 233.789 158.596C233.605 158.633 233.42 158.66 233.235 158.679C233.05 158.697 232.893 158.706 232.764 158.706C232.117 158.706 231.581 158.577 231.156 158.318C230.732 158.06 230.454 157.607 230.325 156.96C229.697 157.57 228.925 158.014 228.011 158.291C227.096 158.568 226.214 158.706 225.364 158.706C224.717 158.706 224.098 158.619 223.507 158.443C222.916 158.268 222.394 158.009 221.941 157.667C221.489 157.325 221.128 156.891 220.86 156.364C220.592 155.838 220.458 155.224 220.458 154.521C220.458 153.635 220.62 152.914 220.943 152.36C221.267 151.805 221.692 151.371 222.218 151.057C222.745 150.743 223.336 150.517 223.992 150.378C224.648 150.239 225.309 150.133 225.974 150.059C226.547 149.948 227.092 149.87 227.609 149.824C228.126 149.778 228.584 149.699 228.981 149.588C229.378 149.477 229.692 149.306 229.923 149.075C230.154 148.844 230.27 148.498 230.27 148.036C230.27 147.63 230.173 147.297 229.979 147.038C229.785 146.78 229.544 146.581 229.258 146.442C228.972 146.304 228.653 146.211 228.302 146.165C227.951 146.119 227.618 146.096 227.304 146.096C226.417 146.096 225.687 146.281 225.115 146.65C224.542 147.02 224.218 147.593 224.145 148.369H220.985C221.04 147.445 221.262 146.678 221.65 146.068C222.038 145.459 222.532 144.969 223.133 144.599C223.733 144.23 224.412 143.971 225.17 143.823C225.928 143.676 226.704 143.602 227.498 143.602C228.2 143.602 228.893 143.676 229.577 143.823C230.26 143.971 230.875 144.211 231.42 144.544C231.965 144.877 232.404 145.306 232.736 145.833C233.069 146.359 233.235 147.001 233.235 147.759V155.131ZM230.076 151.14C229.595 151.454 229.004 151.644 228.302 151.708C227.6 151.773 226.898 151.87 226.195 151.999C225.863 152.055 225.54 152.133 225.225 152.235C224.911 152.337 224.634 152.475 224.394 152.651C224.154 152.826 223.964 153.057 223.826 153.344C223.687 153.63 223.618 153.976 223.618 154.383C223.618 154.734 223.72 155.03 223.923 155.27C224.126 155.51 224.371 155.699 224.657 155.838C224.944 155.976 225.258 156.073 225.6 156.129C225.941 156.184 226.251 156.212 226.528 156.212C226.879 156.212 227.258 156.166 227.664 156.073C228.071 155.981 228.454 155.824 228.815 155.602C229.175 155.381 229.475 155.099 229.715 154.757C229.955 154.415 230.076 153.995 230.076 153.496V151.14ZM236.439 143.99H239.432V145.93H239.487C239.931 145.098 240.55 144.502 241.344 144.142C242.139 143.782 242.998 143.602 243.922 143.602C245.049 143.602 246.033 143.8 246.873 144.198C247.714 144.595 248.411 145.14 248.966 145.833C249.52 146.526 249.936 147.334 250.213 148.258C250.49 149.182 250.629 150.17 250.629 151.223C250.629 152.184 250.504 153.117 250.255 154.023C250.005 154.928 249.626 155.727 249.118 156.42C248.61 157.113 247.968 157.667 247.192 158.083C246.416 158.499 245.501 158.706 244.448 158.706C243.986 158.706 243.524 158.665 243.062 158.582C242.601 158.499 242.157 158.365 241.732 158.18C241.307 157.995 240.915 157.759 240.554 157.473C240.194 157.187 239.894 156.85 239.653 156.461H239.598V163.612H236.439V143.99ZM247.469 151.168C247.469 150.521 247.386 149.893 247.22 149.283C247.053 148.674 246.804 148.133 246.471 147.662C246.139 147.191 245.723 146.812 245.224 146.526C244.725 146.239 244.153 146.096 243.506 146.096C242.176 146.096 241.173 146.558 240.499 147.482C239.824 148.406 239.487 149.634 239.487 151.168C239.487 151.888 239.575 152.558 239.75 153.177C239.926 153.796 240.189 154.327 240.54 154.771C240.891 155.214 241.312 155.565 241.801 155.824C242.291 156.083 242.859 156.212 243.506 156.212C244.227 156.212 244.836 156.064 245.335 155.769C245.834 155.473 246.245 155.09 246.568 154.618C246.892 154.147 247.123 153.611 247.261 153.011C247.4 152.41 247.469 151.796 247.469 151.168Z" fill="#365272"/>
</svg>
